M48
; DRILL file {KiCad 8.0.2} date 2024-05-04T07:14:29+0200
; FORMAT={-:-/ absolute / metric / decimal}
; #@! TF.CreationDate,2024-05-04T07:14:29+02:00
; #@! TF.GenerationSoftware,Kicad,Pcbnew,8.0.2
; #@! TF.FileFunction,Plated,1,2,PTH
FMAT,2
METRIC
; #@! TA.AperFunction,Plated,PTH,ComponentDrill
T1C0.200
; #@! TA.AperFunction,Plated,PTH,ViaDrill
T2C0.400
; #@! TA.AperFunction,Plated,PTH,ComponentDrill
T3C0.600
; #@! TA.AperFunction,Plated,PTH,ComponentDrill
T4C0.750
; #@! TA.AperFunction,Plated,PTH,ComponentDrill
T5C0.762
; #@! TA.AperFunction,Plated,PTH,ComponentDrill
T6C1.100
; #@! TA.AperFunction,Plated,PTH,ComponentDrill
T7C1.200
%
G90
G05
T1
X55.624Y26.442
X55.624Y24.918
X56.386Y27.205
X56.386Y25.68
X56.386Y24.155
X57.149Y26.442
X57.149Y24.918
X57.911Y27.205
X57.911Y25.68
X57.911Y24.155
X58.674Y26.442
X58.674Y24.918
T2
X31.242Y9.652
X31.496Y17.272
X31.75Y30.226
X32.385Y1.397
X33.02Y18.288
X40.132Y32.512
X40.132Y31.496
X40.132Y30.48
X41.783Y3.429
X45.212Y21.844
X45.212Y18.288
X45.212Y17.272
X45.974Y14.478
X45.974Y11.42
X46.228Y16.25
X48.514Y36.322
X48.514Y27.432
X48.514Y22.606
X50.038Y42.5
X51.054Y7.62
X51.816Y32.258
X51.816Y27.178
X52.07Y18.542
X53.848Y45.212
X53.848Y9.906
X55.118Y9.906
X55.626Y7.62
X56.642Y20.32
X57.15Y22.098
X57.15Y18.552
X57.658Y8.636
X58.928Y9.398
X59.182Y39.624
X61.214Y32.004
X62.23Y8.636
X62.484Y31.242
X63.246Y12.7
X64.516Y42.926
T4
X46.482Y47.752
X47.752Y46.482
X49.022Y47.752
T5
X14.478Y44.704
X14.478Y42.164
X14.478Y39.624
X22.098Y44.704
X22.098Y42.164
X22.098Y39.624
T6
X34.902Y28.194
X34.902Y23.694
X41.402Y28.194
X41.402Y23.694
T7
X4.652Y29.352
X4.652Y25.852
X4.652Y22.352
X4.652Y18.852
X4.652Y15.352
X9.652Y29.352
X9.652Y25.852
X9.652Y22.352
X9.652Y18.852
X9.652Y15.352
X32.004Y45.212
X32.004Y40.212
X35.504Y45.212
X35.504Y40.212
T3
X49.02Y6.215G85X49.02Y5.115
G05
X49.02Y1.865G85X49.02Y1.065
G05
X57.66Y6.215G85X57.66Y5.115
G05
X57.66Y1.865G85X57.66Y1.065
G05
M30
