G04 #@! TF.GenerationSoftware,KiCad,Pcbnew,8.0.2*
G04 #@! TF.CreationDate,2024-05-04T07:14:25+02:00*
G04 #@! TF.ProjectId,WLED_Controller_PWM,574c4544-5f43-46f6-9e74-726f6c6c6572,rev?*
G04 #@! TF.SameCoordinates,Original*
G04 #@! TF.FileFunction,Paste,Top*
G04 #@! TF.FilePolarity,Positive*
%FSLAX46Y46*%
G04 Gerber Fmt 4.6, Leading zero omitted, Abs format (unit mm)*
G04 Created by KiCad (PCBNEW 8.0.2) date 2024-05-04 07:14:25*
%MOMM*%
%LPD*%
G01*
G04 APERTURE LIST*
G04 Aperture macros list*
%AMRoundRect*
0 Rectangle with rounded corners*
0 $1 Rounding radius*
0 $2 $3 $4 $5 $6 $7 $8 $9 X,Y pos of 4 corners*
0 Add a 4 corners polygon primitive as box body*
4,1,4,$2,$3,$4,$5,$6,$7,$8,$9,$2,$3,0*
0 Add four circle primitives for the rounded corners*
1,1,$1+$1,$2,$3*
1,1,$1+$1,$4,$5*
1,1,$1+$1,$6,$7*
1,1,$1+$1,$8,$9*
0 Add four rect primitives between the rounded corners*
20,1,$1+$1,$2,$3,$4,$5,0*
20,1,$1+$1,$4,$5,$6,$7,0*
20,1,$1+$1,$6,$7,$8,$9,0*
20,1,$1+$1,$8,$9,$2,$3,0*%
G04 Aperture macros list end*
%ADD10RoundRect,0.250000X-0.250000X-0.250000X0.250000X-0.250000X0.250000X0.250000X-0.250000X0.250000X0*%
%ADD11RoundRect,0.237500X0.237500X-0.250000X0.237500X0.250000X-0.237500X0.250000X-0.237500X-0.250000X0*%
%ADD12RoundRect,0.237500X0.250000X0.237500X-0.250000X0.237500X-0.250000X-0.237500X0.250000X-0.237500X0*%
%ADD13R,0.900000X1.500000*%
%ADD14R,1.500000X0.900000*%
%ADD15R,1.050000X1.050000*%
%ADD16RoundRect,0.250000X0.425000X-0.537500X0.425000X0.537500X-0.425000X0.537500X-0.425000X-0.537500X0*%
%ADD17RoundRect,0.237500X-0.250000X-0.237500X0.250000X-0.237500X0.250000X0.237500X-0.250000X0.237500X0*%
%ADD18RoundRect,0.237500X-0.237500X0.300000X-0.237500X-0.300000X0.237500X-0.300000X0.237500X0.300000X0*%
%ADD19R,1.500000X2.000000*%
%ADD20R,3.800000X2.000000*%
%ADD21RoundRect,0.250000X-0.537500X-0.425000X0.537500X-0.425000X0.537500X0.425000X-0.537500X0.425000X0*%
%ADD22R,2.000000X1.500000*%
%ADD23R,2.000000X3.800000*%
%ADD24RoundRect,0.237500X-0.237500X0.250000X-0.237500X-0.250000X0.237500X-0.250000X0.237500X0.250000X0*%
%ADD25RoundRect,0.250000X-0.250000X0.250000X-0.250000X-0.250000X0.250000X-0.250000X0.250000X0.250000X0*%
%ADD26RoundRect,0.237500X0.287500X0.237500X-0.287500X0.237500X-0.287500X-0.237500X0.287500X-0.237500X0*%
%ADD27R,1.700000X1.925000*%
%ADD28RoundRect,0.237500X0.300000X0.237500X-0.300000X0.237500X-0.300000X-0.237500X0.300000X-0.237500X0*%
%ADD29RoundRect,0.237500X0.237500X-0.287500X0.237500X0.287500X-0.237500X0.287500X-0.237500X-0.287500X0*%
%ADD30RoundRect,0.250000X0.350000X-0.850000X0.350000X0.850000X-0.350000X0.850000X-0.350000X-0.850000X0*%
%ADD31RoundRect,0.250000X1.125000X-1.275000X1.125000X1.275000X-1.125000X1.275000X-1.125000X-1.275000X0*%
%ADD32RoundRect,0.237500X-0.300000X-0.237500X0.300000X-0.237500X0.300000X0.237500X-0.300000X0.237500X0*%
%ADD33R,0.600000X1.240000*%
%ADD34R,0.300000X1.240000*%
%ADD35RoundRect,0.250000X0.537500X0.425000X-0.537500X0.425000X-0.537500X-0.425000X0.537500X-0.425000X0*%
%ADD36R,1.925000X1.700000*%
G04 APERTURE END LIST*
D10*
X35707000Y1397000D03*
X38207000Y1397000D03*
D11*
X58166000Y11430000D03*
X58166000Y13255000D03*
D12*
X56435000Y12446000D03*
X54610000Y12446000D03*
D13*
X64489000Y33750000D03*
X63219000Y33750000D03*
X61949000Y33750000D03*
X60679000Y33750000D03*
X59409000Y33750000D03*
X58139000Y33750000D03*
X56869000Y33750000D03*
X55599000Y33750000D03*
X54329000Y33750000D03*
X53059000Y33750000D03*
X51789000Y33750000D03*
X50519000Y33750000D03*
X49249000Y33750000D03*
X47979000Y33750000D03*
D14*
X46729000Y30710000D03*
X46729000Y29440000D03*
X46729000Y28170000D03*
X46729000Y26900000D03*
X46729000Y25630000D03*
X46729000Y24360000D03*
X46729000Y23090000D03*
X46729000Y21820000D03*
X46729000Y20550000D03*
X46729000Y19280000D03*
D13*
X47979000Y16250000D03*
X49249000Y16250000D03*
X50519000Y16250000D03*
X51789000Y16250000D03*
X53059000Y16250000D03*
X54329000Y16250000D03*
X55599000Y16250000D03*
X56869000Y16250000D03*
X58139000Y16250000D03*
X59409000Y16250000D03*
X60679000Y16250000D03*
X61949000Y16250000D03*
X63219000Y16250000D03*
X64489000Y16250000D03*
D15*
X58674000Y27205000D03*
X57149000Y27205000D03*
X55624000Y27205000D03*
X58674000Y25680000D03*
X57149000Y25680000D03*
X55624000Y25680000D03*
X58674000Y24155000D03*
X57149000Y24155000D03*
X55624000Y24155000D03*
D16*
X32512000Y5420500D03*
X32512000Y8295500D03*
D17*
X41907000Y18040000D03*
X43732000Y18040000D03*
X28043500Y26416000D03*
X29868500Y26416000D03*
D18*
X32512000Y27125000D03*
X32512000Y25400000D03*
D12*
X56435000Y14224000D03*
X54610000Y14224000D03*
D19*
X53834000Y42062000D03*
X56134000Y42062000D03*
D20*
X56134000Y48362000D03*
D19*
X58434000Y42062000D03*
D16*
X41656000Y5420500D03*
X41656000Y8295500D03*
D21*
X49616500Y39624000D03*
X52491500Y39624000D03*
D18*
X51562000Y46328500D03*
X51562000Y44603500D03*
D22*
X19710000Y7888000D03*
X19710000Y5588000D03*
X19710000Y3288000D03*
D23*
X26010000Y5588000D03*
D24*
X43942000Y27074500D03*
X43942000Y25249500D03*
D21*
X62062500Y39878000D03*
X64937500Y39878000D03*
D25*
X61722000Y3536000D03*
X61722000Y1036000D03*
D24*
X46990000Y3198500D03*
X46990000Y1373500D03*
D26*
X52691000Y12446000D03*
X50941000Y12446000D03*
D27*
X48260000Y8709500D03*
X48260000Y13134500D03*
D28*
X45159000Y39878000D03*
X43434000Y39878000D03*
X39724500Y3429000D03*
X37999500Y3429000D03*
D17*
X28043500Y18542000D03*
X29868500Y18542000D03*
D12*
X29868500Y8382000D03*
X28043500Y8382000D03*
D24*
X59690000Y3198500D03*
X59690000Y1373500D03*
D29*
X63754000Y1524000D03*
X63754000Y3274000D03*
D22*
X19710000Y15762000D03*
X19710000Y13462000D03*
X19710000Y11162000D03*
D23*
X26010000Y13462000D03*
D17*
X28043500Y10668000D03*
X29868500Y10668000D03*
D30*
X34805000Y5614000D03*
X37085000Y5614000D03*
D31*
X35560000Y10239000D03*
X38610000Y10239000D03*
X35560000Y13589000D03*
X38610000Y13589000D03*
D30*
X39365000Y5614000D03*
D26*
X52691000Y14224000D03*
X50941000Y14224000D03*
D32*
X41957000Y16262000D03*
X43682000Y16262000D03*
D28*
X56996500Y39878000D03*
X55271500Y39878000D03*
D33*
X50140000Y6265000D03*
X50940000Y6265000D03*
D34*
X52090000Y6265000D03*
X53090000Y6265000D03*
X53590000Y6265000D03*
X54590000Y6265000D03*
D33*
X55740000Y6265000D03*
X56540000Y6265000D03*
X56540000Y6265000D03*
X55740000Y6265000D03*
D34*
X55090000Y6265000D03*
X54090000Y6265000D03*
X52590000Y6265000D03*
X51590000Y6265000D03*
D33*
X50940000Y6265000D03*
X50140000Y6265000D03*
D12*
X29868500Y24130000D03*
X28043500Y24130000D03*
D22*
X19710000Y31510000D03*
X19710000Y29210000D03*
X19710000Y26910000D03*
D23*
X26010000Y29210000D03*
D35*
X57571500Y37846000D03*
X54696500Y37846000D03*
D11*
X59944000Y11430000D03*
X59944000Y13255000D03*
D21*
X62062500Y37592000D03*
X64937500Y37592000D03*
D17*
X28043500Y2794000D03*
X29868500Y2794000D03*
D24*
X63754000Y7008500D03*
X63754000Y5183500D03*
D32*
X63299000Y35560000D03*
X65024000Y35560000D03*
D36*
X41983500Y37338000D03*
X46408500Y37338000D03*
D22*
X19710000Y23636000D03*
X19710000Y21336000D03*
X19710000Y19036000D03*
D23*
X26010000Y21336000D03*
D12*
X29868500Y32004000D03*
X28043500Y32004000D03*
D32*
X59335500Y35560000D03*
X61060500Y35560000D03*
D12*
X29868500Y16256000D03*
X28043500Y16256000D03*
D32*
X34443500Y3429000D03*
X36168500Y3429000D03*
M02*
