G04 #@! TF.GenerationSoftware,KiCad,Pcbnew,8.0.2*
G04 #@! TF.CreationDate,2024-05-03T17:36:45+02:00*
G04 #@! TF.ProjectId,WLED_Controller_PWM,574c4544-5f43-46f6-9e74-726f6c6c6572,rev?*
G04 #@! TF.SameCoordinates,Original*
G04 #@! TF.FileFunction,Copper,L1,Top*
G04 #@! TF.FilePolarity,Positive*
%FSLAX46Y46*%
G04 Gerber Fmt 4.6, Leading zero omitted, Abs format (unit mm)*
G04 Created by KiCad (PCBNEW 8.0.2) date 2024-05-03 17:36:45*
%MOMM*%
%LPD*%
G01*
G04 APERTURE LIST*
G04 Aperture macros list*
%AMRoundRect*
0 Rectangle with rounded corners*
0 $1 Rounding radius*
0 $2 $3 $4 $5 $6 $7 $8 $9 X,Y pos of 4 corners*
0 Add a 4 corners polygon primitive as box body*
4,1,4,$2,$3,$4,$5,$6,$7,$8,$9,$2,$3,0*
0 Add four circle primitives for the rounded corners*
1,1,$1+$1,$2,$3*
1,1,$1+$1,$4,$5*
1,1,$1+$1,$6,$7*
1,1,$1+$1,$8,$9*
0 Add four rect primitives between the rounded corners*
20,1,$1+$1,$2,$3,$4,$5,0*
20,1,$1+$1,$4,$5,$6,$7,0*
20,1,$1+$1,$6,$7,$8,$9,0*
20,1,$1+$1,$8,$9,$2,$3,0*%
G04 Aperture macros list end*
G04 #@! TA.AperFunction,SMDPad,CuDef*
%ADD10RoundRect,0.250000X-0.250000X-0.250000X0.250000X-0.250000X0.250000X0.250000X-0.250000X0.250000X0*%
G04 #@! TD*
G04 #@! TA.AperFunction,SMDPad,CuDef*
%ADD11RoundRect,0.237500X0.237500X-0.250000X0.237500X0.250000X-0.237500X0.250000X-0.237500X-0.250000X0*%
G04 #@! TD*
G04 #@! TA.AperFunction,SMDPad,CuDef*
%ADD12RoundRect,0.237500X0.250000X0.237500X-0.250000X0.237500X-0.250000X-0.237500X0.250000X-0.237500X0*%
G04 #@! TD*
G04 #@! TA.AperFunction,SMDPad,CuDef*
%ADD13R,0.900000X1.500000*%
G04 #@! TD*
G04 #@! TA.AperFunction,SMDPad,CuDef*
%ADD14R,1.500000X0.900000*%
G04 #@! TD*
G04 #@! TA.AperFunction,SMDPad,CuDef*
%ADD15R,1.050000X1.050000*%
G04 #@! TD*
G04 #@! TA.AperFunction,HeatsinkPad*
%ADD16C,0.600000*%
G04 #@! TD*
G04 #@! TA.AperFunction,SMDPad,CuDef*
%ADD17R,4.200000X4.200000*%
G04 #@! TD*
G04 #@! TA.AperFunction,ComponentPad*
%ADD18C,2.000000*%
G04 #@! TD*
G04 #@! TA.AperFunction,SMDPad,CuDef*
%ADD19RoundRect,0.250000X0.425000X-0.537500X0.425000X0.537500X-0.425000X0.537500X-0.425000X-0.537500X0*%
G04 #@! TD*
G04 #@! TA.AperFunction,SMDPad,CuDef*
%ADD20RoundRect,0.237500X-0.250000X-0.237500X0.250000X-0.237500X0.250000X0.237500X-0.250000X0.237500X0*%
G04 #@! TD*
G04 #@! TA.AperFunction,SMDPad,CuDef*
%ADD21RoundRect,0.237500X-0.237500X0.300000X-0.237500X-0.300000X0.237500X-0.300000X0.237500X0.300000X0*%
G04 #@! TD*
G04 #@! TA.AperFunction,SMDPad,CuDef*
%ADD22R,1.500000X2.000000*%
G04 #@! TD*
G04 #@! TA.AperFunction,SMDPad,CuDef*
%ADD23R,3.800000X2.000000*%
G04 #@! TD*
G04 #@! TA.AperFunction,SMDPad,CuDef*
%ADD24RoundRect,0.250000X-0.537500X-0.425000X0.537500X-0.425000X0.537500X0.425000X-0.537500X0.425000X0*%
G04 #@! TD*
G04 #@! TA.AperFunction,SMDPad,CuDef*
%ADD25R,2.000000X1.500000*%
G04 #@! TD*
G04 #@! TA.AperFunction,SMDPad,CuDef*
%ADD26R,2.000000X3.800000*%
G04 #@! TD*
G04 #@! TA.AperFunction,SMDPad,CuDef*
%ADD27RoundRect,0.237500X-0.237500X0.250000X-0.237500X-0.250000X0.237500X-0.250000X0.237500X0.250000X0*%
G04 #@! TD*
G04 #@! TA.AperFunction,SMDPad,CuDef*
%ADD28RoundRect,0.250000X-0.250000X0.250000X-0.250000X-0.250000X0.250000X-0.250000X0.250000X0.250000X0*%
G04 #@! TD*
G04 #@! TA.AperFunction,SMDPad,CuDef*
%ADD29RoundRect,0.237500X0.287500X0.237500X-0.287500X0.237500X-0.287500X-0.237500X0.287500X-0.237500X0*%
G04 #@! TD*
G04 #@! TA.AperFunction,SMDPad,CuDef*
%ADD30R,1.700000X1.925000*%
G04 #@! TD*
G04 #@! TA.AperFunction,SMDPad,CuDef*
%ADD31RoundRect,0.237500X0.300000X0.237500X-0.300000X0.237500X-0.300000X-0.237500X0.300000X-0.237500X0*%
G04 #@! TD*
G04 #@! TA.AperFunction,SMDPad,CuDef*
%ADD32RoundRect,0.237500X0.237500X-0.287500X0.237500X0.287500X-0.237500X0.287500X-0.237500X-0.287500X0*%
G04 #@! TD*
G04 #@! TA.AperFunction,SMDPad,CuDef*
%ADD33RoundRect,0.250000X0.350000X-0.850000X0.350000X0.850000X-0.350000X0.850000X-0.350000X-0.850000X0*%
G04 #@! TD*
G04 #@! TA.AperFunction,SMDPad,CuDef*
%ADD34RoundRect,0.250000X1.125000X-1.275000X1.125000X1.275000X-1.125000X1.275000X-1.125000X-1.275000X0*%
G04 #@! TD*
G04 #@! TA.AperFunction,SMDPad,CuDef*
%ADD35RoundRect,0.249997X2.650003X-2.950003X2.650003X2.950003X-2.650003X2.950003X-2.650003X-2.950003X0*%
G04 #@! TD*
G04 #@! TA.AperFunction,ComponentPad*
%ADD36R,1.100000X1.800000*%
G04 #@! TD*
G04 #@! TA.AperFunction,ComponentPad*
%ADD37RoundRect,0.275000X0.275000X0.625000X-0.275000X0.625000X-0.275000X-0.625000X0.275000X-0.625000X0*%
G04 #@! TD*
G04 #@! TA.AperFunction,SMDPad,CuDef*
%ADD38RoundRect,0.237500X-0.300000X-0.237500X0.300000X-0.237500X0.300000X0.237500X-0.300000X0.237500X0*%
G04 #@! TD*
G04 #@! TA.AperFunction,SMDPad,CuDef*
%ADD39R,0.600000X1.240000*%
G04 #@! TD*
G04 #@! TA.AperFunction,SMDPad,CuDef*
%ADD40R,0.300000X1.240000*%
G04 #@! TD*
G04 #@! TA.AperFunction,ComponentPad*
%ADD41O,1.000000X2.100000*%
G04 #@! TD*
G04 #@! TA.AperFunction,ComponentPad*
%ADD42O,1.000000X1.800000*%
G04 #@! TD*
G04 #@! TA.AperFunction,SMDPad,CuDef*
%ADD43RoundRect,0.250000X0.537500X0.425000X-0.537500X0.425000X-0.537500X-0.425000X0.537500X-0.425000X0*%
G04 #@! TD*
G04 #@! TA.AperFunction,SMDPad,CuDef*
%ADD44R,1.925000X1.700000*%
G04 #@! TD*
G04 #@! TA.AperFunction,ComponentPad*
%ADD45C,1.524000*%
G04 #@! TD*
G04 #@! TA.AperFunction,ViaPad*
%ADD46C,0.800000*%
G04 #@! TD*
G04 #@! TA.AperFunction,Conductor*
%ADD47C,0.812800*%
G04 #@! TD*
G04 #@! TA.AperFunction,Conductor*
%ADD48C,0.406400*%
G04 #@! TD*
G04 #@! TA.AperFunction,Conductor*
%ADD49C,0.304800*%
G04 #@! TD*
G04 #@! TA.AperFunction,Conductor*
%ADD50C,0.254000*%
G04 #@! TD*
G04 APERTURE END LIST*
D10*
X35707000Y1397000D03*
X38207000Y1397000D03*
D11*
X58166000Y11430000D03*
X58166000Y13255000D03*
D12*
X56435000Y12446000D03*
X54610000Y12446000D03*
D13*
X64489000Y33750000D03*
X63219000Y33750000D03*
X61949000Y33750000D03*
X60679000Y33750000D03*
X59409000Y33750000D03*
X58139000Y33750000D03*
X56869000Y33750000D03*
X55599000Y33750000D03*
X54329000Y33750000D03*
X53059000Y33750000D03*
X51789000Y33750000D03*
X50519000Y33750000D03*
X49249000Y33750000D03*
X47979000Y33750000D03*
D14*
X46729000Y30710000D03*
X46729000Y29440000D03*
X46729000Y28170000D03*
X46729000Y26900000D03*
X46729000Y25630000D03*
X46729000Y24360000D03*
X46729000Y23090000D03*
X46729000Y21820000D03*
X46729000Y20550000D03*
X46729000Y19280000D03*
D13*
X47979000Y16250000D03*
X49249000Y16250000D03*
X50519000Y16250000D03*
X51789000Y16250000D03*
X53059000Y16250000D03*
X54329000Y16250000D03*
X55599000Y16250000D03*
X56869000Y16250000D03*
X58139000Y16250000D03*
X59409000Y16250000D03*
X60679000Y16250000D03*
X61949000Y16250000D03*
X63219000Y16250000D03*
X64489000Y16250000D03*
D15*
X58674000Y27205000D03*
D16*
X57911500Y27205000D03*
D15*
X57149000Y27205000D03*
D16*
X56386500Y27205000D03*
D15*
X55624000Y27205000D03*
D16*
X58674000Y26442500D03*
X57149000Y26442500D03*
X55624000Y26442500D03*
D15*
X58674000Y25680000D03*
D16*
X57911500Y25680000D03*
D15*
X57149000Y25680000D03*
D17*
X57149000Y25680000D03*
D16*
X56386500Y25680000D03*
D15*
X55624000Y25680000D03*
D16*
X58674000Y24917500D03*
X57149000Y24917500D03*
X55624000Y24917500D03*
D15*
X58674000Y24155000D03*
D16*
X57911500Y24155000D03*
D15*
X57149000Y24155000D03*
D16*
X56386500Y24155000D03*
D15*
X55624000Y24155000D03*
D18*
X35504000Y40212000D03*
X35504000Y45212000D03*
X32004000Y40212000D03*
X32004000Y45212000D03*
D19*
X32512000Y5420500D03*
X32512000Y8295500D03*
D20*
X41907000Y18040000D03*
X43732000Y18040000D03*
D18*
X9652000Y29352000D03*
X4652000Y29352000D03*
X9652000Y25852000D03*
X4652000Y25852000D03*
X9652000Y22352000D03*
X4652000Y22352000D03*
X9652000Y18852000D03*
X4652000Y18852000D03*
X9652000Y15352000D03*
X4652000Y15352000D03*
D20*
X28043500Y26416000D03*
X29868500Y26416000D03*
D21*
X32512000Y27125000D03*
X32512000Y25400000D03*
D12*
X56435000Y14224000D03*
X54610000Y14224000D03*
D22*
X53834000Y42062000D03*
X56134000Y42062000D03*
D23*
X56134000Y48362000D03*
D22*
X58434000Y42062000D03*
D19*
X41656000Y5420500D03*
X41656000Y8295500D03*
D24*
X49616500Y39624000D03*
X52491500Y39624000D03*
D21*
X51562000Y46328500D03*
X51562000Y44603500D03*
D25*
X19710000Y7888000D03*
X19710000Y5588000D03*
X19710000Y3288000D03*
D26*
X26010000Y5588000D03*
D27*
X43942000Y27074500D03*
X43942000Y25249500D03*
D24*
X62062500Y39878000D03*
X64937500Y39878000D03*
D28*
X61722000Y3536000D03*
X61722000Y1036000D03*
D27*
X46990000Y3198500D03*
X46990000Y1373500D03*
D18*
X34902000Y28194000D03*
X41402000Y28194000D03*
X34902000Y23694000D03*
X41402000Y23694000D03*
D29*
X52691000Y12446000D03*
X50941000Y12446000D03*
D30*
X48260000Y8709500D03*
X48260000Y13134500D03*
D31*
X45159000Y39878000D03*
X43434000Y39878000D03*
X39724500Y3429000D03*
X37999500Y3429000D03*
D20*
X28043500Y18542000D03*
X29868500Y18542000D03*
D12*
X29868500Y8382000D03*
X28043500Y8382000D03*
D27*
X59690000Y3198500D03*
X59690000Y1373500D03*
D32*
X63754000Y1524000D03*
X63754000Y3274000D03*
D25*
X19710000Y15762000D03*
X19710000Y13462000D03*
X19710000Y11162000D03*
D26*
X26010000Y13462000D03*
D20*
X28043500Y10668000D03*
X29868500Y10668000D03*
D33*
X34805000Y5614000D03*
X37085000Y5614000D03*
D34*
X35560000Y10239000D03*
X38610000Y10239000D03*
D35*
X37085000Y11914000D03*
D34*
X35560000Y13589000D03*
X38610000Y13589000D03*
D33*
X39365000Y5614000D03*
D29*
X52691000Y14224000D03*
X50941000Y14224000D03*
D36*
X49022000Y48152000D03*
D37*
X47752000Y46082000D03*
X46482000Y48152000D03*
D38*
X41957000Y16262000D03*
X43682000Y16262000D03*
D31*
X56996500Y39878000D03*
X55271500Y39878000D03*
D39*
X50140000Y6265000D03*
X50940000Y6265000D03*
D40*
X52090000Y6265000D03*
X53090000Y6265000D03*
X53590000Y6265000D03*
X54590000Y6265000D03*
D39*
X55740000Y6265000D03*
X56540000Y6265000D03*
X56540000Y6265000D03*
X55740000Y6265000D03*
D40*
X55090000Y6265000D03*
X54090000Y6265000D03*
X52590000Y6265000D03*
X51590000Y6265000D03*
D39*
X50940000Y6265000D03*
X50140000Y6265000D03*
D41*
X49020000Y5665000D03*
D42*
X49020000Y1465000D03*
D41*
X57660000Y5665000D03*
D42*
X57660000Y1465000D03*
D12*
X29868500Y24130000D03*
X28043500Y24130000D03*
D25*
X19710000Y31510000D03*
X19710000Y29210000D03*
X19710000Y26910000D03*
D26*
X26010000Y29210000D03*
D43*
X57571500Y37846000D03*
X54696500Y37846000D03*
D11*
X59944000Y11430000D03*
X59944000Y13255000D03*
D24*
X62062500Y37592000D03*
X64937500Y37592000D03*
D20*
X28043500Y2794000D03*
X29868500Y2794000D03*
D27*
X63754000Y7008500D03*
X63754000Y5183500D03*
D38*
X63299000Y35560000D03*
X65024000Y35560000D03*
D44*
X41983500Y37338000D03*
X46408500Y37338000D03*
D25*
X19710000Y23636000D03*
X19710000Y21336000D03*
X19710000Y19036000D03*
D26*
X26010000Y21336000D03*
D12*
X29868500Y32004000D03*
X28043500Y32004000D03*
D38*
X59335500Y35560000D03*
X61060500Y35560000D03*
D45*
X14478000Y44704000D03*
X14478000Y42164000D03*
X14478000Y39624000D03*
X22098000Y39624000D03*
X22098000Y42164000D03*
X22098000Y44704000D03*
D12*
X29868500Y16256000D03*
X28043500Y16256000D03*
D38*
X34443500Y3429000D03*
X36168500Y3429000D03*
D46*
X50038000Y42500000D03*
X62484000Y31242000D03*
X63246000Y12700000D03*
X64516000Y42926000D03*
X53848000Y45212000D03*
X45974000Y14478000D03*
X61214000Y32004000D03*
X48514000Y36322000D03*
X41783000Y3429000D03*
X62230000Y8636000D03*
X59182000Y39624000D03*
X46228000Y16250000D03*
X51054000Y7620000D03*
X55626000Y7620000D03*
X55118000Y9906000D03*
X53848000Y9906000D03*
X57150000Y18551600D03*
X56642000Y20320000D03*
X48514000Y22606000D03*
X52070000Y18542000D03*
X58928000Y9398000D03*
X57658000Y8636000D03*
X48514000Y27432000D03*
X40132000Y31496000D03*
X51816000Y27178000D03*
X40132000Y30480000D03*
X57150000Y22098000D03*
X40132000Y32512000D03*
X51816000Y32258000D03*
X32385000Y1397000D03*
X31750000Y30226000D03*
X45212000Y21844000D03*
X45212000Y17272000D03*
X31496000Y17272000D03*
X45212000Y18288000D03*
X33020000Y18288000D03*
X31242000Y9652000D03*
X45974000Y11420400D03*
D47*
X61214000Y45212000D02*
X56134000Y45212000D01*
D48*
X39370000Y48514000D02*
X45720000Y48514000D01*
D49*
X63754000Y12192000D02*
X63246000Y12700000D01*
X50941000Y14224000D02*
X50941000Y12446000D01*
X50941000Y12446000D02*
X50941000Y11317000D01*
X43942000Y27074500D02*
X44553500Y27074500D01*
D48*
X30988000Y48514000D02*
X39370000Y48514000D01*
X24638000Y42164000D02*
X30988000Y48514000D01*
D49*
X44958000Y26670000D02*
X44958000Y22860000D01*
X44958000Y22860000D02*
X41907000Y19809000D01*
D47*
X51562000Y46328500D02*
X51562000Y47498000D01*
D49*
X63754000Y7008500D02*
X63754000Y12192000D01*
D47*
X56134000Y45212000D02*
X56134000Y42062000D01*
D48*
X22098000Y42164000D02*
X24638000Y42164000D01*
D47*
X63219000Y33750000D02*
X63219000Y35480000D01*
X50138500Y46328500D02*
X51562000Y46328500D01*
X63299000Y35560000D02*
X63299000Y36355500D01*
D49*
X41907000Y19809000D02*
X41907000Y18040000D01*
X43942000Y27074500D02*
X43942000Y30734000D01*
D47*
X50038000Y42100000D02*
X50038000Y46228000D01*
D49*
X44553500Y27074500D02*
X44958000Y26670000D01*
D47*
X63299000Y36355500D02*
X62062500Y37592000D01*
X52426000Y48362000D02*
X56134000Y48362000D01*
X63219000Y35480000D02*
X63299000Y35560000D01*
X62062500Y44363500D02*
X61214000Y45212000D01*
X62062500Y39878000D02*
X62062500Y44363500D01*
X50038000Y46228000D02*
X50138500Y46328500D01*
X50038000Y41341964D02*
X50038000Y42100000D01*
D49*
X43942000Y30734000D02*
X39370000Y35306000D01*
X45339000Y10668000D02*
X40132000Y15875000D01*
X40132000Y15875000D02*
X40132000Y17384500D01*
X50941000Y11317000D02*
X50292000Y10668000D01*
D47*
X56134000Y48362000D02*
X56134000Y45212000D01*
X49616500Y39624000D02*
X49616500Y40920464D01*
D49*
X50292000Y10668000D02*
X45339000Y10668000D01*
X40787500Y18040000D02*
X41907000Y18040000D01*
X39370000Y35306000D02*
X39370000Y48514000D01*
X63219000Y31977000D02*
X63219000Y33750000D01*
D47*
X51562000Y47498000D02*
X52426000Y48362000D01*
X50038000Y42100000D02*
X50038000Y42500000D01*
X62062500Y37592000D02*
X62062500Y39878000D01*
D49*
X40132000Y17384500D02*
X40787500Y18040000D01*
X62484000Y31242000D02*
X63219000Y31977000D01*
D48*
X45720000Y48514000D02*
X46482000Y47752000D01*
D47*
X49616500Y40920464D02*
X50038000Y41341964D01*
D49*
X45466000Y14986000D02*
X45974000Y14478000D01*
X64937500Y39878000D02*
X64937500Y42504500D01*
D48*
X37085000Y3557000D02*
X37085000Y5614000D01*
D49*
X14478000Y44704000D02*
X22098000Y44704000D01*
X42164000Y14986000D02*
X44958000Y14986000D01*
X57060000Y6265000D02*
X57660000Y5665000D01*
X56540000Y6265000D02*
X57060000Y6265000D01*
X44958000Y14986000D02*
X45466000Y14986000D01*
X51562000Y44603500D02*
X53239500Y44603500D01*
X53239500Y44603500D02*
X53848000Y45212000D01*
D48*
X36957000Y3429000D02*
X37999500Y3429000D01*
X36168500Y3429000D02*
X36957000Y3429000D01*
D49*
X41957000Y16262000D02*
X41957000Y15193000D01*
D48*
X36957000Y3429000D02*
X37085000Y3557000D01*
D49*
X41957000Y15193000D02*
X42164000Y14986000D01*
X64937500Y42504500D02*
X64516000Y42926000D01*
X46408500Y37338000D02*
X47498000Y37338000D01*
X61949000Y34671500D02*
X61949000Y33750000D01*
X45159000Y39878000D02*
X45159000Y38587500D01*
X61060500Y35560000D02*
X61949000Y34671500D01*
X45159000Y38587500D02*
X46408500Y37338000D01*
X61214000Y32004000D02*
X61949000Y32739000D01*
X61949000Y32739000D02*
X61949000Y33750000D01*
X47498000Y37338000D02*
X48514000Y36322000D01*
D47*
X58420000Y42048000D02*
X58434000Y42062000D01*
X58420000Y40386000D02*
X58420000Y42048000D01*
X56996500Y39878000D02*
X57912000Y39878000D01*
X61722000Y3536000D02*
X61722000Y8128000D01*
D49*
X38207000Y1397000D02*
X38207000Y1911500D01*
D47*
X57571500Y37846000D02*
X58674000Y37846000D01*
X39558500Y5420500D02*
X39365000Y5614000D01*
X58928000Y39370000D02*
X59182000Y39624000D01*
X59182000Y39624000D02*
X58420000Y40386000D01*
X57912000Y39878000D02*
X58420000Y40386000D01*
D49*
X38207000Y1911500D02*
X39724500Y3429000D01*
D47*
X41783000Y3429000D02*
X41783000Y5293500D01*
X58928000Y38100000D02*
X58928000Y39370000D01*
D49*
X39724500Y5254500D02*
X39365000Y5614000D01*
D47*
X41783000Y5293500D02*
X41656000Y5420500D01*
D49*
X39724500Y3429000D02*
X39724500Y5254500D01*
D47*
X41656000Y5420500D02*
X39558500Y5420500D01*
X61722000Y8128000D02*
X62230000Y8636000D01*
X58674000Y37846000D02*
X58928000Y38100000D01*
D49*
X43732000Y18040000D02*
X43732000Y16312000D01*
D48*
X48260000Y13642500D02*
X48260000Y14478000D01*
X46228000Y16250000D02*
X43694000Y16250000D01*
X48260000Y14478000D02*
X47979000Y14759000D01*
X47979000Y14759000D02*
X47979000Y16250000D01*
X47979000Y16250000D02*
X46228000Y16250000D01*
X43694000Y16250000D02*
X43682000Y16262000D01*
X43688000Y16256000D02*
X43682000Y16262000D01*
D49*
X43732000Y16312000D02*
X43682000Y16262000D01*
X52691000Y14224000D02*
X54610000Y14224000D01*
X52691000Y12446000D02*
X54610000Y12446000D01*
D48*
X50940000Y7506000D02*
X51054000Y7620000D01*
X55626000Y7620000D02*
X55740000Y7506000D01*
X61722000Y1640200D02*
X61722000Y1036000D01*
X60568200Y4584118D02*
X60568200Y2794000D01*
X57532318Y7620000D02*
X60568200Y4584118D01*
X55740000Y7506000D02*
X55740000Y6265000D01*
X50940000Y6265000D02*
X50940000Y7506000D01*
X55626000Y7620000D02*
X57532318Y7620000D01*
X60568200Y2794000D02*
X61722000Y1640200D01*
D49*
X63754000Y3274000D02*
X63754000Y5183500D01*
D50*
X53913000Y7366000D02*
X54090000Y7189000D01*
X54090000Y7189000D02*
X54090000Y6265000D01*
X53090000Y7189000D02*
X53267000Y7366000D01*
X53594000Y7366000D02*
X53913000Y7366000D01*
X53267000Y7366000D02*
X53594000Y7366000D01*
X53594000Y8382000D02*
X55118000Y9906000D01*
X53594000Y7366000D02*
X53594000Y8382000D01*
X53090000Y6265000D02*
X53090000Y7189000D01*
X53340000Y5080000D02*
X53590000Y5330000D01*
X52590000Y6265000D02*
X52590000Y5341000D01*
X52832000Y5099000D02*
X52832000Y5080000D01*
X52590000Y5341000D02*
X52832000Y5099000D01*
X53590000Y5330000D02*
X53590000Y6265000D01*
X52590000Y6265000D02*
X52590000Y8648000D01*
X52832000Y5080000D02*
X53340000Y5080000D01*
X52590000Y8648000D02*
X53848000Y9906000D01*
D49*
X56642000Y20320000D02*
X56642000Y19059600D01*
X56642000Y19059600D02*
X57150000Y18551600D01*
X52070000Y19050000D02*
X52070000Y18542000D01*
X48514000Y22606000D02*
X52070000Y19050000D01*
D50*
X58166000Y10160000D02*
X58928000Y9398000D01*
D49*
X57274900Y12321100D02*
X58166000Y11430000D01*
D50*
X58166000Y11430000D02*
X58166000Y10160000D01*
D49*
X56435000Y14224000D02*
X57274900Y13384100D01*
X57274900Y13384100D02*
X57274900Y12321100D01*
D50*
X59944000Y9385866D02*
X59194134Y8636000D01*
D49*
X56435000Y9859000D02*
X57658000Y8636000D01*
X56435000Y12446000D02*
X56435000Y9859000D01*
D50*
X59944000Y11430000D02*
X59944000Y9385866D01*
X59194134Y8636000D02*
X57658000Y8636000D01*
X59409000Y16250000D02*
X59409000Y14498000D01*
X59409000Y14498000D02*
X58166000Y13255000D01*
X60679000Y13990000D02*
X59944000Y13255000D01*
X60679000Y16250000D02*
X60679000Y13990000D01*
D49*
X50519000Y36095000D02*
X47498000Y39116000D01*
X47498000Y41656000D02*
X49022000Y43180000D01*
X49022000Y43180000D02*
X49022000Y47752000D01*
X50519000Y33750000D02*
X50519000Y36095000D01*
X47498000Y39116000D02*
X47498000Y41656000D01*
X32948000Y23694000D02*
X32512000Y24130000D01*
X41402000Y23694000D02*
X34902000Y23694000D01*
X34902000Y23694000D02*
X32948000Y23694000D01*
X32512000Y24130000D02*
X32512000Y25400000D01*
X55599000Y16250000D02*
X55599000Y22379000D01*
X53881627Y28414372D02*
X49496372Y28414372D01*
X43942000Y24130000D02*
X43942000Y25249500D01*
X55599000Y22379000D02*
X54322372Y23655628D01*
X43506000Y23694000D02*
X43942000Y24130000D01*
X54322372Y23655628D02*
X54322372Y27973628D01*
X49496372Y28414372D02*
X48514000Y27432000D01*
X41402000Y23694000D02*
X43506000Y23694000D01*
X54322372Y27973628D02*
X53881627Y28414372D01*
D50*
X51712500Y3198500D02*
X52090000Y3576000D01*
X52090000Y3576000D02*
X52090000Y6265000D01*
X46990000Y3198500D02*
X51712500Y3198500D01*
X59690000Y3198500D02*
X55475500Y3198500D01*
X55090000Y3584000D02*
X55090000Y6265000D01*
X55475500Y3198500D02*
X55090000Y3584000D01*
D48*
X51816000Y20828000D02*
X53059000Y19585000D01*
X20574000Y38100000D02*
X27686000Y38100000D01*
X16510000Y42164000D02*
X20574000Y38100000D01*
X51816000Y27178000D02*
X51816000Y20828000D01*
X53059000Y19585000D02*
X53059000Y16250000D01*
X27686000Y38100000D02*
X34290000Y31496000D01*
X14478000Y42164000D02*
X16510000Y42164000D01*
X34290000Y31496000D02*
X40132000Y31496000D01*
X58139000Y21109000D02*
X57150000Y22098000D01*
X27178000Y36830000D02*
X14986000Y36830000D01*
X58139000Y16250000D02*
X58139000Y21109000D01*
X40132000Y30480000D02*
X33528000Y30480000D01*
X14986000Y36830000D02*
X14478000Y37338000D01*
X14478000Y37338000D02*
X14478000Y39624000D01*
X33528000Y30480000D02*
X27178000Y36830000D01*
X27940000Y39624000D02*
X30480000Y37084000D01*
X30480000Y37084000D02*
X35052000Y32512000D01*
D49*
X51816000Y32258000D02*
X51816000Y33723000D01*
D48*
X22098000Y39624000D02*
X27940000Y39624000D01*
X35052000Y32512000D02*
X40132000Y32512000D01*
D49*
X51816000Y33723000D02*
X51789000Y33750000D01*
X29868500Y26416000D02*
X29868500Y30179000D01*
X27549500Y31510000D02*
X28043500Y32004000D01*
X29868500Y30179000D02*
X28043500Y32004000D01*
X19710000Y31510000D02*
X27549500Y31510000D01*
D47*
X11120000Y25852000D02*
X9652000Y25852000D01*
X14478000Y29210000D02*
X11120000Y25852000D01*
X19710000Y29210000D02*
X14478000Y29210000D01*
X9652000Y25852000D02*
X4652000Y25852000D01*
D49*
X27549500Y23636000D02*
X28043500Y24130000D01*
X19710000Y23636000D02*
X27549500Y23636000D01*
X29868500Y18542000D02*
X29868500Y22305000D01*
X29868500Y22305000D02*
X28043500Y24130000D01*
D47*
X9652000Y22352000D02*
X10668000Y21336000D01*
X4652000Y22352000D02*
X9652000Y22352000D01*
X10668000Y21336000D02*
X19710000Y21336000D01*
D49*
X29868500Y14431000D02*
X28043500Y16256000D01*
X27549500Y15762000D02*
X28043500Y16256000D01*
X29868500Y10668000D02*
X29868500Y14431000D01*
X19710000Y15762000D02*
X27549500Y15762000D01*
D47*
X12700000Y17780000D02*
X11628000Y18852000D01*
X9652000Y18852000D02*
X4652000Y18852000D01*
X13970000Y13462000D02*
X12700000Y14732000D01*
X12700000Y14732000D02*
X12700000Y17780000D01*
X11628000Y18852000D02*
X9652000Y18852000D01*
X19710000Y13462000D02*
X13970000Y13462000D01*
D49*
X27549500Y7888000D02*
X28043500Y8382000D01*
X19710000Y7888000D02*
X27549500Y7888000D01*
X29868500Y2794000D02*
X29868500Y6557000D01*
X29868500Y6557000D02*
X28043500Y8382000D01*
D47*
X9652000Y13833200D02*
X9652000Y15352000D01*
X9652000Y15352000D02*
X4652000Y15352000D01*
X19710000Y5588000D02*
X17897200Y5588000D01*
X17897200Y5588000D02*
X9652000Y13833200D01*
D49*
X34443500Y3429000D02*
X34443500Y5252500D01*
D47*
X9652000Y29352000D02*
X4652000Y29352000D01*
X32512000Y3302000D02*
X32512000Y1524000D01*
X32512000Y1524000D02*
X32385000Y1397000D01*
X32705500Y5614000D02*
X32512000Y5420500D01*
D49*
X35707000Y2165500D02*
X34443500Y3429000D01*
D47*
X34805000Y5614000D02*
X32705500Y5614000D01*
X32639000Y3429000D02*
X32512000Y3302000D01*
X34443500Y3429000D02*
X32639000Y3429000D01*
X32512000Y5420500D02*
X32512000Y3302000D01*
D49*
X34443500Y5252500D02*
X34805000Y5614000D01*
X35707000Y1397000D02*
X35707000Y2165500D01*
X45212000Y21012200D02*
X45212000Y21844000D01*
X45674200Y20550000D02*
X45212000Y21012200D01*
X31750000Y30226000D02*
X31646500Y30226000D01*
X46729000Y20550000D02*
X45674200Y20550000D01*
X31646500Y30226000D02*
X29868500Y32004000D01*
X50519000Y16250000D02*
X50519000Y17304800D01*
X31496000Y23622000D02*
X30988000Y24130000D01*
X31496000Y17272000D02*
X31496000Y23622000D01*
X45466000Y17526000D02*
X45212000Y17272000D01*
X30988000Y24130000D02*
X29868500Y24130000D01*
X50519000Y17304800D02*
X50297800Y17526000D01*
X50297800Y17526000D02*
X45466000Y17526000D01*
X45466000Y18034000D02*
X45212000Y18288000D01*
X33020000Y18288000D02*
X33020000Y17272000D01*
X51789000Y16250000D02*
X51789000Y17553000D01*
X51308000Y18034000D02*
X45466000Y18034000D01*
X32004000Y16256000D02*
X29868500Y16256000D01*
X33020000Y17272000D02*
X32004000Y16256000D01*
X51789000Y17553000D02*
X51308000Y18034000D01*
X31138500Y9652000D02*
X29868500Y8382000D01*
X45983600Y11430000D02*
X45974000Y11420400D01*
X48768000Y11430000D02*
X45983600Y11430000D01*
X54329000Y16250000D02*
X54329000Y15615200D01*
X31242000Y9652000D02*
X31138500Y9652000D01*
X50103400Y15051400D02*
X49784000Y14732000D01*
X53765200Y15051400D02*
X50103400Y15051400D01*
X49784000Y14732000D02*
X49784000Y12141200D01*
X49072800Y11430000D02*
X48768000Y11430000D01*
X49784000Y12141200D02*
X49072800Y11430000D01*
X54329000Y15615200D02*
X53765200Y15051400D01*
G04 #@! TA.AperFunction,Conductor*
G36*
X45854158Y49679815D02*
G01*
X45899913Y49627011D01*
X45909857Y49557853D01*
X45880832Y49494297D01*
X45853090Y49470506D01*
X45720426Y49387149D01*
X45591929Y49258652D01*
X45590857Y49259723D01*
X45540307Y49224245D01*
X45500553Y49217700D01*
X31063442Y49217700D01*
X31063422Y49217701D01*
X31057308Y49217701D01*
X30918691Y49217701D01*
X30918689Y49217701D01*
X30782743Y49190658D01*
X30782738Y49190657D01*
X30782736Y49190656D01*
X30782735Y49190656D01*
X30654676Y49137613D01*
X30539414Y49060598D01*
X30438303Y48959487D01*
X30438274Y48959456D01*
X24382837Y42904019D01*
X24321514Y42870534D01*
X24295156Y42867700D01*
X23211043Y42867700D01*
X23144004Y42887385D01*
X23109468Y42920577D01*
X23068827Y42978618D01*
X23068826Y42978620D01*
X22912620Y43134826D01*
X22731662Y43261534D01*
X22602218Y43321894D01*
X22549779Y43368066D01*
X22530627Y43435259D01*
X22550843Y43502141D01*
X22602219Y43546658D01*
X22731405Y43606898D01*
X22731411Y43606901D01*
X22796187Y43652258D01*
X22796188Y43652259D01*
X22125448Y44323000D01*
X22148160Y44323000D01*
X22245061Y44348964D01*
X22331940Y44399124D01*
X22402876Y44470060D01*
X22453036Y44556939D01*
X22479000Y44653840D01*
X22479000Y44676551D01*
X23149740Y44005810D01*
X23195099Y44070590D01*
X23195100Y44070592D01*
X23288419Y44270715D01*
X23288424Y44270729D01*
X23345573Y44484013D01*
X23345575Y44484023D01*
X23364821Y44703999D01*
X23364821Y44704000D01*
X23345575Y44923976D01*
X23345573Y44923986D01*
X23288424Y45137270D01*
X23288420Y45137279D01*
X23195098Y45337409D01*
X23149740Y45402188D01*
X22479000Y44731448D01*
X22479000Y44754160D01*
X22453036Y44851061D01*
X22402876Y44937940D01*
X22331940Y45008876D01*
X22245061Y45059036D01*
X22148160Y45085000D01*
X22125448Y45085000D01*
X22796188Y45755741D01*
X22731417Y45801094D01*
X22731407Y45801100D01*
X22531284Y45894419D01*
X22531270Y45894424D01*
X22317986Y45951573D01*
X22317976Y45951575D01*
X22098001Y45970821D01*
X22097999Y45970821D01*
X21878023Y45951575D01*
X21878013Y45951573D01*
X21664729Y45894424D01*
X21664720Y45894420D01*
X21464586Y45801096D01*
X21399811Y45755741D01*
X21399810Y45755740D01*
X22070553Y45085000D01*
X22047840Y45085000D01*
X21950939Y45059036D01*
X21864060Y45008876D01*
X21793124Y44937940D01*
X21742964Y44851061D01*
X21717000Y44754160D01*
X21717000Y44731446D01*
X21046258Y45402188D01*
X21046257Y45402187D01*
X21000903Y45337413D01*
X20907579Y45137279D01*
X20907575Y45137270D01*
X20850426Y44923986D01*
X20850424Y44923976D01*
X20831179Y44704000D01*
X20831179Y44703999D01*
X20850424Y44484023D01*
X20850426Y44484013D01*
X20907575Y44270729D01*
X20907580Y44270715D01*
X21000901Y44070588D01*
X21000902Y44070586D01*
X21046257Y44005811D01*
X21046258Y44005810D01*
X21717000Y44676552D01*
X21717000Y44653840D01*
X21742964Y44556939D01*
X21793124Y44470060D01*
X21864060Y44399124D01*
X21950939Y44348964D01*
X22047840Y44323000D01*
X22070553Y44323000D01*
X21399810Y43652258D01*
X21399811Y43652257D01*
X21464585Y43606902D01*
X21593781Y43546657D01*
X21646220Y43500484D01*
X21665372Y43433290D01*
X21645156Y43366409D01*
X21593781Y43321894D01*
X21464339Y43261534D01*
X21464338Y43261533D01*
X21283377Y43134824D01*
X21127175Y42978622D01*
X21000466Y42797661D01*
X21000465Y42797659D01*
X20995780Y42787611D01*
X20907106Y42597450D01*
X20907104Y42597445D01*
X20849930Y42384070D01*
X20849929Y42384062D01*
X20830677Y42164002D01*
X20830677Y42163997D01*
X20849929Y41943937D01*
X20849930Y41943929D01*
X20907104Y41730554D01*
X20907107Y41730548D01*
X21000466Y41530337D01*
X21000468Y41530333D01*
X21127170Y41349384D01*
X21127175Y41349378D01*
X21283378Y41193175D01*
X21283384Y41193170D01*
X21464333Y41066468D01*
X21464338Y41066466D01*
X21593189Y41006381D01*
X21645628Y40960208D01*
X21664780Y40893014D01*
X21644564Y40826133D01*
X21593189Y40781618D01*
X21464339Y40721534D01*
X21430653Y40697947D01*
X21283377Y40594824D01*
X21127175Y40438622D01*
X21000466Y40257661D01*
X21000465Y40257659D01*
X20995780Y40247611D01*
X20907106Y40057450D01*
X20907104Y40057445D01*
X20849930Y39844070D01*
X20849929Y39844062D01*
X20830677Y39624002D01*
X20830677Y39623997D01*
X20849929Y39403937D01*
X20849930Y39403929D01*
X20907104Y39190554D01*
X20907108Y39190543D01*
X20984278Y39025051D01*
X20994770Y38955974D01*
X20966250Y38892190D01*
X20907773Y38853951D01*
X20837905Y38853397D01*
X20784217Y38884964D01*
X17063669Y42605511D01*
X17063667Y42605515D01*
X17056601Y42612581D01*
X17056600Y42612583D01*
X16958583Y42710600D01*
X16843327Y42787611D01*
X16843324Y42787612D01*
X16843323Y42787613D01*
X16715264Y42840656D01*
X16715262Y42840657D01*
X16670768Y42849507D01*
X16579310Y42867701D01*
X16579308Y42867701D01*
X16440692Y42867701D01*
X16434578Y42867701D01*
X16434558Y42867700D01*
X15591043Y42867700D01*
X15524004Y42887385D01*
X15489468Y42920577D01*
X15448827Y42978618D01*
X15448826Y42978620D01*
X15292620Y43134826D01*
X15111662Y43261534D01*
X14982218Y43321894D01*
X14929779Y43368066D01*
X14910627Y43435259D01*
X14930843Y43502141D01*
X14982219Y43546658D01*
X15111405Y43606898D01*
X15111411Y43606901D01*
X15176187Y43652258D01*
X15176188Y43652259D01*
X14505448Y44323000D01*
X14528160Y44323000D01*
X14625061Y44348964D01*
X14711940Y44399124D01*
X14782876Y44470060D01*
X14833036Y44556939D01*
X14859000Y44653840D01*
X14859000Y44676551D01*
X15529740Y44005810D01*
X15575099Y44070590D01*
X15575100Y44070592D01*
X15668419Y44270715D01*
X15668424Y44270729D01*
X15725573Y44484013D01*
X15725575Y44484023D01*
X15744821Y44703999D01*
X15744821Y44704000D01*
X15725575Y44923976D01*
X15725573Y44923986D01*
X15668424Y45137270D01*
X15668420Y45137279D01*
X15575098Y45337409D01*
X15529740Y45402188D01*
X14859000Y44731448D01*
X14859000Y44754160D01*
X14833036Y44851061D01*
X14782876Y44937940D01*
X14711940Y45008876D01*
X14625061Y45059036D01*
X14528160Y45085000D01*
X14505448Y45085000D01*
X15176188Y45755741D01*
X15111417Y45801094D01*
X15111407Y45801100D01*
X14911284Y45894419D01*
X14911270Y45894424D01*
X14697986Y45951573D01*
X14697976Y45951575D01*
X14478001Y45970821D01*
X14477999Y45970821D01*
X14258023Y45951575D01*
X14258013Y45951573D01*
X14044729Y45894424D01*
X14044720Y45894420D01*
X13844586Y45801096D01*
X13779811Y45755741D01*
X13779810Y45755740D01*
X14450553Y45085000D01*
X14427840Y45085000D01*
X14330939Y45059036D01*
X14244060Y45008876D01*
X14173124Y44937940D01*
X14122964Y44851061D01*
X14097000Y44754160D01*
X14097000Y44731446D01*
X13426258Y45402188D01*
X13426257Y45402187D01*
X13380903Y45337413D01*
X13287579Y45137279D01*
X13287575Y45137270D01*
X13230426Y44923986D01*
X13230424Y44923976D01*
X13211179Y44704000D01*
X13211179Y44703999D01*
X13230424Y44484023D01*
X13230426Y44484013D01*
X13287575Y44270729D01*
X13287580Y44270715D01*
X13380901Y44070588D01*
X13380902Y44070586D01*
X13426257Y44005811D01*
X13426258Y44005810D01*
X14097000Y44676552D01*
X14097000Y44653840D01*
X14122964Y44556939D01*
X14173124Y44470060D01*
X14244060Y44399124D01*
X14330939Y44348964D01*
X14427840Y44323000D01*
X14450553Y44323000D01*
X13779810Y43652258D01*
X13779811Y43652257D01*
X13844585Y43606902D01*
X13973781Y43546657D01*
X14026220Y43500484D01*
X14045372Y43433290D01*
X14025156Y43366409D01*
X13973781Y43321894D01*
X13844339Y43261534D01*
X13844338Y43261533D01*
X13663377Y43134824D01*
X13507175Y42978622D01*
X13380466Y42797661D01*
X13380465Y42797659D01*
X13375780Y42787611D01*
X13287106Y42597450D01*
X13287104Y42597445D01*
X13229930Y42384070D01*
X13229929Y42384062D01*
X13210677Y42164002D01*
X13210677Y42163997D01*
X13229929Y41943937D01*
X13229930Y41943929D01*
X13287104Y41730554D01*
X13287107Y41730548D01*
X13380466Y41530337D01*
X13380468Y41530333D01*
X13507170Y41349384D01*
X13507175Y41349378D01*
X13663378Y41193175D01*
X13663384Y41193170D01*
X13844333Y41066468D01*
X13844338Y41066466D01*
X13973189Y41006381D01*
X14025628Y40960208D01*
X14044780Y40893014D01*
X14024564Y40826133D01*
X13973189Y40781618D01*
X13844339Y40721534D01*
X13810653Y40697947D01*
X13663377Y40594824D01*
X13507175Y40438622D01*
X13380466Y40257661D01*
X13380465Y40257659D01*
X13375780Y40247611D01*
X13287106Y40057450D01*
X13287104Y40057445D01*
X13229930Y39844070D01*
X13229929Y39844062D01*
X13210677Y39624002D01*
X13210677Y39623997D01*
X13229929Y39403937D01*
X13229930Y39403929D01*
X13287104Y39190554D01*
X13287107Y39190548D01*
X13380466Y38990337D01*
X13380468Y38990333D01*
X13507170Y38809384D01*
X13507175Y38809378D01*
X13663378Y38653175D01*
X13663380Y38653174D01*
X13721424Y38612531D01*
X13765049Y38557953D01*
X13774300Y38510956D01*
X13774300Y37413442D01*
X13774299Y37413421D01*
X13774299Y37268689D01*
X13799586Y37141569D01*
X13801342Y37132740D01*
X13801344Y37132733D01*
X13854386Y37004676D01*
X13931400Y36889416D01*
X13973149Y36847668D01*
X14029417Y36791400D01*
X14029420Y36791397D01*
X14439397Y36381420D01*
X14439400Y36381417D01*
X14535373Y36285444D01*
X14537419Y36283398D01*
X14537421Y36283396D01*
X14642929Y36212899D01*
X14652664Y36206394D01*
X14652676Y36206387D01*
X14780737Y36153343D01*
X14780743Y36153341D01*
X14916689Y36126300D01*
X14916691Y36126300D01*
X14916692Y36126300D01*
X26835156Y36126300D01*
X26902195Y36106615D01*
X26922837Y36089981D01*
X29821637Y33191180D01*
X29855122Y33129857D01*
X29850138Y33060165D01*
X29808266Y33004232D01*
X29742802Y32979815D01*
X29733956Y32979499D01*
X29569324Y32979499D01*
X29569315Y32979498D01*
X29569313Y32979498D01*
X29468247Y32969174D01*
X29304484Y32914908D01*
X29157650Y32824340D01*
X29157648Y32824338D01*
X29043681Y32710371D01*
X28982358Y32676886D01*
X28912666Y32681870D01*
X28868319Y32710371D01*
X28818190Y32760500D01*
X28754350Y32824340D01*
X28607516Y32914908D01*
X28443753Y32969174D01*
X28342677Y32979500D01*
X27744324Y32979499D01*
X27744316Y32979498D01*
X27744312Y32979498D01*
X27643247Y32969174D01*
X27479484Y32914908D01*
X27332650Y32824340D01*
X27210660Y32702350D01*
X27173716Y32642454D01*
X27120518Y32556206D01*
X27120092Y32555516D01*
X27065826Y32391753D01*
X27065826Y32391751D01*
X27065825Y32391751D01*
X27055500Y32290684D01*
X27055500Y32286900D01*
X27035815Y32219861D01*
X26983011Y32174106D01*
X26931500Y32162900D01*
X21334499Y32162900D01*
X21267460Y32182585D01*
X21221705Y32235389D01*
X21210499Y32286900D01*
X21210499Y32307870D01*
X21210499Y32307873D01*
X21204091Y32367483D01*
X21153796Y32502331D01*
X21067546Y32617546D01*
X20952331Y32703796D01*
X20817483Y32754091D01*
X20757873Y32760500D01*
X18662128Y32760499D01*
X18613757Y32755299D01*
X18602516Y32754091D01*
X18467671Y32703797D01*
X18467664Y32703793D01*
X18352455Y32617547D01*
X18352452Y32617544D01*
X18266206Y32502335D01*
X18266202Y32502328D01*
X18215908Y32367482D01*
X18212651Y32337182D01*
X18209501Y32307876D01*
X18209500Y32307864D01*
X18209500Y30712129D01*
X18209501Y30712123D01*
X18215908Y30652516D01*
X18266202Y30517671D01*
X18266203Y30517669D01*
X18328606Y30434311D01*
X18353023Y30368847D01*
X18338172Y30300574D01*
X18328606Y30285689D01*
X18281010Y30222109D01*
X18266204Y30202331D01*
X18264426Y30197565D01*
X18222559Y30141635D01*
X18157095Y30117216D01*
X18148246Y30116900D01*
X14388676Y30116900D01*
X14234923Y30086316D01*
X14213467Y30082048D01*
X14093551Y30032377D01*
X14048424Y30013685D01*
X14048415Y30013680D01*
X13899885Y29914435D01*
X13899881Y29914432D01*
X10894193Y26908743D01*
X10832870Y26875258D01*
X10763178Y26880242D01*
X10715286Y26912438D01*
X10671744Y26959738D01*
X10475509Y27112474D01*
X10256810Y27230828D01*
X10021614Y27311571D01*
X9776335Y27352500D01*
X9527665Y27352500D01*
X9282386Y27311571D01*
X9047190Y27230828D01*
X8828491Y27112474D01*
X8632256Y26959738D01*
X8501189Y26817361D01*
X8484210Y26798917D01*
X8424323Y26762926D01*
X8392980Y26758900D01*
X5911020Y26758900D01*
X5843981Y26778585D01*
X5819790Y26798917D01*
X5809843Y26809722D01*
X5671744Y26959738D01*
X5475509Y27112474D01*
X5256810Y27230828D01*
X5021614Y27311571D01*
X4776335Y27352500D01*
X4527665Y27352500D01*
X4282386Y27311571D01*
X4047190Y27230828D01*
X3828491Y27112474D01*
X3632256Y26959738D01*
X3501189Y26817361D01*
X3463833Y26776782D01*
X3327826Y26568606D01*
X3227936Y26340881D01*
X3166892Y26099824D01*
X3166890Y26099812D01*
X3146357Y25852005D01*
X3146357Y25851994D01*
X3166890Y25604187D01*
X3166892Y25604175D01*
X3227936Y25363118D01*
X3327826Y25135393D01*
X3463833Y24927217D01*
X3632257Y24744261D01*
X3828493Y24591524D01*
X4047188Y24473172D01*
X4047197Y24473169D01*
X4282383Y24392429D01*
X4527665Y24351500D01*
X4776335Y24351500D01*
X5021616Y24392429D01*
X5256802Y24473169D01*
X5256811Y24473172D01*
X5475506Y24591524D01*
X5475509Y24591526D01*
X5671744Y24744262D01*
X5819790Y24905083D01*
X5879677Y24941074D01*
X5911020Y24945100D01*
X8392980Y24945100D01*
X8460019Y24925415D01*
X8484209Y24905083D01*
X8553516Y24829796D01*
X8632257Y24744261D01*
X8828493Y24591524D01*
X9047188Y24473172D01*
X9047197Y24473169D01*
X9282383Y24392429D01*
X9527665Y24351500D01*
X9776335Y24351500D01*
X10021616Y24392429D01*
X10256802Y24473169D01*
X10256811Y24473172D01*
X10475506Y24591524D01*
X10475509Y24591526D01*
X10671744Y24744262D01*
X10819790Y24905083D01*
X10879677Y24941074D01*
X10911020Y24945100D01*
X11209324Y24945100D01*
X11384527Y24979950D01*
X11384533Y24979952D01*
X11549575Y25048314D01*
X11549584Y25048319D01*
X11698114Y25147564D01*
X11698118Y25147567D01*
X12662706Y26112155D01*
X18210000Y26112155D01*
X18216401Y26052627D01*
X18216403Y26052620D01*
X18266645Y25917913D01*
X18266649Y25917906D01*
X18352809Y25802812D01*
X18352812Y25802809D01*
X18467906Y25716649D01*
X18467913Y25716645D01*
X18602620Y25666403D01*
X18602627Y25666401D01*
X18662155Y25660000D01*
X19460000Y25660000D01*
X19960000Y25660000D01*
X20757844Y25660000D01*
X20817372Y25666401D01*
X20817379Y25666403D01*
X20952086Y25716645D01*
X20952093Y25716649D01*
X21067187Y25802809D01*
X21067190Y25802812D01*
X21153350Y25917906D01*
X21153354Y25917913D01*
X21203596Y26052620D01*
X21203598Y26052627D01*
X21209999Y26112155D01*
X21210000Y26112172D01*
X21210000Y26129345D01*
X27056001Y26129345D01*
X27066319Y26028347D01*
X27120546Y25864699D01*
X27120551Y25864688D01*
X27211052Y25717965D01*
X27211055Y25717961D01*
X27332961Y25596055D01*
X27332965Y25596052D01*
X27479688Y25505551D01*
X27479699Y25505546D01*
X27643347Y25451319D01*
X27744345Y25441000D01*
X27793500Y25441000D01*
X27793500Y26166000D01*
X27056001Y26166000D01*
X27056001Y26129345D01*
X21210000Y26129345D01*
X21210000Y26660000D01*
X19960000Y26660000D01*
X19960000Y25660000D01*
X19460000Y25660000D01*
X19460000Y26660000D01*
X18210000Y26660000D01*
X18210000Y26112155D01*
X12662706Y26112155D01*
X14817331Y28266781D01*
X14878654Y28300266D01*
X14905012Y28303100D01*
X18148246Y28303100D01*
X18215285Y28283415D01*
X18261040Y28230611D01*
X18264417Y28222458D01*
X18266035Y28218120D01*
X18266205Y28217666D01*
X18328918Y28133894D01*
X18353335Y28068430D01*
X18338484Y28000157D01*
X18328918Y27985272D01*
X18266646Y27902088D01*
X18266645Y27902086D01*
X18216403Y27767379D01*
X18216401Y27767372D01*
X18210000Y27707844D01*
X18210000Y27160000D01*
X21210000Y27160000D01*
X21210000Y27707827D01*
X21209999Y27707844D01*
X21203598Y27767372D01*
X21203596Y27767379D01*
X21153354Y27902086D01*
X21153352Y27902089D01*
X21091082Y27985271D01*
X21066664Y28050735D01*
X21081515Y28119008D01*
X21091077Y28133887D01*
X21153796Y28217669D01*
X21155917Y28223354D01*
X21204091Y28352517D01*
X21210500Y28412127D01*
X21210499Y30007872D01*
X21204091Y30067483D01*
X21153796Y30202331D01*
X21091393Y30285689D01*
X21066977Y30351153D01*
X21081828Y30419426D01*
X21091394Y30434311D01*
X21153796Y30517669D01*
X21153797Y30517671D01*
X21204091Y30652517D01*
X21205783Y30668256D01*
X21210500Y30712127D01*
X21210500Y30733100D01*
X21230185Y30800139D01*
X21282989Y30845894D01*
X21334500Y30857100D01*
X24385500Y30857100D01*
X24452539Y30837415D01*
X24498294Y30784611D01*
X24509500Y30733100D01*
X24509500Y27262129D01*
X24509501Y27262123D01*
X24515908Y27202516D01*
X24566202Y27067671D01*
X24566206Y27067664D01*
X24652452Y26952455D01*
X24652455Y26952452D01*
X24767664Y26866206D01*
X24767671Y26866202D01*
X24902517Y26815908D01*
X24902516Y26815908D01*
X24962116Y26809501D01*
X24962119Y26809500D01*
X24962127Y26809500D01*
X24962135Y26809500D01*
X24962136Y26809500D01*
X26932000Y26809500D01*
X26999039Y26789815D01*
X27044794Y26737011D01*
X27056000Y26685500D01*
X27056000Y26666000D01*
X27793500Y26666000D01*
X27793500Y27390999D01*
X27744360Y27390999D01*
X27744345Y27390998D01*
X27647101Y27381064D01*
X27578408Y27393834D01*
X27527524Y27441714D01*
X27510499Y27504418D01*
X27510499Y30734786D01*
X27530184Y30801825D01*
X27582988Y30847580D01*
X27610307Y30856403D01*
X27739938Y30882189D01*
X27739944Y30882191D01*
X27858762Y30931407D01*
X27858764Y30931408D01*
X27965700Y31002859D01*
X27965702Y31002861D01*
X27970765Y31006244D01*
X27972035Y31004341D01*
X28026958Y31027667D01*
X28041311Y31028500D01*
X28044296Y31028500D01*
X28111335Y31008815D01*
X28131977Y30992181D01*
X29179281Y29944877D01*
X29212766Y29883554D01*
X29215600Y29857196D01*
X29215600Y27341290D01*
X29195915Y27274251D01*
X29162680Y27241630D01*
X29163319Y27240823D01*
X29157651Y27236341D01*
X29043327Y27122017D01*
X28982004Y27088532D01*
X28912312Y27093516D01*
X28867964Y27122017D01*
X28754033Y27235948D01*
X28607311Y27326448D01*
X28607300Y27326453D01*
X28443652Y27380680D01*
X28342648Y27390999D01*
X28293500Y27390998D01*
X28293500Y25440999D01*
X28342638Y25441000D01*
X28342656Y25441001D01*
X28443652Y25451319D01*
X28607300Y25505546D01*
X28607311Y25505551D01*
X28754034Y25596052D01*
X28754038Y25596055D01*
X28867965Y25709982D01*
X28929288Y25743467D01*
X28998980Y25738483D01*
X29043327Y25709983D01*
X29157651Y25595659D01*
X29304481Y25505093D01*
X29304486Y25505091D01*
X29387088Y25477719D01*
X29468247Y25450826D01*
X29468248Y25450825D01*
X29569321Y25440500D01*
X29569323Y25440500D01*
X30167669Y25440500D01*
X30167687Y25440501D01*
X30268752Y25450825D01*
X30378249Y25487109D01*
X30432516Y25505092D01*
X30433261Y25505551D01*
X30579348Y25595659D01*
X30579350Y25595660D01*
X30701340Y25717650D01*
X30791908Y25864484D01*
X30846174Y26028247D01*
X30856500Y26129323D01*
X30856499Y26702676D01*
X30846174Y26803753D01*
X30791908Y26967516D01*
X30701340Y27114350D01*
X30579350Y27236340D01*
X30579346Y27236342D01*
X30573681Y27240823D01*
X30574647Y27242045D01*
X30533587Y27287683D01*
X30521400Y27341290D01*
X30521400Y27474154D01*
X31537000Y27474154D01*
X31537000Y27375000D01*
X32262000Y27375000D01*
X32262000Y28162499D01*
X32225360Y28162499D01*
X32225345Y28162498D01*
X32124347Y28152180D01*
X31960699Y28097953D01*
X31960688Y28097948D01*
X31813965Y28007447D01*
X31813961Y28007444D01*
X31692055Y27885538D01*
X31692052Y27885534D01*
X31601551Y27738811D01*
X31601546Y27738800D01*
X31547319Y27575152D01*
X31537000Y27474154D01*
X30521400Y27474154D01*
X30521400Y30128396D01*
X30541085Y30195435D01*
X30593889Y30241190D01*
X30663047Y30251134D01*
X30726603Y30222109D01*
X30733081Y30216077D01*
X30827745Y30121413D01*
X30861230Y30060090D01*
X30863384Y30046702D01*
X30864325Y30037747D01*
X30864327Y30037739D01*
X30922818Y29857722D01*
X30922821Y29857715D01*
X31017466Y29693785D01*
X31144129Y29553111D01*
X31297265Y29441851D01*
X31297270Y29441848D01*
X31470192Y29364857D01*
X31470197Y29364855D01*
X31622897Y29332398D01*
X31655354Y29325500D01*
X31655355Y29325500D01*
X31844645Y29325500D01*
X31844646Y29325500D01*
X31884001Y29333865D01*
X32029802Y29364855D01*
X32029807Y29364857D01*
X32202729Y29441848D01*
X32202734Y29441851D01*
X32355870Y29553111D01*
X32372065Y29571097D01*
X32482533Y29693784D01*
X32577179Y29857716D01*
X32635674Y30037744D01*
X32640779Y30086319D01*
X32667362Y30150930D01*
X32724659Y30190916D01*
X32794478Y30193576D01*
X32851780Y30161037D01*
X32981397Y30031420D01*
X32981400Y30031417D01*
X33015334Y29997483D01*
X33079416Y29933400D01*
X33174699Y29869735D01*
X33174698Y29869734D01*
X33194672Y29856389D01*
X33194677Y29856386D01*
X33322735Y29803343D01*
X33322743Y29803341D01*
X33458689Y29776299D01*
X33458691Y29776299D01*
X33603422Y29776299D01*
X33603442Y29776300D01*
X34184560Y29776300D01*
X34251599Y29756615D01*
X34297354Y29703811D01*
X34307298Y29634653D01*
X34278273Y29571097D01*
X34243577Y29543245D01*
X34078770Y29454056D01*
X34078768Y29454055D01*
X34031942Y29417609D01*
X34731765Y28717787D01*
X34689708Y28706518D01*
X34564292Y28634110D01*
X34461890Y28531708D01*
X34389482Y28406292D01*
X34378212Y28364234D01*
X33678564Y29063882D01*
X33578266Y28910364D01*
X33478412Y28682717D01*
X33417387Y28441738D01*
X33417385Y28441729D01*
X33396859Y28194005D01*
X33396859Y28194004D01*
X33402940Y28120614D01*
X33388858Y28052178D01*
X33340013Y28002219D01*
X33271911Y27986599D01*
X33214265Y28004837D01*
X33063307Y28097950D01*
X33063300Y28097953D01*
X32899652Y28152180D01*
X32798647Y28162499D01*
X32762000Y28162499D01*
X32762000Y27375000D01*
X33497153Y27375000D01*
X33536108Y27396271D01*
X33605800Y27391287D01*
X33661733Y27349415D01*
X33666275Y27342927D01*
X33678564Y27324116D01*
X34378212Y28023764D01*
X34389482Y27981708D01*
X34461890Y27856292D01*
X34564292Y27753890D01*
X34689708Y27681482D01*
X34731765Y27670212D01*
X34031942Y26970390D01*
X34031942Y26970388D01*
X34078761Y26933949D01*
X34297390Y26815632D01*
X34297396Y26815630D01*
X34532506Y26734916D01*
X34777707Y26694000D01*
X35026293Y26694000D01*
X35271493Y26734916D01*
X35506603Y26815630D01*
X35506614Y26815635D01*
X35725229Y26933943D01*
X35772056Y26970389D01*
X35772057Y26970390D01*
X35072235Y27670212D01*
X35114292Y27681482D01*
X35239708Y27753890D01*
X35342110Y27856292D01*
X35414518Y27981708D01*
X35425787Y28023764D01*
X36125434Y27324116D01*
X36225731Y27477630D01*
X36325587Y27705282D01*
X36386612Y27946261D01*
X36386614Y27946270D01*
X36407141Y28193994D01*
X36407141Y28194005D01*
X36386614Y28441729D01*
X36386612Y28441738D01*
X36325587Y28682717D01*
X36225731Y28910369D01*
X36125434Y29063882D01*
X35425787Y28364235D01*
X35414518Y28406292D01*
X35342110Y28531708D01*
X35239708Y28634110D01*
X35114292Y28706518D01*
X35072234Y28717787D01*
X35772056Y29417609D01*
X35725231Y29454055D01*
X35725228Y29454057D01*
X35560423Y29543245D01*
X35510832Y29592464D01*
X35495724Y29660681D01*
X35519894Y29726237D01*
X35575670Y29768318D01*
X35619440Y29776300D01*
X39528248Y29776300D01*
X39595287Y29756615D01*
X39601133Y29752618D01*
X39679265Y29695851D01*
X39679270Y29695848D01*
X39852192Y29618857D01*
X39852197Y29618855D01*
X39978964Y29591911D01*
X40037354Y29579500D01*
X40037355Y29579500D01*
X40226646Y29579500D01*
X40405201Y29617452D01*
X40474868Y29612136D01*
X40530601Y29569999D01*
X40554706Y29504419D01*
X40539529Y29436217D01*
X40532593Y29428098D01*
X40531942Y29417609D01*
X41231765Y28717787D01*
X41189708Y28706518D01*
X41064292Y28634110D01*
X40961890Y28531708D01*
X40889482Y28406292D01*
X40878212Y28364234D01*
X40178564Y29063882D01*
X40078266Y28910364D01*
X39978412Y28682717D01*
X39917387Y28441738D01*
X39917385Y28441729D01*
X39896859Y28194005D01*
X39896859Y28193994D01*
X39917385Y27946270D01*
X39917387Y27946261D01*
X39978412Y27705282D01*
X40078267Y27477632D01*
X40178564Y27324116D01*
X40878212Y28023764D01*
X40889482Y27981708D01*
X40961890Y27856292D01*
X41064292Y27753890D01*
X41189708Y27681482D01*
X41231765Y27670212D01*
X40531942Y26970390D01*
X40531942Y26970388D01*
X40578761Y26933949D01*
X40797390Y26815632D01*
X40797396Y26815630D01*
X41032506Y26734916D01*
X41277707Y26694000D01*
X41526293Y26694000D01*
X41771493Y26734916D01*
X42006603Y26815630D01*
X42006614Y26815635D01*
X42225229Y26933943D01*
X42272056Y26970389D01*
X42272057Y26970390D01*
X41572235Y27670212D01*
X41614292Y27681482D01*
X41739708Y27753890D01*
X41842110Y27856292D01*
X41914518Y27981708D01*
X41925787Y28023764D01*
X42625434Y27324116D01*
X42725731Y27477629D01*
X42736287Y27501696D01*
X42781242Y27555183D01*
X42847978Y27575874D01*
X42915306Y27557201D01*
X42961850Y27505091D01*
X42973202Y27439286D01*
X42966500Y27373686D01*
X42966500Y26775330D01*
X42966501Y26775312D01*
X42976825Y26674247D01*
X43031092Y26510484D01*
X43031093Y26510481D01*
X43121661Y26363648D01*
X43235629Y26249681D01*
X43269114Y26188358D01*
X43264130Y26118666D01*
X43235629Y26074319D01*
X43121660Y25960350D01*
X43065395Y25869129D01*
X43053752Y25850253D01*
X43031092Y25813516D01*
X42976826Y25649753D01*
X42976826Y25649751D01*
X42976825Y25649751D01*
X42966500Y25548684D01*
X42966500Y24950330D01*
X42966501Y24950312D01*
X42976825Y24849247D01*
X43031092Y24685484D01*
X43031093Y24685481D01*
X43066342Y24628335D01*
X43121660Y24538650D01*
X43121661Y24538648D01*
X43123297Y24535997D01*
X43141737Y24468604D01*
X43120815Y24401941D01*
X43067173Y24357171D01*
X43017758Y24346900D01*
X42834537Y24346900D01*
X42767498Y24366585D01*
X42730021Y24406995D01*
X42728978Y24406314D01*
X42590166Y24618782D01*
X42590165Y24618782D01*
X42590164Y24618785D01*
X42421744Y24801738D01*
X42225509Y24954474D01*
X42006810Y25072828D01*
X41771614Y25153571D01*
X41526335Y25194500D01*
X41277665Y25194500D01*
X41032386Y25153571D01*
X40797190Y25072828D01*
X40797188Y25072827D01*
X40756508Y25050812D01*
X40578491Y24954474D01*
X40382256Y24801738D01*
X40296509Y24708592D01*
X40213833Y24618782D01*
X40075022Y24406314D01*
X40073785Y24407121D01*
X40029316Y24362302D01*
X39969463Y24346900D01*
X36334537Y24346900D01*
X36267498Y24366585D01*
X36230021Y24406995D01*
X36228978Y24406314D01*
X36090166Y24618782D01*
X36090165Y24618782D01*
X36090164Y24618785D01*
X35921744Y24801738D01*
X35725509Y24954474D01*
X35506810Y25072828D01*
X35271614Y25153571D01*
X35026335Y25194500D01*
X34777665Y25194500D01*
X34532386Y25153571D01*
X34297190Y25072828D01*
X34297188Y25072827D01*
X34256508Y25050812D01*
X34078491Y24954474D01*
X33882256Y24801738D01*
X33796509Y24708592D01*
X33713833Y24618782D01*
X33575022Y24406314D01*
X33573785Y24407121D01*
X33529316Y24362302D01*
X33469463Y24346900D01*
X33339452Y24346900D01*
X33272413Y24366585D01*
X33226658Y24419389D01*
X33216714Y24488547D01*
X33245739Y24552103D01*
X33251771Y24558581D01*
X33332338Y24639148D01*
X33332340Y24639150D01*
X33422908Y24785984D01*
X33477174Y24949747D01*
X33487500Y25050823D01*
X33487499Y25749176D01*
X33485905Y25764776D01*
X33477174Y25850252D01*
X33472458Y25864484D01*
X33422908Y26014016D01*
X33332340Y26160850D01*
X33318018Y26175172D01*
X33284533Y26236489D01*
X33289514Y26306181D01*
X33318017Y26350534D01*
X33331944Y26364461D01*
X33331947Y26364465D01*
X33422448Y26511188D01*
X33422453Y26511199D01*
X33476680Y26674847D01*
X33486999Y26775845D01*
X33487000Y26775858D01*
X33487000Y26875000D01*
X31537001Y26875000D01*
X31537001Y26775845D01*
X31547319Y26674847D01*
X31601546Y26511199D01*
X31601551Y26511188D01*
X31692052Y26364465D01*
X31705985Y26350532D01*
X31739468Y26289208D01*
X31734482Y26219516D01*
X31705982Y26175172D01*
X31691660Y26160850D01*
X31643235Y26082340D01*
X31613143Y26033553D01*
X31601092Y26014016D01*
X31546826Y25850253D01*
X31546826Y25850251D01*
X31546825Y25850251D01*
X31536500Y25749184D01*
X31536500Y25050830D01*
X31536501Y25050812D01*
X31546825Y24949747D01*
X31601092Y24785984D01*
X31604146Y24779436D01*
X31602819Y24778817D01*
X31619108Y24719266D01*
X31598179Y24652605D01*
X31544532Y24607840D01*
X31475200Y24599186D01*
X31412196Y24629389D01*
X31407442Y24633899D01*
X31407419Y24633921D01*
X31404200Y24637141D01*
X31297264Y24708592D01*
X31178444Y24757809D01*
X31137165Y24766019D01*
X31052307Y24782900D01*
X31052305Y24782900D01*
X30797310Y24782900D01*
X30730271Y24802585D01*
X30706940Y24823736D01*
X30706447Y24823243D01*
X30643190Y24886500D01*
X30579350Y24950340D01*
X30432516Y25040908D01*
X30268753Y25095174D01*
X30167677Y25105500D01*
X29569324Y25105499D01*
X29569316Y25105498D01*
X29569312Y25105498D01*
X29468247Y25095174D01*
X29304484Y25040908D01*
X29157650Y24950340D01*
X29157648Y24950338D01*
X29043681Y24836371D01*
X28982358Y24802886D01*
X28912666Y24807870D01*
X28868319Y24836371D01*
X28813546Y24891144D01*
X28754350Y24950340D01*
X28607516Y25040908D01*
X28443753Y25095174D01*
X28342677Y25105500D01*
X27744324Y25105499D01*
X27744316Y25105498D01*
X27744312Y25105498D01*
X27643247Y25095174D01*
X27479484Y25040908D01*
X27332650Y24950340D01*
X27210660Y24828350D01*
X27184527Y24785981D01*
X27122538Y24685481D01*
X27120092Y24681516D01*
X27065826Y24517753D01*
X27065826Y24517751D01*
X27065825Y24517751D01*
X27055500Y24416684D01*
X27055500Y24412900D01*
X27035815Y24345861D01*
X26983011Y24300106D01*
X26931500Y24288900D01*
X21334499Y24288900D01*
X21267460Y24308585D01*
X21221705Y24361389D01*
X21210499Y24412900D01*
X21210499Y24433870D01*
X21210499Y24433873D01*
X21204091Y24493483D01*
X21153796Y24628331D01*
X21067546Y24743546D01*
X20952331Y24829796D01*
X20817483Y24880091D01*
X20757873Y24886500D01*
X18662128Y24886499D01*
X18613757Y24881299D01*
X18602516Y24880091D01*
X18467671Y24829797D01*
X18467664Y24829793D01*
X18352455Y24743547D01*
X18352452Y24743544D01*
X18266206Y24628335D01*
X18266202Y24628328D01*
X18215908Y24493482D01*
X18213234Y24468604D01*
X18209501Y24433876D01*
X18209500Y24433864D01*
X18209500Y22838129D01*
X18209501Y22838123D01*
X18215908Y22778516D01*
X18266202Y22643671D01*
X18266203Y22643669D01*
X18328606Y22560311D01*
X18353023Y22494847D01*
X18338172Y22426574D01*
X18328606Y22411689D01*
X18283923Y22352000D01*
X18266204Y22328331D01*
X18264426Y22323565D01*
X18222559Y22267635D01*
X18157095Y22243216D01*
X18148246Y22242900D01*
X11280833Y22242900D01*
X11213794Y22262585D01*
X11168039Y22315389D01*
X11157257Y22356660D01*
X11137109Y22599813D01*
X11137107Y22599824D01*
X11133450Y22614264D01*
X11076063Y22840881D01*
X10976173Y23068607D01*
X10840164Y23276785D01*
X10671744Y23459738D01*
X10475509Y23612474D01*
X10256810Y23730828D01*
X10021614Y23811571D01*
X9776335Y23852500D01*
X9527665Y23852500D01*
X9282386Y23811571D01*
X9047190Y23730828D01*
X8828491Y23612474D01*
X8632256Y23459738D01*
X8494100Y23309660D01*
X8484210Y23298917D01*
X8424323Y23262926D01*
X8392980Y23258900D01*
X5911020Y23258900D01*
X5843981Y23278585D01*
X5819790Y23298917D01*
X5809900Y23309660D01*
X5671744Y23459738D01*
X5475509Y23612474D01*
X5256810Y23730828D01*
X5021614Y23811571D01*
X4776335Y23852500D01*
X4527665Y23852500D01*
X4282386Y23811571D01*
X4047190Y23730828D01*
X3828491Y23612474D01*
X3632256Y23459738D01*
X3529724Y23348358D01*
X3463833Y23276782D01*
X3327826Y23068606D01*
X3227936Y22840881D01*
X3166892Y22599824D01*
X3166890Y22599812D01*
X3146357Y22352005D01*
X3146357Y22351994D01*
X3166890Y22104187D01*
X3166892Y22104175D01*
X3227936Y21863118D01*
X3327826Y21635393D01*
X3463833Y21427217D01*
X3632257Y21244261D01*
X3828493Y21091524D01*
X4047188Y20973172D01*
X4047197Y20973169D01*
X4282383Y20892429D01*
X4527665Y20851500D01*
X4776335Y20851500D01*
X5021616Y20892429D01*
X5256802Y20973169D01*
X5256811Y20973172D01*
X5475506Y21091524D01*
X5475509Y21091526D01*
X5671744Y21244262D01*
X5819790Y21405083D01*
X5879677Y21441074D01*
X5911020Y21445100D01*
X8392980Y21445100D01*
X8460019Y21425415D01*
X8484209Y21405083D01*
X8567816Y21314262D01*
X8632257Y21244261D01*
X8828493Y21091524D01*
X9047188Y20973172D01*
X9047197Y20973169D01*
X9282383Y20892429D01*
X9527665Y20851500D01*
X9776333Y20851500D01*
X9776335Y20851500D01*
X9786341Y20853169D01*
X9793608Y20854382D01*
X9862973Y20845997D01*
X9901693Y20819755D01*
X9963564Y20757886D01*
X9963565Y20757884D01*
X10089881Y20631567D01*
X10089885Y20631564D01*
X10238415Y20532319D01*
X10238424Y20532314D01*
X10403466Y20463952D01*
X10403472Y20463950D01*
X10578676Y20429100D01*
X10578678Y20429100D01*
X18148246Y20429100D01*
X18215285Y20409415D01*
X18261040Y20356611D01*
X18264417Y20348458D01*
X18266035Y20344120D01*
X18266205Y20343666D01*
X18328918Y20259894D01*
X18353335Y20194430D01*
X18338484Y20126157D01*
X18328918Y20111272D01*
X18266646Y20028088D01*
X18266645Y20028086D01*
X18216403Y19893379D01*
X18216401Y19893372D01*
X18210000Y19833844D01*
X18210000Y19286000D01*
X21210000Y19286000D01*
X21210000Y19833827D01*
X21209999Y19833844D01*
X21203598Y19893372D01*
X21203596Y19893379D01*
X21153354Y20028086D01*
X21153352Y20028089D01*
X21091082Y20111271D01*
X21066664Y20176735D01*
X21081515Y20245008D01*
X21091077Y20259887D01*
X21153796Y20343669D01*
X21204091Y20478517D01*
X21210500Y20538127D01*
X21210499Y22133872D01*
X21204091Y22193483D01*
X21153796Y22328331D01*
X21091393Y22411689D01*
X21066977Y22477153D01*
X21081828Y22545426D01*
X21091394Y22560311D01*
X21153796Y22643669D01*
X21153797Y22643671D01*
X21204091Y22778517D01*
X21205783Y22794256D01*
X21210500Y22838127D01*
X21210500Y22859100D01*
X21230185Y22926139D01*
X21282989Y22971894D01*
X21334500Y22983100D01*
X24385500Y22983100D01*
X24452539Y22963415D01*
X24498294Y22910611D01*
X24509500Y22859100D01*
X24509500Y19388129D01*
X24509501Y19388123D01*
X24515908Y19328516D01*
X24566202Y19193671D01*
X24566206Y19193664D01*
X24652452Y19078455D01*
X24652455Y19078452D01*
X24767664Y18992206D01*
X24767671Y18992202D01*
X24902517Y18941908D01*
X24902516Y18941908D01*
X24962116Y18935501D01*
X24962119Y18935500D01*
X24962127Y18935500D01*
X24962135Y18935500D01*
X24962136Y18935500D01*
X26932000Y18935500D01*
X26999039Y18915815D01*
X27044794Y18863011D01*
X27056000Y18811500D01*
X27056000Y18792000D01*
X27793500Y18792000D01*
X27793500Y19516999D01*
X27744360Y19516999D01*
X27744345Y19516998D01*
X27647101Y19507064D01*
X27578408Y19519834D01*
X27527524Y19567714D01*
X27510499Y19630418D01*
X27510499Y22860786D01*
X27530184Y22927825D01*
X27582988Y22973580D01*
X27610307Y22982403D01*
X27739938Y23008189D01*
X27739944Y23008191D01*
X27858761Y23057406D01*
X27871910Y23066192D01*
X27871910Y23066191D01*
X27970765Y23132243D01*
X27972035Y23130341D01*
X28026958Y23153667D01*
X28041311Y23154500D01*
X28044296Y23154500D01*
X28111335Y23134815D01*
X28131977Y23118181D01*
X29179281Y22070877D01*
X29212766Y22009554D01*
X29215600Y21983196D01*
X29215600Y19467290D01*
X29195915Y19400251D01*
X29162680Y19367630D01*
X29163319Y19366823D01*
X29157651Y19362341D01*
X29043327Y19248017D01*
X28982004Y19214532D01*
X28912312Y19219516D01*
X28867964Y19248017D01*
X28754033Y19361948D01*
X28607311Y19452448D01*
X28607300Y19452453D01*
X28443652Y19506680D01*
X28342648Y19516999D01*
X28293500Y19516998D01*
X28293500Y17566999D01*
X28342638Y17567000D01*
X28342656Y17567001D01*
X28443652Y17577319D01*
X28607300Y17631546D01*
X28607311Y17631551D01*
X28754034Y17722052D01*
X28754038Y17722055D01*
X28867965Y17835982D01*
X28929288Y17869467D01*
X28998980Y17864483D01*
X29043327Y17835983D01*
X29157651Y17721659D01*
X29304481Y17631093D01*
X29304486Y17631091D01*
X29387088Y17603719D01*
X29468247Y17576826D01*
X29468248Y17576825D01*
X29569321Y17566500D01*
X29569323Y17566500D01*
X30167669Y17566500D01*
X30167687Y17566501D01*
X30268752Y17576825D01*
X30398264Y17619742D01*
X30432516Y17631092D01*
X30436955Y17633830D01*
X30504348Y17652269D01*
X30571011Y17631345D01*
X30615780Y17577702D01*
X30624440Y17508372D01*
X30619981Y17489973D01*
X30610327Y17460261D01*
X30610326Y17460258D01*
X30610326Y17460256D01*
X30604450Y17404350D01*
X30590649Y17273040D01*
X30564064Y17208426D01*
X30506767Y17168441D01*
X30436948Y17165781D01*
X30428358Y17168285D01*
X30268753Y17221174D01*
X30167677Y17231500D01*
X29569324Y17231499D01*
X29569316Y17231498D01*
X29569312Y17231498D01*
X29468247Y17221174D01*
X29304484Y17166908D01*
X29157650Y17076340D01*
X29157648Y17076338D01*
X29043681Y16962371D01*
X28982358Y16928886D01*
X28912666Y16933870D01*
X28868319Y16962371D01*
X28818190Y17012500D01*
X28754350Y17076340D01*
X28607516Y17166908D01*
X28443753Y17221174D01*
X28342677Y17231500D01*
X27744324Y17231499D01*
X27744316Y17231498D01*
X27744312Y17231498D01*
X27643247Y17221174D01*
X27479484Y17166908D01*
X27332650Y17076340D01*
X27210660Y16954350D01*
X27171302Y16890540D01*
X27122593Y16811570D01*
X27120092Y16807516D01*
X27065826Y16643753D01*
X27065826Y16643751D01*
X27065825Y16643751D01*
X27055500Y16542684D01*
X27055500Y16538900D01*
X27035815Y16471861D01*
X26983011Y16426106D01*
X26931500Y16414900D01*
X21334499Y16414900D01*
X21267460Y16434585D01*
X21221705Y16487389D01*
X21210499Y16538900D01*
X21210499Y16559870D01*
X21210499Y16559873D01*
X21204091Y16619483D01*
X21153796Y16754331D01*
X21067546Y16869546D01*
X20952331Y16955796D01*
X20817483Y17006091D01*
X20757873Y17012500D01*
X18662128Y17012499D01*
X18613757Y17007299D01*
X18602516Y17006091D01*
X18467671Y16955797D01*
X18467664Y16955793D01*
X18352455Y16869547D01*
X18352452Y16869544D01*
X18266206Y16754335D01*
X18266202Y16754328D01*
X18215908Y16619482D01*
X18215155Y16612474D01*
X18209501Y16559876D01*
X18209500Y16559864D01*
X18209500Y14964129D01*
X18209501Y14964123D01*
X18215908Y14904516D01*
X18266202Y14769671D01*
X18266203Y14769669D01*
X18328606Y14686311D01*
X18353023Y14620847D01*
X18338172Y14552574D01*
X18328606Y14537689D01*
X18266365Y14454546D01*
X18266204Y14454331D01*
X18264426Y14449565D01*
X18222559Y14393635D01*
X18157095Y14369216D01*
X18148246Y14368900D01*
X14397012Y14368900D01*
X14329973Y14388585D01*
X14309331Y14405219D01*
X13643219Y15071331D01*
X13609734Y15132654D01*
X13606900Y15159012D01*
X13606900Y17869324D01*
X13572049Y18044527D01*
X13572048Y18044533D01*
X13503684Y18209578D01*
X13484590Y18238155D01*
X18210000Y18238155D01*
X18216401Y18178627D01*
X18216403Y18178620D01*
X18266645Y18043913D01*
X18266649Y18043906D01*
X18352809Y17928812D01*
X18352812Y17928809D01*
X18467906Y17842649D01*
X18467913Y17842645D01*
X18602620Y17792403D01*
X18602627Y17792401D01*
X18662155Y17786000D01*
X19460000Y17786000D01*
X19960000Y17786000D01*
X20757844Y17786000D01*
X20817372Y17792401D01*
X20817379Y17792403D01*
X20952086Y17842645D01*
X20952093Y17842649D01*
X21067187Y17928809D01*
X21067190Y17928812D01*
X21153350Y18043906D01*
X21153354Y18043913D01*
X21203596Y18178620D01*
X21203598Y18178627D01*
X21209999Y18238155D01*
X21210000Y18238172D01*
X21210000Y18255345D01*
X27056001Y18255345D01*
X27066319Y18154347D01*
X27120546Y17990699D01*
X27120551Y17990688D01*
X27211052Y17843965D01*
X27211055Y17843961D01*
X27332961Y17722055D01*
X27332965Y17722052D01*
X27479688Y17631551D01*
X27479699Y17631546D01*
X27643347Y17577319D01*
X27744345Y17567000D01*
X27793500Y17567000D01*
X27793500Y18292000D01*
X27056001Y18292000D01*
X27056001Y18255345D01*
X21210000Y18255345D01*
X21210000Y18786000D01*
X19960000Y18786000D01*
X19960000Y17786000D01*
X19460000Y17786000D01*
X19460000Y18786000D01*
X18210000Y18786000D01*
X18210000Y18238155D01*
X13484590Y18238155D01*
X13404435Y18358115D01*
X13278115Y18484435D01*
X12206115Y19556435D01*
X12057578Y19655684D01*
X11892533Y19724048D01*
X11835198Y19735452D01*
X11717324Y19758900D01*
X11717322Y19758900D01*
X10911020Y19758900D01*
X10843981Y19778585D01*
X10819790Y19798917D01*
X10671744Y19959738D01*
X10475509Y20112474D01*
X10256810Y20230828D01*
X10021614Y20311571D01*
X9776335Y20352500D01*
X9527665Y20352500D01*
X9282386Y20311571D01*
X9047190Y20230828D01*
X9047188Y20230827D01*
X9036787Y20225198D01*
X8828491Y20112474D01*
X8632256Y19959738D01*
X8516347Y19833827D01*
X8484210Y19798917D01*
X8424323Y19762926D01*
X8392980Y19758900D01*
X5911020Y19758900D01*
X5843981Y19778585D01*
X5819790Y19798917D01*
X5671744Y19959738D01*
X5475509Y20112474D01*
X5256810Y20230828D01*
X5021614Y20311571D01*
X4776335Y20352500D01*
X4527665Y20352500D01*
X4282386Y20311571D01*
X4047190Y20230828D01*
X4047188Y20230827D01*
X4036787Y20225198D01*
X3828491Y20112474D01*
X3632256Y19959738D01*
X3516347Y19833827D01*
X3463833Y19776782D01*
X3327826Y19568606D01*
X3227936Y19340881D01*
X3166892Y19099824D01*
X3166890Y19099812D01*
X3146357Y18852005D01*
X3146357Y18851994D01*
X3166890Y18604187D01*
X3166892Y18604175D01*
X3227936Y18363118D01*
X3327826Y18135393D01*
X3463833Y17927217D01*
X3632257Y17744261D01*
X3828493Y17591524D01*
X4047188Y17473172D01*
X4047197Y17473169D01*
X4282383Y17392429D01*
X4527665Y17351500D01*
X4776335Y17351500D01*
X5021616Y17392429D01*
X5256802Y17473169D01*
X5256811Y17473172D01*
X5475506Y17591524D01*
X5475509Y17591526D01*
X5671744Y17744262D01*
X5819790Y17905083D01*
X5879677Y17941074D01*
X5911020Y17945100D01*
X8392980Y17945100D01*
X8460019Y17925415D01*
X8484209Y17905083D01*
X8593833Y17786000D01*
X8632257Y17744261D01*
X8828493Y17591524D01*
X9047188Y17473172D01*
X9047197Y17473169D01*
X9282383Y17392429D01*
X9527665Y17351500D01*
X9776335Y17351500D01*
X10021616Y17392429D01*
X10256802Y17473169D01*
X10256811Y17473172D01*
X10475506Y17591524D01*
X10475509Y17591526D01*
X10671744Y17744262D01*
X10819790Y17905083D01*
X10879677Y17941074D01*
X10911020Y17945100D01*
X11200988Y17945100D01*
X11268027Y17925415D01*
X11288669Y17908781D01*
X11756781Y17440669D01*
X11790266Y17379346D01*
X11793100Y17352988D01*
X11793100Y14642675D01*
X11793099Y14642675D01*
X11827950Y14467472D01*
X11827952Y14467466D01*
X11896314Y14302424D01*
X11896319Y14302415D01*
X11995564Y14153885D01*
X11995567Y14153881D01*
X13265565Y12883885D01*
X13328726Y12820724D01*
X13391886Y12757563D01*
X13540415Y12658319D01*
X13540424Y12658314D01*
X13705466Y12589952D01*
X13705472Y12589950D01*
X13880676Y12555100D01*
X13880678Y12555100D01*
X18148246Y12555100D01*
X18215285Y12535415D01*
X18261040Y12482611D01*
X18264417Y12474458D01*
X18266035Y12470120D01*
X18266205Y12469666D01*
X18328918Y12385894D01*
X18353335Y12320430D01*
X18338484Y12252157D01*
X18328918Y12237272D01*
X18266646Y12154088D01*
X18266645Y12154086D01*
X18216403Y12019379D01*
X18216401Y12019372D01*
X18210000Y11959844D01*
X18210000Y11412000D01*
X21210000Y11412000D01*
X21210000Y11959827D01*
X21209999Y11959844D01*
X21203598Y12019372D01*
X21203596Y12019379D01*
X21153354Y12154086D01*
X21153352Y12154089D01*
X21091082Y12237271D01*
X21066664Y12302735D01*
X21081515Y12371008D01*
X21091077Y12385887D01*
X21153796Y12469669D01*
X21169406Y12511520D01*
X21204091Y12604517D01*
X21204487Y12608200D01*
X21210500Y12664127D01*
X21210499Y14259872D01*
X21204091Y14319483D01*
X21153796Y14454331D01*
X21091393Y14537689D01*
X21066977Y14603153D01*
X21081828Y14671426D01*
X21091394Y14686311D01*
X21117812Y14721600D01*
X21153796Y14769669D01*
X21155369Y14773885D01*
X21204091Y14904517D01*
X21206463Y14926583D01*
X21210500Y14964127D01*
X21210500Y14985100D01*
X21230185Y15052139D01*
X21282989Y15097894D01*
X21334500Y15109100D01*
X24385500Y15109100D01*
X24452539Y15089415D01*
X24498294Y15036611D01*
X24509500Y14985100D01*
X24509500Y11514129D01*
X24509501Y11514123D01*
X24515908Y11454516D01*
X24566202Y11319671D01*
X24566206Y11319664D01*
X24652452Y11204455D01*
X24652455Y11204452D01*
X24767664Y11118206D01*
X24767671Y11118202D01*
X24902517Y11067908D01*
X24902516Y11067908D01*
X24962116Y11061501D01*
X24962119Y11061500D01*
X24962127Y11061500D01*
X24962135Y11061500D01*
X24962136Y11061500D01*
X26932000Y11061500D01*
X26999039Y11041815D01*
X27044794Y10989011D01*
X27056000Y10937500D01*
X27056000Y10918000D01*
X27793500Y10918000D01*
X27793500Y11642999D01*
X27744360Y11642999D01*
X27744345Y11642998D01*
X27647101Y11633064D01*
X27578408Y11645834D01*
X27527524Y11693714D01*
X27510499Y11756418D01*
X27510499Y14986786D01*
X27530184Y15053825D01*
X27582988Y15099580D01*
X27610307Y15108403D01*
X27739938Y15134189D01*
X27739944Y15134191D01*
X27858762Y15183407D01*
X27858764Y15183408D01*
X27965700Y15254859D01*
X27965702Y15254861D01*
X27970765Y15258244D01*
X27972035Y15256341D01*
X28026958Y15279667D01*
X28041311Y15280500D01*
X28044296Y15280500D01*
X28111335Y15260815D01*
X28131977Y15244181D01*
X29179281Y14196877D01*
X29212766Y14135554D01*
X29215600Y14109196D01*
X29215600Y11593290D01*
X29195915Y11526251D01*
X29162680Y11493630D01*
X29163319Y11492823D01*
X29157651Y11488341D01*
X29043327Y11374017D01*
X28982004Y11340532D01*
X28912312Y11345516D01*
X28867964Y11374017D01*
X28754033Y11487948D01*
X28607311Y11578448D01*
X28607300Y11578453D01*
X28443652Y11632680D01*
X28342648Y11642999D01*
X28293500Y11642998D01*
X28293500Y9692999D01*
X28342638Y9693000D01*
X28342656Y9693001D01*
X28443652Y9703319D01*
X28607300Y9757546D01*
X28607311Y9757551D01*
X28754034Y9848052D01*
X28754038Y9848055D01*
X28867965Y9961982D01*
X28929288Y9995467D01*
X28998980Y9990483D01*
X29043327Y9961983D01*
X29157651Y9847659D01*
X29304481Y9757093D01*
X29304486Y9757091D01*
X29387088Y9729719D01*
X29468247Y9702826D01*
X29468248Y9702825D01*
X29569315Y9692500D01*
X29956297Y9692500D01*
X30023336Y9672815D01*
X30069091Y9620011D01*
X30079035Y9550853D01*
X30050010Y9487297D01*
X30043978Y9480819D01*
X29956977Y9393818D01*
X29895654Y9360333D01*
X29869296Y9357499D01*
X29569324Y9357499D01*
X29569315Y9357498D01*
X29569313Y9357498D01*
X29468247Y9347174D01*
X29304484Y9292908D01*
X29157650Y9202340D01*
X29157648Y9202338D01*
X29043681Y9088371D01*
X28982358Y9054886D01*
X28912666Y9059870D01*
X28868319Y9088371D01*
X28818190Y9138500D01*
X28754350Y9202340D01*
X28607516Y9292908D01*
X28443753Y9347174D01*
X28342677Y9357500D01*
X27744324Y9357499D01*
X27744316Y9357498D01*
X27744312Y9357498D01*
X27643247Y9347174D01*
X27479484Y9292908D01*
X27332650Y9202340D01*
X27210660Y9080350D01*
X27166959Y9009500D01*
X27131000Y8951200D01*
X27120092Y8933516D01*
X27065826Y8769753D01*
X27065826Y8769751D01*
X27065825Y8769751D01*
X27055500Y8668684D01*
X27055500Y8664900D01*
X27035815Y8597861D01*
X26983011Y8552106D01*
X26931500Y8540900D01*
X21334499Y8540900D01*
X21267460Y8560585D01*
X21221705Y8613389D01*
X21210499Y8664900D01*
X21210499Y8685870D01*
X21210499Y8685873D01*
X21204091Y8745483D01*
X21153796Y8880331D01*
X21067546Y8995546D01*
X20952331Y9081796D01*
X20817483Y9132091D01*
X20757873Y9138500D01*
X18662128Y9138499D01*
X18613757Y9133299D01*
X18602516Y9132091D01*
X18467671Y9081797D01*
X18467664Y9081793D01*
X18352455Y8995547D01*
X18352452Y8995544D01*
X18266206Y8880335D01*
X18266202Y8880328D01*
X18215908Y8745482D01*
X18211676Y8706115D01*
X18209501Y8685876D01*
X18209500Y8685864D01*
X18209500Y7090129D01*
X18209501Y7090123D01*
X18215908Y7030516D01*
X18266202Y6895671D01*
X18266204Y6895668D01*
X18328606Y6812310D01*
X18353023Y6746845D01*
X18338171Y6678572D01*
X18328609Y6663693D01*
X18318231Y6649831D01*
X18262299Y6607962D01*
X18192607Y6602978D01*
X18131288Y6636461D01*
X14403594Y10364155D01*
X18210000Y10364155D01*
X18216401Y10304627D01*
X18216403Y10304620D01*
X18266645Y10169913D01*
X18266649Y10169906D01*
X18352809Y10054812D01*
X18352812Y10054809D01*
X18467906Y9968649D01*
X18467913Y9968645D01*
X18602620Y9918403D01*
X18602627Y9918401D01*
X18662155Y9912000D01*
X19460000Y9912000D01*
X19960000Y9912000D01*
X20757844Y9912000D01*
X20817372Y9918401D01*
X20817379Y9918403D01*
X20952086Y9968645D01*
X20952093Y9968649D01*
X21067187Y10054809D01*
X21067190Y10054812D01*
X21153350Y10169906D01*
X21153354Y10169913D01*
X21203596Y10304620D01*
X21203598Y10304627D01*
X21209999Y10364155D01*
X21210000Y10364172D01*
X21210000Y10381345D01*
X27056001Y10381345D01*
X27066319Y10280347D01*
X27120546Y10116699D01*
X27120551Y10116688D01*
X27211052Y9969965D01*
X27211055Y9969961D01*
X27332961Y9848055D01*
X27332965Y9848052D01*
X27479688Y9757551D01*
X27479699Y9757546D01*
X27643347Y9703319D01*
X27744345Y9693000D01*
X27793500Y9693000D01*
X27793500Y10418000D01*
X27056001Y10418000D01*
X27056001Y10381345D01*
X21210000Y10381345D01*
X21210000Y10912000D01*
X19960000Y10912000D01*
X19960000Y9912000D01*
X19460000Y9912000D01*
X19460000Y10912000D01*
X18210000Y10912000D01*
X18210000Y10364155D01*
X14403594Y10364155D01*
X10684809Y14082940D01*
X10651326Y14144261D01*
X10656310Y14213953D01*
X10681260Y14254599D01*
X10826241Y14412091D01*
X10840166Y14427217D01*
X10976173Y14635393D01*
X11076063Y14863118D01*
X11137107Y15104175D01*
X11137109Y15104187D01*
X11157643Y15351994D01*
X11157643Y15352005D01*
X11137109Y15599812D01*
X11137108Y15599815D01*
X11137108Y15599821D01*
X11076063Y15840881D01*
X10976173Y16068607D01*
X10840164Y16276785D01*
X10671744Y16459738D01*
X10475509Y16612474D01*
X10256810Y16730828D01*
X10021614Y16811571D01*
X9776335Y16852500D01*
X9527665Y16852500D01*
X9282386Y16811571D01*
X9047190Y16730828D01*
X8828491Y16612474D01*
X8632256Y16459738D01*
X8601296Y16426106D01*
X8484210Y16298917D01*
X8424323Y16262926D01*
X8392980Y16258900D01*
X5911020Y16258900D01*
X5843981Y16278585D01*
X5819790Y16298917D01*
X5671744Y16459738D01*
X5475509Y16612474D01*
X5256810Y16730828D01*
X5021614Y16811571D01*
X4776335Y16852500D01*
X4527665Y16852500D01*
X4282386Y16811571D01*
X4047190Y16730828D01*
X3828491Y16612474D01*
X3632256Y16459738D01*
X3601296Y16426106D01*
X3463833Y16276782D01*
X3327826Y16068606D01*
X3227936Y15840881D01*
X3166892Y15599824D01*
X3166890Y15599812D01*
X3146357Y15352005D01*
X3146357Y15351994D01*
X3166890Y15104187D01*
X3166892Y15104175D01*
X3227936Y14863118D01*
X3327826Y14635393D01*
X3463833Y14427217D01*
X3632257Y14244261D01*
X3828493Y14091524D01*
X4047188Y13973172D01*
X4047197Y13973169D01*
X4282383Y13892429D01*
X4527665Y13851500D01*
X4776335Y13851500D01*
X5021616Y13892429D01*
X5256802Y13973169D01*
X5256811Y13973172D01*
X5475506Y14091524D01*
X5532076Y14135554D01*
X5671744Y14244262D01*
X5819790Y14405083D01*
X5879677Y14441074D01*
X5911020Y14445100D01*
X8392980Y14445100D01*
X8460019Y14425415D01*
X8484209Y14405083D01*
X8627048Y14249919D01*
X8632258Y14244260D01*
X8697263Y14193664D01*
X8738076Y14136953D01*
X8745100Y14095811D01*
X8745100Y13743877D01*
X8779950Y13568672D01*
X8779952Y13568666D01*
X8848314Y13403624D01*
X8848319Y13403615D01*
X8947564Y13255085D01*
X8947567Y13255081D01*
X17319079Y4883568D01*
X17319082Y4883565D01*
X17456663Y4791638D01*
X17467622Y4784316D01*
X17632666Y4715952D01*
X17632672Y4715950D01*
X17807876Y4681100D01*
X17807878Y4681100D01*
X17807879Y4681100D01*
X17986522Y4681100D01*
X18148246Y4681100D01*
X18215285Y4661415D01*
X18261040Y4608611D01*
X18264417Y4600458D01*
X18265877Y4596545D01*
X18266205Y4595666D01*
X18328918Y4511894D01*
X18353335Y4446430D01*
X18338484Y4378157D01*
X18328918Y4363272D01*
X18266646Y4280088D01*
X18266645Y4280086D01*
X18216403Y4145379D01*
X18216401Y4145372D01*
X18210000Y4085844D01*
X18210000Y3538000D01*
X21210000Y3538000D01*
X21210000Y4085827D01*
X21209999Y4085844D01*
X21203598Y4145372D01*
X21203596Y4145379D01*
X21153354Y4280086D01*
X21153352Y4280089D01*
X21091082Y4363271D01*
X21066664Y4428735D01*
X21081515Y4497008D01*
X21091077Y4511887D01*
X21153796Y4595669D01*
X21158664Y4608719D01*
X21204091Y4730517D01*
X21210500Y4790127D01*
X21210499Y6385872D01*
X21204091Y6445483D01*
X21153796Y6580331D01*
X21091393Y6663689D01*
X21066977Y6729153D01*
X21081828Y6797426D01*
X21091394Y6812311D01*
X21153796Y6895669D01*
X21153797Y6895671D01*
X21204091Y7030517D01*
X21210500Y7090127D01*
X21210500Y7111100D01*
X21230185Y7178139D01*
X21282989Y7223894D01*
X21334500Y7235100D01*
X24385500Y7235100D01*
X24452539Y7215415D01*
X24498294Y7162611D01*
X24509500Y7111100D01*
X24509500Y3640129D01*
X24509501Y3640123D01*
X24515908Y3580516D01*
X24566202Y3445671D01*
X24566206Y3445664D01*
X24652452Y3330455D01*
X24652454Y3330454D01*
X24767664Y3244206D01*
X24767671Y3244202D01*
X24902517Y3193908D01*
X24902516Y3193908D01*
X24962116Y3187501D01*
X24962119Y3187500D01*
X24962127Y3187500D01*
X24962135Y3187500D01*
X24962136Y3187500D01*
X26932000Y3187500D01*
X26999039Y3167815D01*
X27044794Y3115011D01*
X27056000Y3063500D01*
X27056000Y3044000D01*
X27793500Y3044000D01*
X27793500Y3768999D01*
X27744360Y3768999D01*
X27744345Y3768998D01*
X27647101Y3759064D01*
X27578408Y3771834D01*
X27527524Y3819714D01*
X27510499Y3882418D01*
X27510499Y7112786D01*
X27530184Y7179825D01*
X27582988Y7225580D01*
X27610307Y7234403D01*
X27739938Y7260189D01*
X27739944Y7260191D01*
X27858762Y7309407D01*
X27858764Y7309408D01*
X27965700Y7380859D01*
X27965702Y7380861D01*
X27970765Y7384244D01*
X27972035Y7382341D01*
X28026958Y7405667D01*
X28041311Y7406500D01*
X28044296Y7406500D01*
X28111335Y7386815D01*
X28131977Y7370181D01*
X29179281Y6322877D01*
X29212766Y6261554D01*
X29215600Y6235196D01*
X29215600Y3719290D01*
X29195915Y3652251D01*
X29162680Y3619630D01*
X29163319Y3618823D01*
X29157651Y3614341D01*
X29043327Y3500017D01*
X28982004Y3466532D01*
X28912312Y3471516D01*
X28867964Y3500017D01*
X28754033Y3613948D01*
X28607311Y3704448D01*
X28607300Y3704453D01*
X28443652Y3758680D01*
X28342648Y3768999D01*
X28293500Y3768998D01*
X28293500Y1818999D01*
X28342638Y1819000D01*
X28342656Y1819001D01*
X28443652Y1829319D01*
X28607300Y1883546D01*
X28607311Y1883551D01*
X28754034Y1974052D01*
X28754038Y1974055D01*
X28867965Y2087982D01*
X28929288Y2121467D01*
X28998980Y2116483D01*
X29043327Y2087983D01*
X29157651Y1973659D01*
X29304481Y1883093D01*
X29304486Y1883091D01*
X29367613Y1862173D01*
X29468247Y1828826D01*
X29468248Y1828825D01*
X29569321Y1818500D01*
X29569323Y1818500D01*
X30167669Y1818500D01*
X30167687Y1818501D01*
X30268752Y1828825D01*
X30378249Y1865109D01*
X30432516Y1883092D01*
X30433261Y1883551D01*
X30550417Y1955814D01*
X30579350Y1973660D01*
X30701340Y2095650D01*
X30791908Y2242484D01*
X30846174Y2406247D01*
X30856500Y2507323D01*
X30856499Y3080676D01*
X30846174Y3181753D01*
X30791908Y3345516D01*
X30701340Y3492350D01*
X30579350Y3614340D01*
X30579346Y3614342D01*
X30573681Y3618823D01*
X30574647Y3620045D01*
X30533587Y3665683D01*
X30521400Y3719290D01*
X30521400Y6621307D01*
X30502922Y6714197D01*
X30496309Y6747444D01*
X30447092Y6866264D01*
X30411521Y6919500D01*
X30375641Y6973199D01*
X30147742Y7201097D01*
X30114259Y7262417D01*
X30119243Y7332109D01*
X30161114Y7388043D01*
X30222823Y7412134D01*
X30268753Y7416826D01*
X30335307Y7438880D01*
X30432516Y7471092D01*
X30457064Y7486233D01*
X30488129Y7505395D01*
X30579350Y7561660D01*
X30701340Y7683650D01*
X30716367Y7708013D01*
X31337001Y7708013D01*
X31347494Y7605302D01*
X31402641Y7438880D01*
X31402643Y7438875D01*
X31494684Y7289654D01*
X31618654Y7165684D01*
X31767875Y7073643D01*
X31767880Y7073641D01*
X31934302Y7018494D01*
X31934309Y7018493D01*
X32037013Y7008000D01*
X32262000Y7008000D01*
X32762000Y7008000D01*
X32986970Y7008000D01*
X32986987Y7008001D01*
X33089697Y7018494D01*
X33256119Y7073641D01*
X33256124Y7073643D01*
X33405345Y7165684D01*
X33529315Y7289654D01*
X33621356Y7438875D01*
X33621358Y7438880D01*
X33676505Y7605302D01*
X33676506Y7605309D01*
X33686999Y7708013D01*
X40481001Y7708013D01*
X40491494Y7605302D01*
X40546641Y7438880D01*
X40546643Y7438875D01*
X40638684Y7289654D01*
X40762654Y7165684D01*
X40911875Y7073643D01*
X40911880Y7073641D01*
X41078302Y7018494D01*
X41078309Y7018493D01*
X41181013Y7008000D01*
X41406000Y7008000D01*
X41906000Y7008000D01*
X42130970Y7008000D01*
X42130987Y7008001D01*
X42233697Y7018494D01*
X42400119Y7073641D01*
X42400124Y7073643D01*
X42549345Y7165684D01*
X42673315Y7289654D01*
X42765356Y7438875D01*
X42765358Y7438880D01*
X42820505Y7605302D01*
X42820506Y7605309D01*
X42830094Y7699155D01*
X46910000Y7699155D01*
X46916401Y7639627D01*
X46916403Y7639620D01*
X46966645Y7504913D01*
X46966649Y7504906D01*
X47052809Y7389812D01*
X47052812Y7389809D01*
X47167906Y7303649D01*
X47167913Y7303645D01*
X47302620Y7253403D01*
X47302627Y7253401D01*
X47362155Y7247000D01*
X48010000Y7247000D01*
X48010000Y8459500D01*
X46910000Y8459500D01*
X46910000Y7699155D01*
X42830094Y7699155D01*
X42830999Y7708013D01*
X42831000Y7708026D01*
X42831000Y8045500D01*
X41906000Y8045500D01*
X41906000Y7008000D01*
X41406000Y7008000D01*
X41406000Y8045500D01*
X40481001Y8045500D01*
X40481001Y7708013D01*
X33686999Y7708013D01*
X33687000Y7708026D01*
X33687000Y8045500D01*
X32762000Y8045500D01*
X32762000Y7008000D01*
X32262000Y7008000D01*
X32262000Y8045500D01*
X31337001Y8045500D01*
X31337001Y7708013D01*
X30716367Y7708013D01*
X30791908Y7830484D01*
X30846174Y7994247D01*
X30856500Y8095323D01*
X30856499Y8395296D01*
X30876183Y8462335D01*
X30892818Y8482977D01*
X31125021Y8715181D01*
X31186344Y8748666D01*
X31212702Y8751500D01*
X31213000Y8751500D01*
X31280039Y8731815D01*
X31325794Y8679011D01*
X31337000Y8627500D01*
X31337000Y8545500D01*
X32262000Y8545500D01*
X32262000Y9582999D01*
X32762000Y9582999D01*
X32762000Y8545500D01*
X33738361Y8545500D01*
X33738361Y8543697D01*
X33784417Y8540404D01*
X33838343Y8501141D01*
X33842680Y8495656D01*
X33966653Y8371683D01*
X34115874Y8279642D01*
X34115879Y8279640D01*
X34282301Y8224494D01*
X34385011Y8214000D01*
X35310000Y8214000D01*
X35810000Y8214000D01*
X36835000Y8214000D01*
X37335000Y8214000D01*
X38360000Y8214000D01*
X38860000Y8214000D01*
X39785095Y8214000D01*
X39786287Y8214134D01*
X39887699Y8224494D01*
X40054120Y8279640D01*
X40054125Y8279642D01*
X40203346Y8371683D01*
X40327319Y8495656D01*
X40330765Y8500014D01*
X40387786Y8540392D01*
X40429638Y8542274D01*
X40429638Y8545500D01*
X41406000Y8545500D01*
X41906000Y8545500D01*
X42830999Y8545500D01*
X42830999Y8882971D01*
X42830998Y8882986D01*
X42820505Y8985697D01*
X42765358Y9152119D01*
X42765356Y9152124D01*
X42673315Y9301345D01*
X42549345Y9425315D01*
X42400124Y9517356D01*
X42400119Y9517358D01*
X42233697Y9572505D01*
X42233690Y9572506D01*
X42130980Y9582999D01*
X41906000Y9582999D01*
X41906000Y8545500D01*
X41406000Y8545500D01*
X41406000Y9582999D01*
X41181028Y9582999D01*
X41181013Y9582998D01*
X41078302Y9572505D01*
X40911880Y9517358D01*
X40911875Y9517356D01*
X40762654Y9425315D01*
X40696680Y9359341D01*
X40635357Y9325856D01*
X40565665Y9330840D01*
X40509732Y9372712D01*
X40485315Y9438176D01*
X40484999Y9447022D01*
X40484999Y9989000D01*
X38860000Y9989000D01*
X38860000Y8214000D01*
X38360000Y8214000D01*
X38360000Y9989000D01*
X37335000Y9989000D01*
X37335000Y8214000D01*
X36835000Y8214000D01*
X36835000Y9989000D01*
X35810000Y9989000D01*
X35810000Y8214000D01*
X35310000Y8214000D01*
X35310000Y9989000D01*
X33685001Y9989000D01*
X33685001Y9445022D01*
X33665316Y9377983D01*
X33612512Y9332228D01*
X33543354Y9322284D01*
X33479798Y9351309D01*
X33473320Y9357341D01*
X33405345Y9425315D01*
X33256124Y9517356D01*
X33256119Y9517358D01*
X33089697Y9572505D01*
X33089690Y9572506D01*
X32986980Y9582999D01*
X32762000Y9582999D01*
X32262000Y9582999D01*
X32260186Y9584812D01*
X32199323Y9602684D01*
X32153568Y9655488D01*
X32143042Y9694033D01*
X32127674Y9840256D01*
X32069179Y10020284D01*
X31974533Y10184216D01*
X31847871Y10324888D01*
X31694730Y10436151D01*
X31576031Y10489000D01*
X33685000Y10489000D01*
X35310000Y10489000D01*
X35810000Y10489000D01*
X36835000Y10489000D01*
X37335000Y10489000D01*
X38360000Y10489000D01*
X38860000Y10489000D01*
X40484999Y10489000D01*
X40484999Y11664000D01*
X38860000Y11664000D01*
X38860000Y10489000D01*
X38360000Y10489000D01*
X38360000Y11664000D01*
X37335000Y11664000D01*
X37335000Y10489000D01*
X36835000Y10489000D01*
X36835000Y11664000D01*
X35810000Y11664000D01*
X35810000Y10489000D01*
X35310000Y10489000D01*
X35310000Y11664000D01*
X33685000Y11664000D01*
X33685000Y10489000D01*
X31576031Y10489000D01*
X31521803Y10513144D01*
X31336646Y10552500D01*
X31147354Y10552500D01*
X31006280Y10522514D01*
X30936613Y10527830D01*
X30880879Y10569967D01*
X30856774Y10635547D01*
X30856499Y10643804D01*
X30856499Y10954669D01*
X30856498Y10954686D01*
X30851078Y11007744D01*
X30846174Y11055753D01*
X30791908Y11219516D01*
X30701340Y11366350D01*
X30579350Y11488340D01*
X30579346Y11488342D01*
X30573681Y11492823D01*
X30574647Y11494045D01*
X30533587Y11539683D01*
X30521400Y11593290D01*
X30521400Y12164000D01*
X33685000Y12164000D01*
X35310000Y12164000D01*
X35810000Y12164000D01*
X36835000Y12164000D01*
X37335000Y12164000D01*
X38360000Y12164000D01*
X38860000Y12164000D01*
X40484999Y12164000D01*
X40484999Y12258885D01*
X40485000Y12258911D01*
X40485000Y13339000D01*
X38860000Y13339000D01*
X38860000Y12164000D01*
X38360000Y12164000D01*
X38360000Y13339000D01*
X37335000Y13339000D01*
X37335000Y12164000D01*
X36835000Y12164000D01*
X36835000Y13339000D01*
X35810000Y13339000D01*
X35810000Y12164000D01*
X35310000Y12164000D01*
X35310000Y13339000D01*
X33685000Y13339000D01*
X33685000Y12164000D01*
X30521400Y12164000D01*
X30521400Y14495307D01*
X30498237Y14611753D01*
X30496309Y14621444D01*
X30447092Y14740264D01*
X30435295Y14757919D01*
X30424627Y14773886D01*
X30424626Y14773886D01*
X30375641Y14847199D01*
X30308852Y14913988D01*
X33685000Y14913988D01*
X33685000Y13839000D01*
X35310000Y13839000D01*
X35810000Y13839000D01*
X36835000Y13839000D01*
X37335000Y13839000D01*
X38360000Y13839000D01*
X38360000Y15613999D01*
X37335000Y15613999D01*
X37335000Y13839000D01*
X36835000Y13839000D01*
X36835000Y15613999D01*
X35810000Y15613999D01*
X35810000Y13839000D01*
X35310000Y13839000D01*
X35310000Y15613999D01*
X34385026Y15613999D01*
X34385011Y15613998D01*
X34282300Y15603505D01*
X34115879Y15548359D01*
X34115874Y15548357D01*
X33966653Y15456316D01*
X33842683Y15332346D01*
X33750642Y15183125D01*
X33750640Y15183120D01*
X33695494Y15016698D01*
X33685000Y14913988D01*
X30308852Y14913988D01*
X30147742Y15075097D01*
X30114259Y15136417D01*
X30119243Y15206109D01*
X30161114Y15262043D01*
X30222823Y15286134D01*
X30268753Y15290826D01*
X30394051Y15332346D01*
X30432516Y15345092D01*
X30579350Y15435660D01*
X30701340Y15557650D01*
X30706447Y15562757D01*
X30707741Y15561462D01*
X30757068Y15596388D01*
X30797310Y15603100D01*
X32068307Y15603100D01*
X32194438Y15628189D01*
X32194444Y15628191D01*
X32313263Y15677407D01*
X32322243Y15683407D01*
X32322244Y15683408D01*
X32420200Y15748859D01*
X32420204Y15748862D01*
X33527137Y16855795D01*
X33527139Y16855798D01*
X33527141Y16855800D01*
X33598592Y16962736D01*
X33647809Y17081556D01*
X33653427Y17109801D01*
X33672900Y17207695D01*
X33672900Y17619742D01*
X33692585Y17686781D01*
X33704750Y17702714D01*
X33752529Y17755778D01*
X33752534Y17755785D01*
X33824384Y17880234D01*
X33847179Y17919716D01*
X33850135Y17928812D01*
X33870243Y17990699D01*
X33905674Y18099744D01*
X33925460Y18288000D01*
X33905674Y18476256D01*
X33847179Y18656284D01*
X33752533Y18820216D01*
X33625871Y18960888D01*
X33472730Y19072151D01*
X33299803Y19149144D01*
X33114646Y19188500D01*
X32925354Y19188500D01*
X32753497Y19151971D01*
X32740197Y19149144D01*
X32740192Y19149142D01*
X32567270Y19072151D01*
X32567265Y19072148D01*
X32457232Y18992204D01*
X32414129Y18960888D01*
X32368263Y18909948D01*
X32365050Y18906380D01*
X32305564Y18869731D01*
X32235707Y18871061D01*
X32177658Y18909948D01*
X32149848Y18974045D01*
X32148900Y18989352D01*
X32148900Y23270397D01*
X32168585Y23337436D01*
X32221389Y23383191D01*
X32290547Y23393135D01*
X32354103Y23364110D01*
X32360581Y23358078D01*
X32531794Y23186864D01*
X32531797Y23186861D01*
X32618600Y23128861D01*
X32618601Y23128862D01*
X32618604Y23128860D01*
X32638736Y23115408D01*
X32638738Y23115406D01*
X32638740Y23115406D01*
X32690127Y23094121D01*
X32751723Y23068607D01*
X32757554Y23066192D01*
X32757561Y23066189D01*
X32883693Y23041100D01*
X32883695Y23041100D01*
X33469463Y23041100D01*
X33536502Y23021415D01*
X33573978Y22981004D01*
X33575022Y22981686D01*
X33713833Y22769217D01*
X33882257Y22586261D01*
X34078493Y22433524D01*
X34297188Y22315172D01*
X34297197Y22315169D01*
X34532383Y22234429D01*
X34777665Y22193500D01*
X35026335Y22193500D01*
X35271616Y22234429D01*
X35506802Y22315169D01*
X35506811Y22315172D01*
X35725506Y22433524D01*
X35738073Y22443305D01*
X35921744Y22586262D01*
X36090164Y22769215D01*
X36090166Y22769217D01*
X36228978Y22981686D01*
X36230214Y22980878D01*
X36274684Y23025698D01*
X36334537Y23041100D01*
X39969463Y23041100D01*
X40036502Y23021415D01*
X40073978Y22981004D01*
X40075022Y22981686D01*
X40213833Y22769217D01*
X40382257Y22586261D01*
X40578493Y22433524D01*
X40797188Y22315172D01*
X40797197Y22315169D01*
X41032383Y22234429D01*
X41277665Y22193500D01*
X41526335Y22193500D01*
X41771616Y22234429D01*
X42006802Y22315169D01*
X42006811Y22315172D01*
X42225506Y22433524D01*
X42238073Y22443305D01*
X42421744Y22586262D01*
X42590164Y22769215D01*
X42590166Y22769217D01*
X42728978Y22981686D01*
X42730214Y22980878D01*
X42774684Y23025698D01*
X42834537Y23041100D01*
X43570307Y23041100D01*
X43696438Y23066189D01*
X43696442Y23066190D01*
X43696444Y23066191D01*
X43763873Y23094121D01*
X43815263Y23115407D01*
X43825259Y23122087D01*
X43835394Y23128858D01*
X43835395Y23128858D01*
X43835395Y23128859D01*
X43849399Y23138216D01*
X43922200Y23186859D01*
X43922201Y23186860D01*
X43922204Y23186862D01*
X44093419Y23358077D01*
X44154742Y23391562D01*
X44224434Y23386578D01*
X44280367Y23344706D01*
X44304784Y23279242D01*
X44305100Y23270396D01*
X44305100Y23181802D01*
X44285415Y23114763D01*
X44268781Y23094121D01*
X42830261Y21655602D01*
X41399858Y20225199D01*
X41399858Y20225198D01*
X41338790Y20133802D01*
X41328407Y20118262D01*
X41279191Y19999444D01*
X41279189Y19999438D01*
X41254100Y19873307D01*
X41254100Y18965290D01*
X41234415Y18898251D01*
X41201180Y18865630D01*
X41201819Y18864823D01*
X41196151Y18860341D01*
X41069053Y18733243D01*
X41067758Y18734537D01*
X41018432Y18699612D01*
X40978190Y18692900D01*
X40723193Y18692900D01*
X40597061Y18667810D01*
X40597056Y18667809D01*
X40478236Y18618592D01*
X40371300Y18547141D01*
X40371298Y18547139D01*
X40371295Y18547137D01*
X40371294Y18547136D01*
X39624858Y17800699D01*
X39624854Y17800694D01*
X39572047Y17721659D01*
X39562430Y17707266D01*
X39553408Y17693764D01*
X39553407Y17693762D01*
X39504191Y17574944D01*
X39504189Y17574938D01*
X39479100Y17448807D01*
X39479100Y15810692D01*
X39479099Y15810692D01*
X39488748Y15762191D01*
X39482521Y15692600D01*
X39439659Y15637422D01*
X39373769Y15614177D01*
X39367131Y15613999D01*
X38860000Y15613999D01*
X38860000Y13839000D01*
X40484999Y13839000D01*
X40484999Y14299297D01*
X40504684Y14366336D01*
X40557488Y14412091D01*
X40626646Y14422035D01*
X40690202Y14393010D01*
X40696680Y14386978D01*
X44922798Y10160860D01*
X44932401Y10154444D01*
X45016129Y10098500D01*
X45029736Y10089408D01*
X45029738Y10089406D01*
X45029740Y10089406D01*
X45148555Y10040191D01*
X45148561Y10040189D01*
X45274693Y10015100D01*
X46825728Y10015100D01*
X46892767Y9995415D01*
X46938522Y9942611D01*
X46948466Y9873453D01*
X46941910Y9847767D01*
X46916403Y9779379D01*
X46916401Y9779372D01*
X46910000Y9719844D01*
X46910000Y8959500D01*
X49610000Y8959500D01*
X49610000Y9719827D01*
X49609999Y9719844D01*
X49603598Y9779372D01*
X49603596Y9779379D01*
X49578090Y9847767D01*
X49573106Y9917459D01*
X49606591Y9978782D01*
X49667914Y10012266D01*
X49694272Y10015100D01*
X50356307Y10015100D01*
X50482438Y10040189D01*
X50482444Y10040191D01*
X50601259Y10089406D01*
X50601264Y10089408D01*
X50614871Y10098500D01*
X50708200Y10160859D01*
X50708201Y10160860D01*
X50708204Y10160862D01*
X50708205Y10160863D01*
X51448138Y10900797D01*
X51448139Y10900798D01*
X51484139Y10954676D01*
X51519593Y11007737D01*
X51528710Y11029748D01*
X51551264Y11084198D01*
X51551264Y11084199D01*
X51568809Y11126556D01*
X51584304Y11204454D01*
X51593900Y11252692D01*
X51593900Y11497578D01*
X51613585Y11564617D01*
X51652801Y11603115D01*
X51689347Y11625657D01*
X51728319Y11664629D01*
X51789642Y11698114D01*
X51859334Y11693130D01*
X51903681Y11664629D01*
X51942648Y11625661D01*
X52089481Y11535093D01*
X52089486Y11535091D01*
X52152746Y11514129D01*
X52253247Y11480826D01*
X52253248Y11480825D01*
X52354321Y11470500D01*
X52354323Y11470500D01*
X53027669Y11470500D01*
X53027687Y11470501D01*
X53128752Y11480825D01*
X53259293Y11524083D01*
X53292516Y11535092D01*
X53299960Y11539683D01*
X53386870Y11593290D01*
X53439350Y11625660D01*
X53561340Y11747650D01*
X53566447Y11752757D01*
X53567741Y11751462D01*
X53617068Y11786388D01*
X53657310Y11793100D01*
X53681190Y11793100D01*
X53748229Y11773415D01*
X53771559Y11752263D01*
X53772053Y11752757D01*
X53899148Y11625661D01*
X54045981Y11535093D01*
X54045986Y11535091D01*
X54109246Y11514129D01*
X54209747Y11480826D01*
X54209748Y11480825D01*
X54310821Y11470500D01*
X54310823Y11470500D01*
X54909169Y11470500D01*
X54909187Y11470501D01*
X55010252Y11480825D01*
X55140793Y11524083D01*
X55174016Y11535092D01*
X55181460Y11539683D01*
X55268370Y11593290D01*
X55320850Y11625660D01*
X55434819Y11739629D01*
X55496142Y11773114D01*
X55565834Y11768130D01*
X55610181Y11739629D01*
X55724149Y11625660D01*
X55729817Y11621179D01*
X55728853Y11619960D01*
X55769924Y11574295D01*
X55782100Y11520709D01*
X55782100Y10779945D01*
X55762415Y10712906D01*
X55709611Y10667151D01*
X55640453Y10657207D01*
X55585214Y10679627D01*
X55570730Y10690151D01*
X55397803Y10767144D01*
X55212646Y10806500D01*
X55023354Y10806500D01*
X54838197Y10767144D01*
X54838192Y10767142D01*
X54716378Y10712906D01*
X54665270Y10690151D01*
X54555882Y10610676D01*
X54490080Y10587198D01*
X54422026Y10603023D01*
X54410128Y10610668D01*
X54300730Y10690151D01*
X54127803Y10767144D01*
X53942646Y10806500D01*
X53753354Y10806500D01*
X53568197Y10767144D01*
X53568192Y10767142D01*
X53395270Y10690151D01*
X53395265Y10690148D01*
X53285884Y10610678D01*
X53242129Y10578888D01*
X53115467Y10438216D01*
X53072718Y10364172D01*
X53020821Y10274284D01*
X53020818Y10274277D01*
X52983967Y10160860D01*
X52962326Y10094256D01*
X52949230Y9969650D01*
X52945011Y9929509D01*
X52918426Y9864895D01*
X52909371Y9854790D01*
X52189992Y9135411D01*
X52143214Y9088633D01*
X52102587Y9048006D01*
X52033920Y8945239D01*
X52033913Y8945227D01*
X52029062Y8933513D01*
X52028946Y8933232D01*
X51986614Y8831035D01*
X51969598Y8745483D01*
X51965588Y8725324D01*
X51965587Y8725319D01*
X51962500Y8709802D01*
X51962500Y8279815D01*
X51942815Y8212776D01*
X51890011Y8167021D01*
X51820853Y8157077D01*
X51757297Y8186102D01*
X51746354Y8196838D01*
X51659871Y8292888D01*
X51506730Y8404151D01*
X51333803Y8481144D01*
X51148646Y8520500D01*
X50959354Y8520500D01*
X50782821Y8482977D01*
X50774197Y8481144D01*
X50774192Y8481142D01*
X50601270Y8404151D01*
X50601265Y8404148D01*
X50490538Y8323700D01*
X50448129Y8292888D01*
X50321467Y8152216D01*
X50321466Y8152214D01*
X50226821Y7988284D01*
X50226818Y7988277D01*
X50190900Y7877731D01*
X50168326Y7808256D01*
X50148540Y7620000D01*
X50168326Y7431744D01*
X50168326Y7431741D01*
X50168327Y7431740D01*
X50225866Y7254652D01*
X50227861Y7184811D01*
X50207203Y7142024D01*
X50196203Y7127330D01*
X50196202Y7127328D01*
X50145908Y6992482D01*
X50139501Y6932883D01*
X50139500Y6932864D01*
X50139500Y6139000D01*
X50119815Y6071961D01*
X50067011Y6026206D01*
X50015500Y6015000D01*
X49421000Y6015000D01*
X49353961Y6034685D01*
X49320000Y6073878D01*
X49320000Y6254496D01*
X49299556Y6330796D01*
X49297000Y6335223D01*
X49297000Y6391000D01*
X49316685Y6458039D01*
X49369489Y6503794D01*
X49421000Y6515000D01*
X49890000Y6515000D01*
X49890000Y7385000D01*
X49792172Y7385000D01*
X49792155Y7384999D01*
X49732627Y7378598D01*
X49732620Y7378596D01*
X49724060Y7375404D01*
X49654369Y7370420D01*
X49593046Y7403905D01*
X49559561Y7465228D01*
X49564545Y7534920D01*
X49603597Y7639623D01*
X49603598Y7639627D01*
X49609999Y7699155D01*
X49610000Y7699172D01*
X49610000Y8459500D01*
X48510000Y8459500D01*
X48510000Y7242940D01*
X48538601Y7190559D01*
X48533615Y7120868D01*
X48491743Y7064935D01*
X48486325Y7061101D01*
X48382537Y6991751D01*
X48382533Y6991748D01*
X48243251Y6852466D01*
X48243248Y6852462D01*
X48133814Y6688684D01*
X48133807Y6688671D01*
X48058430Y6506693D01*
X48058427Y6506681D01*
X48020000Y6313495D01*
X48020000Y5915000D01*
X48720000Y5915000D01*
X48720000Y5415000D01*
X48020000Y5415000D01*
X48020000Y5016504D01*
X48058427Y4823318D01*
X48058430Y4823306D01*
X48133807Y4641328D01*
X48133814Y4641315D01*
X48243248Y4477537D01*
X48243251Y4477533D01*
X48382533Y4338251D01*
X48382537Y4338248D01*
X48546315Y4228814D01*
X48546328Y4228807D01*
X48728308Y4153429D01*
X48728316Y4153427D01*
X48769999Y4145135D01*
X48770000Y4145136D01*
X48770000Y4948011D01*
X48779940Y4930795D01*
X48835795Y4874940D01*
X48904204Y4835444D01*
X48980504Y4815000D01*
X49059496Y4815000D01*
X49135796Y4835444D01*
X49204205Y4874940D01*
X49260060Y4930795D01*
X49270000Y4948011D01*
X49270000Y4145135D01*
X49311683Y4153427D01*
X49311691Y4153429D01*
X49493671Y4228807D01*
X49493684Y4228814D01*
X49657462Y4338248D01*
X49657466Y4338251D01*
X49796748Y4477533D01*
X49796751Y4477537D01*
X49906187Y4641318D01*
X49909042Y4646660D01*
X49958001Y4696508D01*
X50026138Y4711973D01*
X50091819Y4688145D01*
X50093882Y4686596D01*
X50096626Y4684490D01*
X50227863Y4608719D01*
X50374234Y4569500D01*
X50525765Y4569500D01*
X50525766Y4569500D01*
X50603812Y4590412D01*
X50672136Y4608719D01*
X50747522Y4652244D01*
X50803365Y4684485D01*
X50910515Y4791635D01*
X50986281Y4922865D01*
X51021041Y5052596D01*
X51057404Y5112253D01*
X51120251Y5142783D01*
X51140814Y5144500D01*
X51287868Y5144500D01*
X51287881Y5144501D01*
X51325249Y5148518D01*
X51394008Y5136110D01*
X51445144Y5088498D01*
X51462500Y5025228D01*
X51462500Y3950000D01*
X51442815Y3882961D01*
X51390011Y3837206D01*
X51338500Y3826000D01*
X47930957Y3826000D01*
X47863918Y3845685D01*
X47825418Y3884905D01*
X47810343Y3909345D01*
X47810340Y3909350D01*
X47688350Y4031340D01*
X47541516Y4121908D01*
X47377753Y4176174D01*
X47276677Y4186500D01*
X46703324Y4186499D01*
X46703316Y4186498D01*
X46703312Y4186498D01*
X46602247Y4176174D01*
X46438484Y4121908D01*
X46291650Y4031340D01*
X46169660Y3909350D01*
X46148226Y3874600D01*
X46089179Y3778869D01*
X46079092Y3762516D01*
X46024826Y3598753D01*
X46024826Y3598751D01*
X46024825Y3598751D01*
X46014500Y3497684D01*
X46014500Y2899330D01*
X46014501Y2899312D01*
X46024825Y2798247D01*
X46079092Y2634484D01*
X46079093Y2634481D01*
X46169659Y2487651D01*
X46283983Y2373327D01*
X46317467Y2312004D01*
X46312483Y2242312D01*
X46283982Y2197965D01*
X46170055Y2084038D01*
X46170052Y2084034D01*
X46079551Y1937311D01*
X46079546Y1937300D01*
X46025319Y1773652D01*
X46015000Y1672654D01*
X46015000Y1623500D01*
X47964999Y1623500D01*
X47978509Y1637010D01*
X47984684Y1658039D01*
X48037488Y1703794D01*
X48088999Y1715000D01*
X48720000Y1715000D01*
X48720000Y1215000D01*
X48020000Y1215000D01*
X48006489Y1201489D01*
X48000315Y1180461D01*
X47947511Y1134706D01*
X47896000Y1123500D01*
X46015001Y1123500D01*
X46015001Y1074345D01*
X46025319Y973347D01*
X46079546Y809699D01*
X46079551Y809688D01*
X46170052Y662965D01*
X46170055Y662961D01*
X46291962Y541054D01*
X46309823Y530038D01*
X46356547Y478090D01*
X46367768Y409127D01*
X46339924Y345045D01*
X46281855Y306190D01*
X46244725Y300500D01*
X38951438Y300500D01*
X38884399Y320185D01*
X38838644Y372989D01*
X38828700Y442147D01*
X38857725Y505703D01*
X38886342Y530039D01*
X38925655Y554287D01*
X39049710Y678342D01*
X39049712Y678344D01*
X39141814Y827666D01*
X39196999Y994203D01*
X39207500Y1096991D01*
X39207499Y1697008D01*
X39196999Y1799797D01*
X39176663Y1861163D01*
X39174262Y1930990D01*
X39206689Y1987848D01*
X39636021Y2417181D01*
X39697344Y2450666D01*
X39723702Y2453500D01*
X40073669Y2453500D01*
X40073687Y2453501D01*
X40174752Y2463825D01*
X40306017Y2507323D01*
X40338516Y2518092D01*
X40339261Y2518551D01*
X40404548Y2558821D01*
X40485350Y2608660D01*
X40607340Y2730650D01*
X40697908Y2877484D01*
X40740641Y3006445D01*
X40780412Y3063888D01*
X40844928Y3090711D01*
X40913704Y3078396D01*
X40964904Y3030853D01*
X40972905Y3014896D01*
X40979311Y2999429D01*
X40979319Y2999415D01*
X41078564Y2850885D01*
X41078567Y2850881D01*
X41204881Y2724567D01*
X41204885Y2724564D01*
X41353415Y2625319D01*
X41353424Y2625314D01*
X41518466Y2556952D01*
X41518472Y2556950D01*
X41693676Y2522100D01*
X41693678Y2522100D01*
X41872324Y2522100D01*
X42047527Y2556950D01*
X42047533Y2556952D01*
X42212575Y2625314D01*
X42212584Y2625319D01*
X42361114Y2724564D01*
X42361118Y2724567D01*
X42487432Y2850881D01*
X42487435Y2850885D01*
X42586680Y2999415D01*
X42586685Y2999424D01*
X42602664Y3038000D01*
X42655048Y3164467D01*
X42689900Y3339678D01*
X42689900Y4405423D01*
X42708361Y4470519D01*
X42765810Y4563659D01*
X42765812Y4563663D01*
X42765814Y4563666D01*
X42820999Y4730203D01*
X42831500Y4832991D01*
X42831499Y6008008D01*
X42820999Y6110797D01*
X42765814Y6277334D01*
X42673712Y6426656D01*
X42549656Y6550712D01*
X42400334Y6642814D01*
X42233797Y6697999D01*
X42131009Y6708500D01*
X41180992Y6708499D01*
X41180984Y6708498D01*
X41180980Y6708498D01*
X41078203Y6697999D01*
X40911666Y6642814D01*
X40762344Y6550712D01*
X40762342Y6550710D01*
X40674130Y6462498D01*
X40612807Y6429013D01*
X40543115Y6433997D01*
X40487182Y6475869D01*
X40463091Y6537578D01*
X40462784Y6540585D01*
X40454999Y6616797D01*
X40399814Y6783334D01*
X40307712Y6932656D01*
X40183656Y7056712D01*
X40034334Y7148814D01*
X39867797Y7203999D01*
X39765009Y7214500D01*
X38964992Y7214499D01*
X38964984Y7214498D01*
X38964980Y7214498D01*
X38862203Y7203999D01*
X38695666Y7148814D01*
X38546344Y7056712D01*
X38422288Y6932656D01*
X38330246Y6783430D01*
X38330245Y6783429D01*
X38278297Y6736705D01*
X38209334Y6725482D01*
X38145252Y6753326D01*
X38119167Y6783430D01*
X38027317Y6932343D01*
X37903345Y7056315D01*
X37754124Y7148356D01*
X37754119Y7148358D01*
X37587697Y7203505D01*
X37587690Y7203506D01*
X37484980Y7213999D01*
X37335000Y7213999D01*
X37335000Y5488000D01*
X37315315Y5420961D01*
X37262511Y5375206D01*
X37211000Y5364000D01*
X36959000Y5364000D01*
X36891961Y5383685D01*
X36846206Y5436489D01*
X36835000Y5488000D01*
X36835000Y7213999D01*
X36685028Y7213999D01*
X36685013Y7213998D01*
X36582302Y7203505D01*
X36415880Y7148358D01*
X36415875Y7148356D01*
X36266654Y7056315D01*
X36142684Y6932345D01*
X36050832Y6783429D01*
X35998884Y6736705D01*
X35929921Y6725482D01*
X35865839Y6753326D01*
X35839755Y6783429D01*
X35747712Y6932656D01*
X35623656Y7056712D01*
X35474334Y7148814D01*
X35307797Y7203999D01*
X35205009Y7214500D01*
X34404992Y7214499D01*
X34404984Y7214498D01*
X34404980Y7214498D01*
X34302203Y7203999D01*
X34135666Y7148814D01*
X33986344Y7056712D01*
X33862288Y6932656D01*
X33833486Y6885960D01*
X33770245Y6783429D01*
X33770186Y6783334D01*
X33716496Y6621307D01*
X33712872Y6610371D01*
X33711130Y6610948D01*
X33682179Y6557509D01*
X33620966Y6523822D01*
X33594208Y6520900D01*
X33486459Y6520900D01*
X33419420Y6540585D01*
X33409545Y6547636D01*
X33405658Y6550710D01*
X33405656Y6550712D01*
X33256334Y6642814D01*
X33089797Y6697999D01*
X32987009Y6708500D01*
X32036992Y6708499D01*
X32036984Y6708498D01*
X32036980Y6708498D01*
X31934203Y6697999D01*
X31767666Y6642814D01*
X31618344Y6550712D01*
X31494288Y6426656D01*
X31402186Y6277334D01*
X31347001Y6110797D01*
X31347001Y6110795D01*
X31347000Y6110795D01*
X31336500Y6008016D01*
X31336500Y4832998D01*
X31336501Y4832981D01*
X31347000Y4730203D01*
X31347001Y4730200D01*
X31402185Y4563668D01*
X31402187Y4563663D01*
X31494289Y4414342D01*
X31568781Y4339851D01*
X31602266Y4278528D01*
X31605100Y4252170D01*
X31605100Y1899787D01*
X31585415Y1832748D01*
X31584239Y1830952D01*
X31581316Y1826578D01*
X31581314Y1826575D01*
X31581314Y1826574D01*
X31512952Y1661533D01*
X31512950Y1661527D01*
X31478100Y1486324D01*
X31478100Y1307675D01*
X31478099Y1307675D01*
X31512950Y1132472D01*
X31512952Y1132466D01*
X31581314Y967424D01*
X31581319Y967415D01*
X31680564Y818885D01*
X31680567Y818881D01*
X31806881Y692567D01*
X31806885Y692564D01*
X31955415Y593319D01*
X31955424Y593314D01*
X32086405Y539061D01*
X32140808Y495220D01*
X32162873Y428926D01*
X32145594Y361227D01*
X32094457Y313616D01*
X32038952Y300500D01*
X5002706Y300500D01*
X4997297Y300618D01*
X4595795Y318147D01*
X4585064Y319087D01*
X4189302Y371189D01*
X4178672Y373063D01*
X3788950Y459463D01*
X3778521Y462258D01*
X3397823Y582291D01*
X3387691Y585979D01*
X3018888Y738742D01*
X3009114Y743300D01*
X2655045Y927617D01*
X2645700Y933012D01*
X2309029Y1147495D01*
X2300189Y1153685D01*
X1983503Y1396687D01*
X1975234Y1403625D01*
X1680932Y1673304D01*
X1673304Y1680932D01*
X1403625Y1975234D01*
X1396687Y1983503D01*
X1153685Y2300189D01*
X1147495Y2309029D01*
X1032105Y2490155D01*
X18210000Y2490155D01*
X18216401Y2430627D01*
X18216403Y2430620D01*
X18266645Y2295913D01*
X18266649Y2295906D01*
X18352809Y2180812D01*
X18352812Y2180809D01*
X18467906Y2094649D01*
X18467913Y2094645D01*
X18602620Y2044403D01*
X18602627Y2044401D01*
X18662155Y2038000D01*
X19460000Y2038000D01*
X19960000Y2038000D01*
X20757844Y2038000D01*
X20817372Y2044401D01*
X20817379Y2044403D01*
X20952086Y2094645D01*
X20952093Y2094649D01*
X21067187Y2180809D01*
X21067190Y2180812D01*
X21153350Y2295906D01*
X21153354Y2295913D01*
X21203596Y2430620D01*
X21203598Y2430627D01*
X21209999Y2490155D01*
X21210000Y2490172D01*
X21210000Y2507345D01*
X27056001Y2507345D01*
X27066319Y2406347D01*
X27120546Y2242699D01*
X27120551Y2242688D01*
X27211052Y2095965D01*
X27211055Y2095961D01*
X27332961Y1974055D01*
X27332965Y1974052D01*
X27479688Y1883551D01*
X27479699Y1883546D01*
X27643347Y1829319D01*
X27744345Y1819000D01*
X27793500Y1819000D01*
X27793500Y2544000D01*
X27056001Y2544000D01*
X27056001Y2507345D01*
X21210000Y2507345D01*
X21210000Y3038000D01*
X19960000Y3038000D01*
X19960000Y2038000D01*
X19460000Y2038000D01*
X19460000Y3038000D01*
X18210000Y3038000D01*
X18210000Y2490155D01*
X1032105Y2490155D01*
X933012Y2645700D01*
X927617Y2655045D01*
X743300Y3009114D01*
X738742Y3018888D01*
X585979Y3387691D01*
X582291Y3397823D01*
X462258Y3778521D01*
X459461Y3788960D01*
X373063Y4178672D01*
X371189Y4189302D01*
X319087Y4585064D01*
X318147Y4595795D01*
X300617Y4997297D01*
X300559Y5000001D01*
X3094645Y5000001D01*
X3094645Y4999998D01*
X3114039Y4728839D01*
X3114040Y4728832D01*
X3171823Y4463206D01*
X3171825Y4463199D01*
X3196076Y4398180D01*
X3266830Y4208480D01*
X3397109Y3969892D01*
X3397110Y3969891D01*
X3560028Y3752259D01*
X3560038Y3752247D01*
X3752247Y3560038D01*
X3752259Y3560028D01*
X3969891Y3397110D01*
X3969892Y3397109D01*
X4208481Y3266830D01*
X4208480Y3266830D01*
X4291244Y3235961D01*
X4463199Y3171825D01*
X4463202Y3171824D01*
X4463206Y3171823D01*
X4728832Y3114040D01*
X4728839Y3114039D01*
X4999999Y3094645D01*
X5000000Y3094645D01*
X5000001Y3094645D01*
X5271160Y3114039D01*
X5271167Y3114040D01*
X5536793Y3171823D01*
X5536794Y3171823D01*
X5536801Y3171825D01*
X5750388Y3251489D01*
X5791519Y3266830D01*
X6030107Y3397109D01*
X6030108Y3397110D01*
X6030109Y3397111D01*
X6030113Y3397113D01*
X6247742Y3560029D01*
X6247746Y3560033D01*
X6247752Y3560038D01*
X6439961Y3752247D01*
X6439966Y3752253D01*
X6439971Y3752258D01*
X6602887Y3969887D01*
X6621801Y4004525D01*
X6733169Y4208480D01*
X6733172Y4208487D01*
X6828175Y4463199D01*
X6885961Y4728840D01*
X6905355Y5000000D01*
X6905161Y5002706D01*
X6897326Y5112253D01*
X6885961Y5271160D01*
X6828175Y5536801D01*
X6733172Y5791513D01*
X6709261Y5835302D01*
X6614957Y6008008D01*
X6602887Y6030113D01*
X6439971Y6247742D01*
X6247742Y6439971D01*
X6030113Y6602887D01*
X5791518Y6733169D01*
X5791517Y6733169D01*
X5791513Y6733172D01*
X5536801Y6828175D01*
X5271160Y6885961D01*
X5018100Y6904060D01*
X5000001Y6905355D01*
X4999999Y6905355D01*
X4980605Y6903967D01*
X4728840Y6885961D01*
X4463199Y6828175D01*
X4208487Y6733172D01*
X4208484Y6733170D01*
X4208480Y6733169D01*
X3969892Y6602890D01*
X3969887Y6602887D01*
X3752258Y6439971D01*
X3752253Y6439966D01*
X3752247Y6439961D01*
X3560038Y6247752D01*
X3560033Y6247746D01*
X3560029Y6247742D01*
X3397113Y6030113D01*
X3397110Y6030109D01*
X3397110Y6030108D01*
X3397109Y6030107D01*
X3266830Y5791519D01*
X3259698Y5772396D01*
X3171825Y5536801D01*
X3171823Y5536794D01*
X3171823Y5536793D01*
X3114040Y5271167D01*
X3114039Y5271160D01*
X3094645Y5000001D01*
X300559Y5000001D01*
X300500Y5002706D01*
X300500Y29352005D01*
X3146357Y29352005D01*
X3146357Y29351994D01*
X3166890Y29104187D01*
X3166892Y29104175D01*
X3227936Y28863118D01*
X3327826Y28635393D01*
X3463833Y28427217D01*
X3632257Y28244261D01*
X3828493Y28091524D01*
X4047188Y27973172D01*
X4047197Y27973169D01*
X4282383Y27892429D01*
X4527665Y27851500D01*
X4776335Y27851500D01*
X5021616Y27892429D01*
X5256802Y27973169D01*
X5256811Y27973172D01*
X5475506Y28091524D01*
X5483760Y28097948D01*
X5671744Y28244262D01*
X5819790Y28405083D01*
X5879677Y28441074D01*
X5911020Y28445100D01*
X8392980Y28445100D01*
X8460019Y28425415D01*
X8484209Y28405083D01*
X8546991Y28336884D01*
X8632257Y28244261D01*
X8828493Y28091524D01*
X9047188Y27973172D01*
X9047197Y27973169D01*
X9282383Y27892429D01*
X9527665Y27851500D01*
X9776335Y27851500D01*
X10021616Y27892429D01*
X10256802Y27973169D01*
X10256811Y27973172D01*
X10475506Y28091524D01*
X10483760Y28097948D01*
X10671744Y28244262D01*
X10840164Y28427215D01*
X10840166Y28427217D01*
X10976173Y28635393D01*
X11076063Y28863118D01*
X11137107Y29104175D01*
X11137109Y29104187D01*
X11157643Y29351994D01*
X11157643Y29352005D01*
X11137109Y29599812D01*
X11137108Y29599815D01*
X11137108Y29599821D01*
X11076063Y29840881D01*
X10976173Y30068607D01*
X10840164Y30276785D01*
X10671744Y30459738D01*
X10475509Y30612474D01*
X10256810Y30730828D01*
X10021614Y30811571D01*
X9776335Y30852500D01*
X9527665Y30852500D01*
X9282386Y30811571D01*
X9047190Y30730828D01*
X9047188Y30730827D01*
X9012626Y30712123D01*
X8828491Y30612474D01*
X8632256Y30459738D01*
X8501359Y30317546D01*
X8484210Y30298917D01*
X8424323Y30262926D01*
X8392980Y30258900D01*
X5911020Y30258900D01*
X5843981Y30278585D01*
X5819790Y30298917D01*
X5802641Y30317546D01*
X5671744Y30459738D01*
X5475509Y30612474D01*
X5256810Y30730828D01*
X5021614Y30811571D01*
X4776335Y30852500D01*
X4527665Y30852500D01*
X4282386Y30811571D01*
X4047190Y30730828D01*
X4047188Y30730827D01*
X4012626Y30712123D01*
X3828491Y30612474D01*
X3632256Y30459738D01*
X3516318Y30333796D01*
X3463833Y30276782D01*
X3327826Y30068606D01*
X3227936Y29840881D01*
X3166892Y29599824D01*
X3166890Y29599812D01*
X3146357Y29352005D01*
X300500Y29352005D01*
X300500Y44997293D01*
X300559Y45000001D01*
X3094645Y45000001D01*
X3094645Y44999998D01*
X3114039Y44728839D01*
X3114040Y44728832D01*
X3167295Y44484023D01*
X3171825Y44463199D01*
X3213953Y44350250D01*
X3266830Y44208480D01*
X3397109Y43969892D01*
X3397110Y43969891D01*
X3560028Y43752259D01*
X3560038Y43752247D01*
X3752247Y43560038D01*
X3752259Y43560028D01*
X3969891Y43397110D01*
X3969892Y43397109D01*
X4208481Y43266830D01*
X4208480Y43266830D01*
X4335843Y43219326D01*
X4463199Y43171825D01*
X4463202Y43171824D01*
X4463206Y43171823D01*
X4728832Y43114040D01*
X4728839Y43114039D01*
X4999999Y43094645D01*
X5000000Y43094645D01*
X5000001Y43094645D01*
X5271160Y43114039D01*
X5271167Y43114040D01*
X5536793Y43171823D01*
X5536794Y43171823D01*
X5536801Y43171825D01*
X5741920Y43248330D01*
X5791519Y43266830D01*
X6030107Y43397109D01*
X6030108Y43397110D01*
X6030109Y43397111D01*
X6030113Y43397113D01*
X6247742Y43560029D01*
X6247746Y43560033D01*
X6247752Y43560038D01*
X6439961Y43752247D01*
X6439966Y43752253D01*
X6439971Y43752258D01*
X6602887Y43969887D01*
X6612696Y43987850D01*
X6733169Y44208480D01*
X6750276Y44254345D01*
X6828175Y44463199D01*
X6885961Y44728840D01*
X6903954Y44980409D01*
X6905355Y44999998D01*
X6905355Y45000001D01*
X6901239Y45057553D01*
X6885961Y45271160D01*
X6828175Y45536801D01*
X6733172Y45791513D01*
X6727940Y45801094D01*
X6602890Y46030107D01*
X6602887Y46030113D01*
X6439971Y46247742D01*
X6247742Y46439971D01*
X6030113Y46602887D01*
X5791518Y46733169D01*
X5791517Y46733169D01*
X5791513Y46733172D01*
X5536801Y46828175D01*
X5271160Y46885961D01*
X5018100Y46904060D01*
X5000001Y46905355D01*
X4999999Y46905355D01*
X4980605Y46903967D01*
X4728840Y46885961D01*
X4463199Y46828175D01*
X4208487Y46733172D01*
X4208484Y46733170D01*
X4208480Y46733169D01*
X3969892Y46602890D01*
X3969887Y46602887D01*
X3752258Y46439971D01*
X3752253Y46439966D01*
X3752247Y46439961D01*
X3560038Y46247752D01*
X3560033Y46247746D01*
X3560029Y46247742D01*
X3397113Y46030113D01*
X3397110Y46030109D01*
X3397110Y46030108D01*
X3397109Y46030107D01*
X3266830Y45791519D01*
X3266828Y45791513D01*
X3171825Y45536801D01*
X3171823Y45536794D01*
X3171823Y45536793D01*
X3114040Y45271167D01*
X3114039Y45271160D01*
X3094645Y45000001D01*
X300559Y45000001D01*
X300618Y45002702D01*
X303013Y45057553D01*
X318147Y45404202D01*
X319087Y45414937D01*
X371189Y45810693D01*
X373066Y45821339D01*
X459463Y46211048D01*
X462257Y46221473D01*
X582292Y46602177D01*
X585981Y46612312D01*
X738739Y46981101D01*
X743308Y46990899D01*
X750364Y47004452D01*
X927612Y47344944D01*
X933019Y47354310D01*
X997229Y47455100D01*
X1147488Y47690959D01*
X1153693Y47699820D01*
X1396680Y48016487D01*
X1403634Y48024774D01*
X1673294Y48319056D01*
X1680943Y48326705D01*
X1975225Y48596365D01*
X1983512Y48603319D01*
X2300179Y48846306D01*
X2309040Y48852511D01*
X2645689Y49066980D01*
X2655057Y49072388D01*
X3009100Y49256691D01*
X3018904Y49261263D01*
X3377658Y49409864D01*
X3387675Y49414013D01*
X3397837Y49417712D01*
X3778514Y49537739D01*
X3788963Y49540539D01*
X4178660Y49626933D01*
X4189314Y49628811D01*
X4585042Y49680910D01*
X4595818Y49681853D01*
X4997297Y49699382D01*
X5002706Y49699500D01*
X5047595Y49699500D01*
X45787119Y49699500D01*
X45854158Y49679815D01*
G37*
G04 #@! TD.AperFunction*
G04 #@! TA.AperFunction,Conductor*
G36*
X54394008Y5136110D02*
G01*
X54445144Y5088498D01*
X54462500Y5025228D01*
X54462500Y3522192D01*
X54486612Y3400972D01*
X54486614Y3400964D01*
X54515821Y3330454D01*
X54533916Y3286768D01*
X54533918Y3286764D01*
X54583420Y3212678D01*
X54583421Y3212679D01*
X54602590Y3183989D01*
X55075488Y2711091D01*
X55075492Y2711088D01*
X55178260Y2642420D01*
X55178273Y2642413D01*
X55292460Y2595116D01*
X55292470Y2595113D01*
X55413695Y2571000D01*
X55413697Y2571000D01*
X55537303Y2571000D01*
X56697055Y2571000D01*
X56764094Y2551315D01*
X56809849Y2498511D01*
X56819793Y2429353D01*
X56800158Y2378110D01*
X56773813Y2338682D01*
X56773807Y2338671D01*
X56698430Y2156693D01*
X56698427Y2156681D01*
X56660000Y1963495D01*
X56660000Y1715000D01*
X57360000Y1715000D01*
X57360000Y1215000D01*
X56660000Y1215000D01*
X56660000Y966504D01*
X56698427Y773318D01*
X56698430Y773306D01*
X56773807Y591328D01*
X56773814Y591315D01*
X56839246Y493391D01*
X56860124Y426714D01*
X56841640Y359333D01*
X56789661Y312643D01*
X56736144Y300500D01*
X49943856Y300500D01*
X49876817Y320185D01*
X49831062Y372989D01*
X49821118Y442147D01*
X49840754Y493391D01*
X49906185Y591315D01*
X49906192Y591328D01*
X49981569Y773306D01*
X49981572Y773318D01*
X50019999Y966504D01*
X50020000Y966508D01*
X50020000Y1215000D01*
X49320000Y1215000D01*
X49320000Y1715000D01*
X50020000Y1715000D01*
X50020000Y1963492D01*
X50019999Y1963495D01*
X49981572Y2156681D01*
X49981569Y2156693D01*
X49906192Y2338671D01*
X49906186Y2338682D01*
X49879842Y2378110D01*
X49858965Y2444787D01*
X49877450Y2512167D01*
X49929429Y2558857D01*
X49982945Y2571000D01*
X51774307Y2571000D01*
X51895527Y2595112D01*
X51895535Y2595114D01*
X51977583Y2629100D01*
X51977584Y2629100D01*
X52009726Y2642413D01*
X52009739Y2642420D01*
X52112506Y2711087D01*
X52132069Y2730650D01*
X52199911Y2798492D01*
X52577405Y3175985D01*
X52577409Y3175990D01*
X52577411Y3175992D01*
X52589383Y3193909D01*
X52589385Y3193912D01*
X52589385Y3193911D01*
X52646082Y3278765D01*
X52646084Y3278768D01*
X52671313Y3339677D01*
X52671313Y3339678D01*
X52679471Y3359374D01*
X52693386Y3392966D01*
X52717500Y3514197D01*
X52717500Y3637804D01*
X52717500Y4328500D01*
X52737185Y4395539D01*
X52789989Y4441294D01*
X52841500Y4452500D01*
X53401807Y4452500D01*
X53523027Y4476612D01*
X53523035Y4476614D01*
X53612323Y4513599D01*
X53612325Y4513600D01*
X53637229Y4523915D01*
X53637243Y4523923D01*
X53740003Y4592585D01*
X53740005Y4592586D01*
X53776045Y4628626D01*
X53827411Y4679992D01*
X54077408Y4929988D01*
X54077411Y4929992D01*
X54146079Y5032760D01*
X54146083Y5032767D01*
X54154295Y5052593D01*
X54160657Y5067952D01*
X54204496Y5122355D01*
X54270790Y5144421D01*
X54275210Y5144500D01*
X54287864Y5144500D01*
X54287881Y5144501D01*
X54325249Y5148518D01*
X54394008Y5136110D01*
G37*
G04 #@! TD.AperFunction*
G04 #@! TA.AperFunction,Conductor*
G36*
X45374539Y47790615D02*
G01*
X45420294Y47737811D01*
X45431500Y47686300D01*
X45431500Y47483441D01*
X45446157Y47353351D01*
X45446159Y47353341D01*
X45503877Y47188395D01*
X45596853Y47040423D01*
X45720423Y46916853D01*
X45868395Y46823877D01*
X46033341Y46766159D01*
X46033351Y46766157D01*
X46163441Y46751500D01*
X46578000Y46751500D01*
X46645039Y46731815D01*
X46690794Y46679011D01*
X46702000Y46627500D01*
X46702000Y46332000D01*
X47405590Y46332000D01*
X47451925Y46251745D01*
X47521745Y46181925D01*
X47607255Y46132556D01*
X47702630Y46107000D01*
X47801370Y46107000D01*
X47896745Y46132556D01*
X47982255Y46181925D01*
X48002000Y46201670D01*
X48002000Y44682000D01*
X48070530Y44682000D01*
X48200541Y44696648D01*
X48204152Y44697912D01*
X48206627Y44698038D01*
X48207327Y44698198D01*
X48207355Y44698075D01*
X48273931Y44701470D01*
X48334557Y44666737D01*
X48366780Y44604742D01*
X48369100Y44580868D01*
X48369100Y43501802D01*
X48349415Y43434763D01*
X48332781Y43414121D01*
X46990863Y42072205D01*
X46990862Y42072204D01*
X46924362Y41972678D01*
X46924358Y41972672D01*
X46919409Y41965266D01*
X46919407Y41965262D01*
X46870191Y41846444D01*
X46870189Y41846438D01*
X46845100Y41720307D01*
X46845100Y39051692D01*
X46845099Y39051692D01*
X46860943Y38972048D01*
X46860943Y38972047D01*
X46870189Y38925563D01*
X46870192Y38925551D01*
X46897365Y38859951D01*
X46904834Y38790482D01*
X46873559Y38728003D01*
X46813470Y38692351D01*
X46782804Y38688499D01*
X46032703Y38688499D01*
X45965664Y38708184D01*
X45945022Y38724818D01*
X45848219Y38821621D01*
X45814734Y38882944D01*
X45811900Y38909302D01*
X45811900Y38921868D01*
X45831585Y38988907D01*
X45870802Y39027406D01*
X45919849Y39057659D01*
X46041838Y39179648D01*
X46041840Y39179650D01*
X46132408Y39326484D01*
X46186674Y39490247D01*
X46197000Y39591323D01*
X46196999Y40164676D01*
X46186674Y40265753D01*
X46132408Y40429516D01*
X46041840Y40576350D01*
X45919850Y40698340D01*
X45773016Y40788908D01*
X45609253Y40843174D01*
X45508177Y40853500D01*
X44809824Y40853499D01*
X44809816Y40853498D01*
X44809812Y40853498D01*
X44708747Y40843174D01*
X44544984Y40788908D01*
X44398150Y40698340D01*
X44398148Y40698338D01*
X44383827Y40684017D01*
X44322504Y40650532D01*
X44252812Y40655516D01*
X44208460Y40684021D01*
X44194535Y40697947D01*
X44047811Y40788448D01*
X44047800Y40788453D01*
X43884152Y40842680D01*
X43783148Y40852999D01*
X43684000Y40852998D01*
X43684000Y38902999D01*
X43783139Y38903000D01*
X43783155Y38903001D01*
X43884152Y38913319D01*
X44047800Y38967546D01*
X44047811Y38967551D01*
X44194534Y39058052D01*
X44194538Y39058055D01*
X44208465Y39071982D01*
X44269788Y39105467D01*
X44339480Y39100483D01*
X44383825Y39071984D01*
X44398150Y39057659D01*
X44447198Y39027406D01*
X44493922Y38975457D01*
X44506100Y38921868D01*
X44506100Y38523193D01*
X44513567Y38485657D01*
X44520958Y38448501D01*
X44525878Y38423767D01*
X44531191Y38397055D01*
X44580407Y38278237D01*
X44651862Y38171295D01*
X44651863Y38171294D01*
X44909181Y37913977D01*
X44942666Y37852654D01*
X44945500Y37826296D01*
X44945500Y36440129D01*
X44945501Y36440123D01*
X44951908Y36380516D01*
X45002202Y36245671D01*
X45002206Y36245664D01*
X45088452Y36130455D01*
X45088455Y36130452D01*
X45203664Y36044206D01*
X45203671Y36044202D01*
X45338517Y35993908D01*
X45338516Y35993908D01*
X45398116Y35987501D01*
X45398119Y35987500D01*
X45398127Y35987500D01*
X45398134Y35987500D01*
X45398135Y35987500D01*
X47418870Y35987500D01*
X47418876Y35987501D01*
X47478485Y35993909D01*
X47532600Y36014092D01*
X47602292Y36019076D01*
X47663615Y35985590D01*
X47682218Y35958562D01*
X47683572Y35959344D01*
X47781466Y35789785D01*
X47908129Y35649111D01*
X48061265Y35537851D01*
X48061270Y35537848D01*
X48234192Y35460857D01*
X48234197Y35460855D01*
X48386897Y35428398D01*
X48419354Y35421500D01*
X48419355Y35421500D01*
X48608645Y35421500D01*
X48608646Y35421500D01*
X48648001Y35429865D01*
X48793802Y35460855D01*
X48793807Y35460857D01*
X48966729Y35537848D01*
X48966734Y35537851D01*
X49119870Y35649111D01*
X49119871Y35649112D01*
X49246533Y35789784D01*
X49341179Y35953716D01*
X49352157Y35987501D01*
X49362416Y36019076D01*
X49375705Y36059978D01*
X49415142Y36117653D01*
X49479500Y36144852D01*
X49548347Y36132938D01*
X49581317Y36109341D01*
X49829781Y35860878D01*
X49863266Y35799555D01*
X49866100Y35773197D01*
X49866100Y35124499D01*
X49846415Y35057460D01*
X49793611Y35011705D01*
X49742104Y35000499D01*
X48751128Y35000499D01*
X48691517Y34994091D01*
X48657332Y34981340D01*
X48587642Y34976357D01*
X48570672Y34981338D01*
X48536483Y34994091D01*
X48476873Y35000500D01*
X47481128Y35000499D01*
X47432757Y34995299D01*
X47421516Y34994091D01*
X47286671Y34943797D01*
X47286664Y34943793D01*
X47171455Y34857547D01*
X47171452Y34857544D01*
X47085206Y34742335D01*
X47085202Y34742328D01*
X47034908Y34607482D01*
X47028501Y34547883D01*
X47028500Y34547864D01*
X47028500Y32952129D01*
X47028501Y32952123D01*
X47034908Y32892516D01*
X47085202Y32757671D01*
X47085206Y32757664D01*
X47171452Y32642455D01*
X47171455Y32642452D01*
X47286664Y32556206D01*
X47286671Y32556202D01*
X47421517Y32505908D01*
X47421516Y32505908D01*
X47481116Y32499501D01*
X47481119Y32499500D01*
X47481127Y32499500D01*
X47481134Y32499500D01*
X47481135Y32499500D01*
X48476870Y32499500D01*
X48476876Y32499501D01*
X48536481Y32505908D01*
X48570669Y32518659D01*
X48640361Y32523642D01*
X48657331Y32518659D01*
X48691519Y32505908D01*
X48691517Y32505908D01*
X48751116Y32499501D01*
X48751119Y32499500D01*
X48751127Y32499500D01*
X48751134Y32499500D01*
X48751135Y32499500D01*
X49746870Y32499500D01*
X49746876Y32499501D01*
X49806481Y32505908D01*
X49840669Y32518659D01*
X49910361Y32523642D01*
X49927331Y32518659D01*
X49961519Y32505908D01*
X49961517Y32505908D01*
X50021116Y32499501D01*
X50021119Y32499500D01*
X50021127Y32499500D01*
X50798207Y32499500D01*
X50865246Y32479815D01*
X50911001Y32427011D01*
X50921527Y32362541D01*
X50910540Y32258000D01*
X50930326Y32069744D01*
X50930326Y32069741D01*
X50930327Y32069740D01*
X50988818Y31889722D01*
X50988821Y31889715D01*
X51083466Y31725785D01*
X51210129Y31585111D01*
X51363265Y31473851D01*
X51363270Y31473848D01*
X51536192Y31396857D01*
X51536197Y31396855D01*
X51688897Y31364398D01*
X51721354Y31357500D01*
X51721355Y31357500D01*
X51910645Y31357500D01*
X51910646Y31357500D01*
X51950001Y31365865D01*
X52095802Y31396855D01*
X52095807Y31396857D01*
X52268729Y31473848D01*
X52268734Y31473851D01*
X52421870Y31585111D01*
X52421871Y31585112D01*
X52548533Y31725784D01*
X52643179Y31889716D01*
X52701674Y32069744D01*
X52721460Y32258000D01*
X52710472Y32362541D01*
X52723041Y32431268D01*
X52770773Y32482292D01*
X52833793Y32499500D01*
X53556870Y32499500D01*
X53556876Y32499501D01*
X53616481Y32505908D01*
X53650669Y32518659D01*
X53720361Y32523642D01*
X53737331Y32518659D01*
X53771519Y32505908D01*
X53771517Y32505908D01*
X53831116Y32499501D01*
X53831119Y32499500D01*
X53831127Y32499500D01*
X53831134Y32499500D01*
X53831135Y32499500D01*
X54826870Y32499500D01*
X54826876Y32499501D01*
X54886481Y32505908D01*
X54920669Y32518659D01*
X54990361Y32523642D01*
X55007331Y32518659D01*
X55041519Y32505908D01*
X55041517Y32505908D01*
X55101116Y32499501D01*
X55101119Y32499500D01*
X55101127Y32499500D01*
X55101134Y32499500D01*
X55101135Y32499500D01*
X56096870Y32499500D01*
X56096876Y32499501D01*
X56156481Y32505908D01*
X56190669Y32518659D01*
X56260361Y32523642D01*
X56277331Y32518659D01*
X56311519Y32505908D01*
X56311517Y32505908D01*
X56371116Y32499501D01*
X56371119Y32499500D01*
X56371127Y32499500D01*
X56371134Y32499500D01*
X56371135Y32499500D01*
X57366870Y32499500D01*
X57366876Y32499501D01*
X57426481Y32505908D01*
X57460669Y32518659D01*
X57530361Y32523642D01*
X57547331Y32518659D01*
X57581519Y32505908D01*
X57581517Y32505908D01*
X57641116Y32499501D01*
X57641119Y32499500D01*
X57641127Y32499500D01*
X57641134Y32499500D01*
X57641135Y32499500D01*
X58636870Y32499500D01*
X58636876Y32499501D01*
X58696481Y32505908D01*
X58730669Y32518659D01*
X58800361Y32523642D01*
X58817331Y32518659D01*
X58851519Y32505908D01*
X58851517Y32505908D01*
X58911116Y32499501D01*
X58911119Y32499500D01*
X58911127Y32499500D01*
X58911134Y32499500D01*
X58911135Y32499500D01*
X59906870Y32499500D01*
X59906876Y32499501D01*
X59966481Y32505908D01*
X60000669Y32518659D01*
X60070361Y32523642D01*
X60087331Y32518659D01*
X60121519Y32505908D01*
X60121517Y32505908D01*
X60181116Y32499501D01*
X60181119Y32499500D01*
X60181127Y32499500D01*
X60257484Y32499500D01*
X60324523Y32479815D01*
X60370278Y32427011D01*
X60380222Y32357853D01*
X60375415Y32337182D01*
X60349687Y32257999D01*
X60328326Y32192256D01*
X60308540Y32004000D01*
X60328326Y31815744D01*
X60328326Y31815741D01*
X60328327Y31815740D01*
X60386818Y31635722D01*
X60386821Y31635715D01*
X60481466Y31471785D01*
X60608129Y31331111D01*
X60761265Y31219851D01*
X60761270Y31219848D01*
X60934192Y31142857D01*
X60934197Y31142855D01*
X61064069Y31115251D01*
X61119354Y31103500D01*
X61119355Y31103500D01*
X61308647Y31103500D01*
X61455280Y31134667D01*
X61524947Y31129351D01*
X61580680Y31087213D01*
X61598991Y31051696D01*
X61656819Y30873719D01*
X61656821Y30873715D01*
X61751466Y30709785D01*
X61878129Y30569111D01*
X62031265Y30457851D01*
X62031270Y30457848D01*
X62204192Y30380857D01*
X62204197Y30380855D01*
X62356897Y30348398D01*
X62389354Y30341500D01*
X62389355Y30341500D01*
X62578645Y30341500D01*
X62578646Y30341500D01*
X62624060Y30351153D01*
X62763802Y30380855D01*
X62763807Y30380857D01*
X62936729Y30457848D01*
X62936734Y30457851D01*
X63089870Y30569111D01*
X63128915Y30612475D01*
X63216533Y30709784D01*
X63311179Y30873716D01*
X63369674Y31053744D01*
X63382770Y31178351D01*
X63409355Y31242964D01*
X63418410Y31253069D01*
X63726139Y31560798D01*
X63797592Y31667736D01*
X63821636Y31725784D01*
X63846809Y31786556D01*
X63854243Y31823930D01*
X63867329Y31889716D01*
X63871900Y31912692D01*
X63871900Y32376000D01*
X63891585Y32443039D01*
X63944389Y32488794D01*
X63995900Y32500000D01*
X64239000Y32500000D01*
X64739000Y32500000D01*
X64986844Y32500000D01*
X65046372Y32506401D01*
X65046379Y32506403D01*
X65181086Y32556645D01*
X65181093Y32556649D01*
X65296187Y32642809D01*
X65296190Y32642812D01*
X65382350Y32757906D01*
X65382354Y32757913D01*
X65432596Y32892620D01*
X65432598Y32892627D01*
X65438999Y32952155D01*
X65439000Y32952172D01*
X65439000Y33500000D01*
X64739000Y33500000D01*
X64739000Y32500000D01*
X64239000Y32500000D01*
X64239000Y33876000D01*
X64258685Y33943039D01*
X64311489Y33988794D01*
X64363000Y34000000D01*
X65439000Y34000000D01*
X65439000Y34494129D01*
X65458685Y34561168D01*
X65511489Y34606923D01*
X65523996Y34611835D01*
X65637800Y34649546D01*
X65637811Y34649551D01*
X65784534Y34740052D01*
X65784538Y34740055D01*
X65827319Y34782836D01*
X65888642Y34816321D01*
X65958334Y34811337D01*
X66014267Y34769465D01*
X66038684Y34704001D01*
X66039000Y34695155D01*
X66039000Y6714197D01*
X66019315Y6647158D01*
X65974418Y6605361D01*
X65969887Y6602887D01*
X65752258Y6439971D01*
X65752253Y6439966D01*
X65752247Y6439961D01*
X65560038Y6247752D01*
X65560033Y6247746D01*
X65560029Y6247742D01*
X65397113Y6030113D01*
X65397110Y6030109D01*
X65397110Y6030108D01*
X65397109Y6030107D01*
X65266830Y5791519D01*
X65259698Y5772396D01*
X65171825Y5536801D01*
X65171823Y5536794D01*
X65171823Y5536793D01*
X65114040Y5271167D01*
X65114039Y5271160D01*
X65094645Y5000001D01*
X65094645Y4999998D01*
X65114039Y4728839D01*
X65114040Y4728832D01*
X65171823Y4463206D01*
X65171825Y4463199D01*
X65196076Y4398180D01*
X65266830Y4208480D01*
X65397109Y3969892D01*
X65397110Y3969891D01*
X65560028Y3752259D01*
X65560038Y3752247D01*
X65752247Y3560038D01*
X65752259Y3560028D01*
X65969889Y3397111D01*
X65974432Y3394631D01*
X66023835Y3345224D01*
X66039000Y3285802D01*
X66039000Y1000000D01*
X68977254Y1000000D01*
X69044293Y980315D01*
X69090048Y927511D01*
X69099992Y858353D01*
X69070967Y794797D01*
X69034513Y766011D01*
X68990885Y743300D01*
X68981102Y738739D01*
X68612315Y585982D01*
X68602168Y582289D01*
X68225429Y463504D01*
X68221487Y462261D01*
X68211043Y459462D01*
X67821331Y373064D01*
X67810693Y371189D01*
X67414937Y319087D01*
X67404202Y318147D01*
X67002703Y300618D01*
X66997294Y300500D01*
X64279903Y300500D01*
X64212864Y320185D01*
X64167109Y372989D01*
X64157165Y442147D01*
X64186190Y505703D01*
X64240899Y542206D01*
X64305300Y563546D01*
X64305311Y563551D01*
X64452034Y654052D01*
X64452038Y654055D01*
X64573944Y775961D01*
X64573947Y775965D01*
X64664448Y922688D01*
X64664453Y922699D01*
X64718680Y1086347D01*
X64728999Y1187345D01*
X64729000Y1187358D01*
X64729000Y1274000D01*
X63628000Y1274000D01*
X63560961Y1293685D01*
X63515206Y1346489D01*
X63504000Y1398000D01*
X63504000Y1650000D01*
X63523685Y1717039D01*
X63576489Y1762794D01*
X63628000Y1774000D01*
X64728999Y1774000D01*
X64728999Y1860639D01*
X64728998Y1860654D01*
X64718680Y1961652D01*
X64664453Y2125300D01*
X64664448Y2125311D01*
X64573947Y2272034D01*
X64573945Y2272037D01*
X64535018Y2310964D01*
X64501532Y2372287D01*
X64506516Y2441978D01*
X64535017Y2486327D01*
X64574338Y2525648D01*
X64574340Y2525650D01*
X64664908Y2672484D01*
X64719174Y2836247D01*
X64729500Y2937323D01*
X64729499Y3610676D01*
X64726490Y3640128D01*
X64719174Y3711752D01*
X64717874Y3715676D01*
X64664908Y3875516D01*
X64574340Y4022350D01*
X64452350Y4144340D01*
X64452349Y4144340D01*
X64447243Y4149447D01*
X64448539Y4150743D01*
X64413618Y4200049D01*
X64406900Y4240309D01*
X64406900Y4254690D01*
X64426585Y4321729D01*
X64447736Y4345059D01*
X64447243Y4345553D01*
X64574338Y4472648D01*
X64574340Y4472650D01*
X64664908Y4619484D01*
X64719174Y4783247D01*
X64729500Y4884323D01*
X64729499Y5482676D01*
X64719174Y5583753D01*
X64664908Y5747516D01*
X64574340Y5894350D01*
X64460371Y6008319D01*
X64426886Y6069642D01*
X64431870Y6139334D01*
X64460371Y6183681D01*
X64574338Y6297648D01*
X64574340Y6297650D01*
X64664908Y6444484D01*
X64719174Y6608247D01*
X64729500Y6709323D01*
X64729499Y7307676D01*
X64719174Y7408753D01*
X64664908Y7572516D01*
X64574340Y7719350D01*
X64452350Y7841340D01*
X64452349Y7841340D01*
X64447243Y7846447D01*
X64448539Y7847743D01*
X64413618Y7897049D01*
X64406900Y7937309D01*
X64406900Y12256307D01*
X64381810Y12382438D01*
X64381809Y12382444D01*
X64332592Y12501264D01*
X64325723Y12511544D01*
X64261140Y12608200D01*
X64180408Y12688931D01*
X64146925Y12750252D01*
X64144770Y12763649D01*
X64131674Y12888256D01*
X64073179Y13068284D01*
X63978533Y13232216D01*
X63851871Y13372888D01*
X63698730Y13484151D01*
X63525803Y13561144D01*
X63340646Y13600500D01*
X63151354Y13600500D01*
X63013037Y13571100D01*
X62966197Y13561144D01*
X62966192Y13561142D01*
X62793270Y13484151D01*
X62793265Y13484148D01*
X62682431Y13403622D01*
X62640129Y13372888D01*
X62513467Y13232216D01*
X62513466Y13232214D01*
X62418821Y13068284D01*
X62418818Y13068277D01*
X62362292Y12894309D01*
X62360326Y12888256D01*
X62340540Y12700000D01*
X62360326Y12511744D01*
X62360326Y12511741D01*
X62360327Y12511740D01*
X62418818Y12331722D01*
X62418821Y12331715D01*
X62513466Y12167785D01*
X62640129Y12027111D01*
X62793265Y11915851D01*
X62793270Y11915848D01*
X62966192Y11838857D01*
X62966196Y11838856D01*
X63002882Y11831058D01*
X63064364Y11797865D01*
X63098140Y11736702D01*
X63101100Y11709768D01*
X63101100Y9346813D01*
X63081415Y9279774D01*
X63028611Y9234019D01*
X62959453Y9224075D01*
X62895897Y9253100D01*
X62889419Y9259132D01*
X62808118Y9340432D01*
X62808115Y9340435D01*
X62659578Y9439684D01*
X62494533Y9508048D01*
X62319323Y9542898D01*
X62319322Y9542899D01*
X62319321Y9542899D01*
X62140678Y9542899D01*
X62140677Y9542899D01*
X62140673Y9542898D01*
X61965467Y9508048D01*
X61880591Y9472891D01*
X61800424Y9439685D01*
X61800415Y9439680D01*
X61651885Y9340435D01*
X61651881Y9340432D01*
X61393247Y9081797D01*
X61143885Y8832435D01*
X61062950Y8751500D01*
X61017563Y8706113D01*
X60918319Y8557584D01*
X60918314Y8557575D01*
X60849952Y8392533D01*
X60849950Y8392527D01*
X60815100Y8217324D01*
X60815100Y5631761D01*
X60795415Y5564722D01*
X60742611Y5518967D01*
X60673453Y5509023D01*
X60609897Y5538048D01*
X60603432Y5544067D01*
X58350679Y7796819D01*
X58317195Y7858142D01*
X58322179Y7927834D01*
X58364051Y7983767D01*
X58429515Y8008184D01*
X58438361Y8008500D01*
X59255941Y8008500D01*
X59377161Y8032612D01*
X59377169Y8032614D01*
X59474029Y8072735D01*
X59491360Y8079914D01*
X59491367Y8079917D01*
X59491372Y8079920D01*
X59491377Y8079923D01*
X59594137Y8148585D01*
X59594139Y8148586D01*
X59631655Y8186102D01*
X59681545Y8235992D01*
X60431408Y8985854D01*
X60431411Y8985858D01*
X60447206Y9009497D01*
X60447208Y9009499D01*
X60447208Y9009500D01*
X60500081Y9088630D01*
X60500082Y9088632D01*
X60500083Y9088633D01*
X60533047Y9168216D01*
X60547386Y9202832D01*
X60571500Y9324063D01*
X60571500Y9447669D01*
X60571500Y10484252D01*
X60591185Y10551291D01*
X60630401Y10589789D01*
X60642346Y10597157D01*
X60642350Y10597160D01*
X60764338Y10719148D01*
X60764339Y10719149D01*
X60764340Y10719150D01*
X60854908Y10865984D01*
X60909174Y11029747D01*
X60919500Y11130823D01*
X60919499Y11729176D01*
X60917222Y11751462D01*
X60909174Y11830252D01*
X60898017Y11863921D01*
X60854908Y11994016D01*
X60764340Y12140850D01*
X60650371Y12254819D01*
X60616886Y12316142D01*
X60621870Y12385834D01*
X60650371Y12430181D01*
X60764338Y12544148D01*
X60764340Y12544150D01*
X60854908Y12690984D01*
X60909174Y12854747D01*
X60919500Y12955823D01*
X60919499Y13291718D01*
X60939183Y13358757D01*
X60955818Y13379399D01*
X61166411Y13589992D01*
X61173429Y13600496D01*
X61173432Y13600500D01*
X61235079Y13692761D01*
X61235083Y13692767D01*
X61256254Y13743878D01*
X61282386Y13806965D01*
X61306500Y13928197D01*
X61306500Y14051803D01*
X61306500Y14877003D01*
X61326185Y14944042D01*
X61378989Y14989797D01*
X61443750Y15000293D01*
X61447948Y14999841D01*
X61451127Y14999500D01*
X61451128Y14999500D01*
X62446870Y14999500D01*
X62446876Y14999501D01*
X62506481Y15005908D01*
X62540669Y15018659D01*
X62610361Y15023642D01*
X62627331Y15018659D01*
X62661519Y15005908D01*
X62661517Y15005908D01*
X62721116Y14999501D01*
X62721119Y14999500D01*
X62721127Y14999500D01*
X62721134Y14999500D01*
X62721135Y14999500D01*
X63716870Y14999500D01*
X63716876Y14999501D01*
X63776483Y15005908D01*
X63811381Y15018925D01*
X63881072Y15023909D01*
X63898047Y15018925D01*
X63931619Y15006403D01*
X63931627Y15006401D01*
X63991155Y15000000D01*
X64239000Y15000000D01*
X64739000Y15000000D01*
X64986844Y15000000D01*
X65046372Y15006401D01*
X65046379Y15006403D01*
X65181086Y15056645D01*
X65181093Y15056649D01*
X65296187Y15142809D01*
X65296190Y15142812D01*
X65382350Y15257906D01*
X65382354Y15257913D01*
X65432596Y15392620D01*
X65432598Y15392627D01*
X65438999Y15452155D01*
X65439000Y15452172D01*
X65439000Y16000000D01*
X64739000Y16000000D01*
X64739000Y15000000D01*
X64239000Y15000000D01*
X64239000Y16500000D01*
X64739000Y16500000D01*
X65439000Y16500000D01*
X65439000Y17047827D01*
X65438999Y17047844D01*
X65432598Y17107372D01*
X65432596Y17107379D01*
X65382354Y17242086D01*
X65382350Y17242093D01*
X65296190Y17357187D01*
X65296187Y17357190D01*
X65181093Y17443350D01*
X65181086Y17443354D01*
X65046379Y17493596D01*
X65046372Y17493598D01*
X64986844Y17499999D01*
X64986828Y17500000D01*
X64739000Y17500000D01*
X64739000Y16500000D01*
X64239000Y16500000D01*
X64239000Y17500000D01*
X63991172Y17500000D01*
X63991155Y17499999D01*
X63931622Y17493597D01*
X63931620Y17493597D01*
X63898048Y17481075D01*
X63828356Y17476089D01*
X63811390Y17481071D01*
X63776483Y17494091D01*
X63716873Y17500500D01*
X62721128Y17500499D01*
X62661517Y17494091D01*
X62627332Y17481340D01*
X62557642Y17476357D01*
X62540672Y17481338D01*
X62506483Y17494091D01*
X62446873Y17500500D01*
X61451128Y17500499D01*
X61391517Y17494091D01*
X61357332Y17481340D01*
X61287642Y17476357D01*
X61270672Y17481338D01*
X61236483Y17494091D01*
X61176873Y17500500D01*
X60181128Y17500499D01*
X60121517Y17494091D01*
X60087332Y17481340D01*
X60017642Y17476357D01*
X60000672Y17481338D01*
X59966483Y17494091D01*
X59906873Y17500500D01*
X58966699Y17500499D01*
X58899661Y17520183D01*
X58853906Y17572987D01*
X58842700Y17624499D01*
X58842700Y21178312D01*
X58838883Y21197494D01*
X58838882Y21197500D01*
X58815657Y21314262D01*
X58762611Y21442327D01*
X58737471Y21479952D01*
X58685600Y21557583D01*
X58587583Y21655600D01*
X58587581Y21655601D01*
X58580515Y21662667D01*
X58580511Y21662670D01*
X58075970Y22167210D01*
X58042487Y22228531D01*
X58040332Y22241931D01*
X58040197Y22243216D01*
X58035674Y22286256D01*
X57977179Y22466284D01*
X57882533Y22630216D01*
X57755871Y22770888D01*
X57639162Y22855682D01*
X57596496Y22911012D01*
X57590517Y22980625D01*
X57623123Y23042420D01*
X57683961Y23076777D01*
X57712047Y23080000D01*
X59296844Y23080000D01*
X59356372Y23086401D01*
X59356379Y23086403D01*
X59491086Y23136645D01*
X59491093Y23136649D01*
X59606187Y23222809D01*
X59606190Y23222812D01*
X59692350Y23337906D01*
X59692354Y23337913D01*
X59742596Y23472620D01*
X59742598Y23472627D01*
X59748999Y23532155D01*
X59749000Y23532172D01*
X59749000Y25430000D01*
X58924000Y25430000D01*
X58924000Y25021052D01*
X58939872Y25005181D01*
X58973357Y24943858D01*
X58968373Y24874166D01*
X58939874Y24829820D01*
X58924000Y24813945D01*
X58924000Y24029000D01*
X58904315Y23961961D01*
X58851511Y23916206D01*
X58800000Y23905000D01*
X58015054Y23905000D01*
X58015052Y23904999D01*
X57999181Y23889128D01*
X57937858Y23855643D01*
X57868166Y23860627D01*
X57823819Y23889128D01*
X57807947Y23904999D01*
X57807946Y23905000D01*
X56490054Y23905000D01*
X56490052Y23904999D01*
X56474181Y23889128D01*
X56412858Y23855643D01*
X56343166Y23860627D01*
X56298819Y23889128D01*
X56282947Y23904999D01*
X56282946Y23905000D01*
X55498000Y23905000D01*
X55430961Y23924685D01*
X55385206Y23977489D01*
X55374000Y24029000D01*
X55374000Y24174891D01*
X56286500Y24174891D01*
X56286500Y24135109D01*
X56301724Y24098355D01*
X56329855Y24070224D01*
X56366609Y24055000D01*
X56406391Y24055000D01*
X56443145Y24070224D01*
X56471276Y24098355D01*
X56486500Y24135109D01*
X56486500Y24174891D01*
X57811500Y24174891D01*
X57811500Y24135109D01*
X57826724Y24098355D01*
X57854855Y24070224D01*
X57891609Y24055000D01*
X57931391Y24055000D01*
X57968145Y24070224D01*
X57996276Y24098355D01*
X58011500Y24135109D01*
X58011500Y24174891D01*
X57996276Y24211645D01*
X57968145Y24239776D01*
X57931391Y24255000D01*
X57891609Y24255000D01*
X57854855Y24239776D01*
X57826724Y24211645D01*
X57811500Y24174891D01*
X56486500Y24174891D01*
X56471276Y24211645D01*
X56443145Y24239776D01*
X56406391Y24255000D01*
X56366609Y24255000D01*
X56329855Y24239776D01*
X56301724Y24211645D01*
X56286500Y24174891D01*
X55374000Y24174891D01*
X55374000Y24813945D01*
X55358126Y24829820D01*
X55324642Y24891144D01*
X55327951Y24937391D01*
X55524000Y24937391D01*
X55524000Y24897609D01*
X55539224Y24860855D01*
X55567355Y24832724D01*
X55604109Y24817500D01*
X55643891Y24817500D01*
X55680645Y24832724D01*
X55708776Y24860855D01*
X55724000Y24897609D01*
X55724000Y24917499D01*
X55977553Y24917499D01*
X56014962Y24880092D01*
X56014964Y24880090D01*
X56386499Y24508553D01*
X56386501Y24508553D01*
X56758037Y24880091D01*
X56795446Y24917500D01*
X56775555Y24937391D01*
X57049000Y24937391D01*
X57049000Y24897609D01*
X57064224Y24860855D01*
X57092355Y24832724D01*
X57129109Y24817500D01*
X57168891Y24817500D01*
X57205645Y24832724D01*
X57233776Y24860855D01*
X57249000Y24897609D01*
X57249000Y24917499D01*
X57502553Y24917499D01*
X57539962Y24880092D01*
X57539964Y24880090D01*
X57911499Y24508553D01*
X57911501Y24508553D01*
X58283037Y24880091D01*
X58320446Y24917500D01*
X58300555Y24937391D01*
X58574000Y24937391D01*
X58574000Y24897609D01*
X58589224Y24860855D01*
X58617355Y24832724D01*
X58654109Y24817500D01*
X58693891Y24817500D01*
X58730645Y24832724D01*
X58758776Y24860855D01*
X58774000Y24897609D01*
X58774000Y24937391D01*
X58758776Y24974145D01*
X58730645Y25002276D01*
X58693891Y25017500D01*
X58654109Y25017500D01*
X58617355Y25002276D01*
X58589224Y24974145D01*
X58574000Y24937391D01*
X58300555Y24937391D01*
X57911500Y25326446D01*
X57502553Y24917499D01*
X57249000Y24917499D01*
X57249000Y24937391D01*
X57233776Y24974145D01*
X57205645Y25002276D01*
X57168891Y25017500D01*
X57129109Y25017500D01*
X57092355Y25002276D01*
X57064224Y24974145D01*
X57049000Y24937391D01*
X56775555Y24937391D01*
X56386500Y25326446D01*
X55977553Y24917499D01*
X55724000Y24917499D01*
X55724000Y24937391D01*
X55708776Y24974145D01*
X55680645Y25002276D01*
X55643891Y25017500D01*
X55604109Y25017500D01*
X55567355Y25002276D01*
X55539224Y24974145D01*
X55524000Y24937391D01*
X55327951Y24937391D01*
X55329628Y24960835D01*
X55358128Y25005181D01*
X55374000Y25021053D01*
X55374000Y25699891D01*
X56286500Y25699891D01*
X56286500Y25660109D01*
X56301724Y25623355D01*
X56329855Y25595224D01*
X56366609Y25580000D01*
X56406391Y25580000D01*
X56443145Y25595224D01*
X56471276Y25623355D01*
X56486500Y25660109D01*
X56486500Y25699891D01*
X57811500Y25699891D01*
X57811500Y25660109D01*
X57826724Y25623355D01*
X57854855Y25595224D01*
X57891609Y25580000D01*
X57931391Y25580000D01*
X57968145Y25595224D01*
X57996276Y25623355D01*
X58011500Y25660109D01*
X58011500Y25699891D01*
X57996276Y25736645D01*
X57968145Y25764776D01*
X57931391Y25780000D01*
X57891609Y25780000D01*
X57854855Y25764776D01*
X57826724Y25736645D01*
X57811500Y25699891D01*
X56486500Y25699891D01*
X56471276Y25736645D01*
X56443145Y25764776D01*
X56406391Y25780000D01*
X56366609Y25780000D01*
X56329855Y25764776D01*
X56301724Y25736645D01*
X56286500Y25699891D01*
X55374000Y25699891D01*
X55374000Y26338945D01*
X55358126Y26354820D01*
X55324642Y26416144D01*
X55327951Y26462391D01*
X55524000Y26462391D01*
X55524000Y26422609D01*
X55539224Y26385855D01*
X55567355Y26357724D01*
X55604109Y26342500D01*
X55643891Y26342500D01*
X55680645Y26357724D01*
X55708776Y26385855D01*
X55724000Y26422609D01*
X55724000Y26442500D01*
X55977553Y26442500D01*
X56017927Y26402128D01*
X56017928Y26402126D01*
X56386499Y26033553D01*
X56386501Y26033553D01*
X56755073Y26402127D01*
X56795446Y26442500D01*
X56775555Y26462391D01*
X57049000Y26462391D01*
X57049000Y26422609D01*
X57064224Y26385855D01*
X57092355Y26357724D01*
X57129109Y26342500D01*
X57168891Y26342500D01*
X57205645Y26357724D01*
X57233776Y26385855D01*
X57249000Y26422609D01*
X57249000Y26442500D01*
X57502553Y26442500D01*
X57542927Y26402128D01*
X57542928Y26402126D01*
X57911499Y26033553D01*
X57911501Y26033553D01*
X58280073Y26402127D01*
X58320446Y26442500D01*
X58300555Y26462391D01*
X58574000Y26462391D01*
X58574000Y26422609D01*
X58589224Y26385855D01*
X58617355Y26357724D01*
X58654109Y26342500D01*
X58693891Y26342500D01*
X58730645Y26357724D01*
X58758776Y26385855D01*
X58774000Y26422609D01*
X58774000Y26462391D01*
X58758776Y26499145D01*
X58730645Y26527276D01*
X58693891Y26542500D01*
X58654109Y26542500D01*
X58617355Y26527276D01*
X58589224Y26499145D01*
X58574000Y26462391D01*
X58300555Y26462391D01*
X57911500Y26851446D01*
X57877415Y26817361D01*
X57502553Y26442500D01*
X57249000Y26442500D01*
X57249000Y26462391D01*
X57233776Y26499145D01*
X57205645Y26527276D01*
X57168891Y26542500D01*
X57129109Y26542500D01*
X57092355Y26527276D01*
X57064224Y26499145D01*
X57049000Y26462391D01*
X56775555Y26462391D01*
X56386500Y26851446D01*
X56352415Y26817361D01*
X55977553Y26442500D01*
X55724000Y26442500D01*
X55724000Y26462391D01*
X55708776Y26499145D01*
X55680645Y26527276D01*
X55643891Y26542500D01*
X55604109Y26542500D01*
X55567355Y26527276D01*
X55539224Y26499145D01*
X55524000Y26462391D01*
X55327951Y26462391D01*
X55329628Y26485835D01*
X55358128Y26530181D01*
X55374000Y26546053D01*
X55374000Y27224891D01*
X56286500Y27224891D01*
X56286500Y27185109D01*
X56301724Y27148355D01*
X56329855Y27120224D01*
X56366609Y27105000D01*
X56406391Y27105000D01*
X56443145Y27120224D01*
X56471276Y27148355D01*
X56486500Y27185109D01*
X56486500Y27224891D01*
X57811500Y27224891D01*
X57811500Y27185109D01*
X57826724Y27148355D01*
X57854855Y27120224D01*
X57891609Y27105000D01*
X57931391Y27105000D01*
X57968145Y27120224D01*
X57996276Y27148355D01*
X58011500Y27185109D01*
X58011500Y27224891D01*
X57996276Y27261645D01*
X57968145Y27289776D01*
X57931391Y27305000D01*
X57891609Y27305000D01*
X57854855Y27289776D01*
X57826724Y27261645D01*
X57811500Y27224891D01*
X56486500Y27224891D01*
X56471276Y27261645D01*
X56443145Y27289776D01*
X56406391Y27305000D01*
X56366609Y27305000D01*
X56329855Y27289776D01*
X56301724Y27261645D01*
X56286500Y27224891D01*
X55374000Y27224891D01*
X55374000Y27331000D01*
X55393685Y27398039D01*
X55446489Y27443794D01*
X55498000Y27455000D01*
X56282947Y27455000D01*
X56298819Y27470872D01*
X56360142Y27504357D01*
X56429834Y27499373D01*
X56474181Y27470872D01*
X56490052Y27455000D01*
X56899000Y27455000D01*
X57399000Y27455000D01*
X57807947Y27455000D01*
X57823819Y27470872D01*
X57885142Y27504357D01*
X57954834Y27499373D01*
X57999181Y27470872D01*
X58015052Y27455000D01*
X58800000Y27455000D01*
X58867039Y27435315D01*
X58912794Y27382511D01*
X58924000Y27331000D01*
X58924000Y26546052D01*
X58939872Y26530181D01*
X58973357Y26468858D01*
X58968373Y26399166D01*
X58939874Y26354820D01*
X58924000Y26338945D01*
X58924000Y25930000D01*
X59749000Y25930000D01*
X59749000Y27827827D01*
X59748999Y27827844D01*
X59742598Y27887372D01*
X59742596Y27887379D01*
X59692354Y28022086D01*
X59692350Y28022093D01*
X59606190Y28137187D01*
X59606187Y28137190D01*
X59491093Y28223350D01*
X59491086Y28223354D01*
X59356379Y28273596D01*
X59356372Y28273598D01*
X59296844Y28279999D01*
X59296828Y28280000D01*
X57399000Y28280000D01*
X57399000Y27455000D01*
X56899000Y27455000D01*
X56899000Y28280000D01*
X55001172Y28280000D01*
X55001165Y28279999D01*
X54984135Y28278168D01*
X54915375Y28290571D01*
X54867772Y28332567D01*
X54829512Y28389828D01*
X54297826Y28921513D01*
X54190890Y28992965D01*
X54121287Y29021795D01*
X54072071Y29042181D01*
X54030792Y29050391D01*
X53945934Y29067272D01*
X53945932Y29067272D01*
X49432067Y29067272D01*
X49432065Y29067272D01*
X49305933Y29042182D01*
X49305928Y29042181D01*
X49187110Y28992965D01*
X49187108Y28992964D01*
X49080170Y28921511D01*
X48527478Y28368819D01*
X48466155Y28335334D01*
X48439797Y28332500D01*
X48419354Y28332500D01*
X48234197Y28293144D01*
X48153932Y28257407D01*
X48084686Y28248122D01*
X48021409Y28277750D01*
X47984195Y28336884D01*
X47979499Y28370687D01*
X47979499Y28667870D01*
X47979499Y28667873D01*
X47973091Y28727483D01*
X47960340Y28761667D01*
X47955357Y28831358D01*
X47960340Y28848331D01*
X47973091Y28882517D01*
X47979500Y28942127D01*
X47979499Y29937872D01*
X47973091Y29997483D01*
X47960074Y30032381D01*
X47955089Y30102069D01*
X47960075Y30119050D01*
X47972598Y30152623D01*
X47978999Y30212155D01*
X47979000Y30212172D01*
X47979000Y30460000D01*
X45479000Y30460000D01*
X45479000Y30212155D01*
X45485401Y30152627D01*
X45485403Y30152619D01*
X45497925Y30119047D01*
X45502909Y30049355D01*
X45497925Y30032381D01*
X45484908Y29997482D01*
X45479253Y29944877D01*
X45478501Y29937876D01*
X45478500Y29937864D01*
X45478500Y28942129D01*
X45478501Y28942123D01*
X45484908Y28882518D01*
X45497659Y28848331D01*
X45502642Y28778639D01*
X45497659Y28761669D01*
X45484908Y28727481D01*
X45480096Y28682717D01*
X45478501Y28667876D01*
X45478500Y28667864D01*
X45478500Y27672129D01*
X45478501Y27672123D01*
X45484908Y27612518D01*
X45497659Y27578331D01*
X45502642Y27508639D01*
X45497659Y27491669D01*
X45484908Y27457481D01*
X45478501Y27397883D01*
X45478500Y27397864D01*
X45478500Y27372202D01*
X45458815Y27305163D01*
X45406011Y27259408D01*
X45336853Y27249464D01*
X45273297Y27278489D01*
X45266838Y27284502D01*
X44969700Y27581641D01*
X44862764Y27653092D01*
X44862760Y27653093D01*
X44857698Y27656476D01*
X44858497Y27657673D01*
X44817077Y27696604D01*
X44762340Y27785350D01*
X44640350Y27907340D01*
X44640349Y27907340D01*
X44635243Y27912447D01*
X44636539Y27913743D01*
X44601618Y27963049D01*
X44594900Y28003309D01*
X44594900Y30798307D01*
X44569810Y30924438D01*
X44569809Y30924444D01*
X44520592Y31043264D01*
X44515051Y31051556D01*
X44515050Y31051558D01*
X44515049Y31051560D01*
X44472492Y31115251D01*
X44449140Y31150200D01*
X44391496Y31207844D01*
X45479000Y31207844D01*
X45479000Y30960000D01*
X46479000Y30960000D01*
X46979000Y30960000D01*
X47979000Y30960000D01*
X47979000Y31207827D01*
X47978999Y31207844D01*
X47972598Y31267372D01*
X47972596Y31267379D01*
X47922354Y31402086D01*
X47922350Y31402093D01*
X47836190Y31517187D01*
X47836187Y31517190D01*
X47721093Y31603350D01*
X47721086Y31603354D01*
X47586379Y31653596D01*
X47586372Y31653598D01*
X47526844Y31659999D01*
X47526828Y31660000D01*
X46979000Y31660000D01*
X46979000Y30960000D01*
X46479000Y30960000D01*
X46479000Y31660000D01*
X45931172Y31660000D01*
X45931155Y31659999D01*
X45871627Y31653598D01*
X45871620Y31653596D01*
X45736913Y31603354D01*
X45736906Y31603350D01*
X45621812Y31517190D01*
X45621809Y31517187D01*
X45535649Y31402093D01*
X45535645Y31402086D01*
X45485403Y31267379D01*
X45485401Y31267372D01*
X45479000Y31207844D01*
X44391496Y31207844D01*
X40059219Y35540121D01*
X40025734Y35601444D01*
X40022900Y35627802D01*
X40022900Y36440155D01*
X40521000Y36440155D01*
X40527401Y36380627D01*
X40527403Y36380620D01*
X40577645Y36245913D01*
X40577649Y36245906D01*
X40663809Y36130812D01*
X40663812Y36130809D01*
X40778906Y36044649D01*
X40778913Y36044645D01*
X40913620Y35994403D01*
X40913627Y35994401D01*
X40973155Y35988000D01*
X41733500Y35988000D01*
X42233500Y35988000D01*
X42993844Y35988000D01*
X43053372Y35994401D01*
X43053379Y35994403D01*
X43188086Y36044645D01*
X43188093Y36044649D01*
X43303187Y36130809D01*
X43303190Y36130812D01*
X43389350Y36245906D01*
X43389354Y36245913D01*
X43439596Y36380620D01*
X43439598Y36380627D01*
X43445999Y36440155D01*
X43446000Y36440172D01*
X43446000Y37088000D01*
X42233500Y37088000D01*
X42233500Y35988000D01*
X41733500Y35988000D01*
X41733500Y37088000D01*
X40521000Y37088000D01*
X40521000Y36440155D01*
X40022900Y36440155D01*
X40022900Y38235844D01*
X40521000Y38235844D01*
X40521000Y37588000D01*
X41733500Y37588000D01*
X41733500Y38688000D01*
X42233500Y38688000D01*
X42233500Y37588000D01*
X43446000Y37588000D01*
X43446000Y38235827D01*
X43445999Y38235844D01*
X43439598Y38295372D01*
X43439596Y38295379D01*
X43389354Y38430086D01*
X43389350Y38430093D01*
X43303190Y38545187D01*
X43303187Y38545190D01*
X43188093Y38631350D01*
X43188086Y38631354D01*
X43103728Y38662818D01*
X43047794Y38704689D01*
X43023377Y38770153D01*
X43038229Y38838426D01*
X43087634Y38887832D01*
X43147061Y38903000D01*
X43184000Y38903000D01*
X43184000Y39628000D01*
X42396501Y39628000D01*
X42396501Y39591345D01*
X42406819Y39490347D01*
X42461046Y39326699D01*
X42461051Y39326688D01*
X42551552Y39179965D01*
X42551555Y39179961D01*
X42673461Y39058055D01*
X42673465Y39058052D01*
X42820188Y38967551D01*
X42820199Y38967546D01*
X42934395Y38929706D01*
X42991840Y38889933D01*
X43018663Y38825418D01*
X43006348Y38756642D01*
X42958805Y38705442D01*
X42895391Y38688000D01*
X42233500Y38688000D01*
X41733500Y38688000D01*
X40973172Y38688000D01*
X40973155Y38687999D01*
X40913627Y38681598D01*
X40913620Y38681596D01*
X40778913Y38631354D01*
X40778906Y38631350D01*
X40663812Y38545190D01*
X40663809Y38545187D01*
X40577649Y38430093D01*
X40577645Y38430086D01*
X40527403Y38295379D01*
X40527401Y38295372D01*
X40521000Y38235844D01*
X40022900Y38235844D01*
X40022900Y40164654D01*
X42396500Y40164654D01*
X42396500Y40128000D01*
X43184000Y40128000D01*
X43184000Y40852999D01*
X43084860Y40852999D01*
X43084845Y40852998D01*
X42983847Y40842680D01*
X42820199Y40788453D01*
X42820188Y40788448D01*
X42673465Y40697947D01*
X42673461Y40697944D01*
X42551555Y40576038D01*
X42551552Y40576034D01*
X42461051Y40429311D01*
X42461046Y40429300D01*
X42406819Y40265652D01*
X42396500Y40164654D01*
X40022900Y40164654D01*
X40022900Y45413469D01*
X46702000Y45413469D01*
X46716648Y45283460D01*
X46774330Y45118613D01*
X46867246Y44970737D01*
X46990737Y44847246D01*
X47138613Y44754330D01*
X47303460Y44696648D01*
X47433469Y44682000D01*
X47502000Y44682000D01*
X47502000Y45832000D01*
X46702000Y45832000D01*
X46702000Y45413469D01*
X40022900Y45413469D01*
X40022900Y47686300D01*
X40042585Y47753339D01*
X40095389Y47799094D01*
X40146900Y47810300D01*
X45307500Y47810300D01*
X45374539Y47790615D01*
G37*
G04 #@! TD.AperFunction*
G04 #@! TA.AperFunction,Conductor*
G36*
X58658039Y1695315D02*
G01*
X58703794Y1642511D01*
X58705964Y1632535D01*
X58715000Y1623500D01*
X59816000Y1623500D01*
X59883039Y1603815D01*
X59928794Y1551011D01*
X59940000Y1499500D01*
X59940000Y1247500D01*
X59920315Y1180461D01*
X59867511Y1134706D01*
X59816000Y1123500D01*
X58784000Y1123500D01*
X58716961Y1143185D01*
X58671206Y1195989D01*
X58669035Y1205964D01*
X58660000Y1215000D01*
X57960000Y1215000D01*
X57960000Y1715000D01*
X58591000Y1715000D01*
X58658039Y1695315D01*
G37*
G04 #@! TD.AperFunction*
G04 #@! TA.AperFunction,Conductor*
G36*
X38192539Y3659315D02*
G01*
X38238294Y3606511D01*
X38249500Y3555000D01*
X38249500Y3303000D01*
X38229815Y3235961D01*
X38177011Y3190206D01*
X38125500Y3179000D01*
X36042500Y3179000D01*
X35975461Y3198685D01*
X35929706Y3251489D01*
X35918500Y3303000D01*
X35918500Y3555000D01*
X35938185Y3622039D01*
X35990989Y3667794D01*
X36042500Y3679000D01*
X38125500Y3679000D01*
X38192539Y3659315D01*
G37*
G04 #@! TD.AperFunction*
G04 #@! TA.AperFunction,Conductor*
G36*
X58865203Y5291487D02*
G01*
X58871681Y5285455D01*
X59758956Y4398180D01*
X59792441Y4336857D01*
X59787457Y4267165D01*
X59745585Y4211232D01*
X59680121Y4186815D01*
X59671275Y4186499D01*
X59403324Y4186499D01*
X59403315Y4186498D01*
X59403313Y4186498D01*
X59326584Y4178660D01*
X59302247Y4176174D01*
X59138484Y4121908D01*
X58991650Y4031340D01*
X58991648Y4031338D01*
X58869660Y3909350D01*
X58869656Y3909345D01*
X58854582Y3884905D01*
X58802635Y3838179D01*
X58749043Y3826000D01*
X55841500Y3826000D01*
X55774461Y3845685D01*
X55728706Y3898489D01*
X55717500Y3950000D01*
X55717500Y4561587D01*
X55737185Y4628626D01*
X55789989Y4674381D01*
X55859147Y4684325D01*
X55903500Y4668974D01*
X56007861Y4608720D01*
X56076188Y4590412D01*
X56154234Y4569500D01*
X56305765Y4569500D01*
X56305766Y4569500D01*
X56383812Y4590412D01*
X56452136Y4608719D01*
X56527522Y4652244D01*
X56583365Y4684485D01*
X56583366Y4684486D01*
X56583371Y4684489D01*
X56586112Y4686592D01*
X56588839Y4687646D01*
X56590403Y4688549D01*
X56590543Y4688305D01*
X56651282Y4711784D01*
X56719726Y4697744D01*
X56769714Y4648928D01*
X56770949Y4646676D01*
X56773811Y4641321D01*
X56883248Y4477536D01*
X57022533Y4338251D01*
X57022537Y4338248D01*
X57186315Y4228814D01*
X57186328Y4228807D01*
X57368308Y4153429D01*
X57368316Y4153427D01*
X57409999Y4145135D01*
X57410000Y4145136D01*
X57410000Y4948011D01*
X57419940Y4930795D01*
X57475795Y4874940D01*
X57544204Y4835444D01*
X57620504Y4815000D01*
X57699496Y4815000D01*
X57775796Y4835444D01*
X57844205Y4874940D01*
X57900060Y4930795D01*
X57910000Y4948011D01*
X57910000Y4145135D01*
X57951683Y4153427D01*
X57951691Y4153429D01*
X58133671Y4228807D01*
X58133684Y4228814D01*
X58297462Y4338248D01*
X58297466Y4338251D01*
X58436748Y4477533D01*
X58436751Y4477537D01*
X58546185Y4641315D01*
X58546192Y4641328D01*
X58621569Y4823306D01*
X58621572Y4823318D01*
X58659999Y5016504D01*
X58660000Y5016508D01*
X58660000Y5197774D01*
X58679685Y5264813D01*
X58732489Y5310568D01*
X58801647Y5320512D01*
X58865203Y5291487D01*
G37*
G04 #@! TD.AperFunction*
G04 #@! TA.AperFunction,Conductor*
G36*
X56733039Y6896615D02*
G01*
X56778794Y6843811D01*
X56790000Y6792300D01*
X56790000Y6139000D01*
X56770315Y6071961D01*
X56717511Y6026206D01*
X56666000Y6015000D01*
X56664499Y6015000D01*
X56597460Y6034685D01*
X56551705Y6087489D01*
X56540499Y6139000D01*
X56540499Y6792300D01*
X56560184Y6859339D01*
X56612988Y6905094D01*
X56664499Y6916300D01*
X56666000Y6916300D01*
X56733039Y6896615D01*
G37*
G04 #@! TD.AperFunction*
G04 #@! TA.AperFunction,Conductor*
G36*
X42150039Y16492315D02*
G01*
X42195794Y16439511D01*
X42207000Y16388000D01*
X42207000Y15286999D01*
X42306139Y15287000D01*
X42306155Y15287001D01*
X42407152Y15297319D01*
X42570800Y15351546D01*
X42570811Y15351551D01*
X42717534Y15442052D01*
X42717538Y15442055D01*
X42731465Y15455982D01*
X42792788Y15489467D01*
X42862480Y15484483D01*
X42906825Y15455984D01*
X42921148Y15441661D01*
X42921147Y15441661D01*
X43067981Y15351093D01*
X43067986Y15351091D01*
X43124555Y15332346D01*
X43231747Y15296826D01*
X43231748Y15296825D01*
X43332821Y15286500D01*
X43332823Y15286500D01*
X44031169Y15286500D01*
X44031187Y15286501D01*
X44132252Y15296825D01*
X44277912Y15345093D01*
X44296016Y15351092D01*
X44296761Y15351551D01*
X44351629Y15385395D01*
X44442850Y15441660D01*
X44511171Y15509981D01*
X44572494Y15543466D01*
X44598852Y15546300D01*
X45624248Y15546300D01*
X45691287Y15526615D01*
X45697133Y15522618D01*
X45775265Y15465851D01*
X45775270Y15465848D01*
X45948192Y15388857D01*
X45948197Y15388855D01*
X46100897Y15356398D01*
X46133354Y15349500D01*
X46133355Y15349500D01*
X46322645Y15349500D01*
X46322646Y15349500D01*
X46362001Y15357865D01*
X46507802Y15388855D01*
X46507807Y15388857D01*
X46680729Y15465848D01*
X46680734Y15465851D01*
X46758867Y15522618D01*
X46824673Y15546098D01*
X46831752Y15546300D01*
X46906993Y15546300D01*
X46974032Y15526615D01*
X47019787Y15473811D01*
X47030283Y15435552D01*
X47034908Y15392516D01*
X47085202Y15257671D01*
X47085206Y15257664D01*
X47171451Y15142457D01*
X47171457Y15142450D01*
X47225612Y15101910D01*
X47267482Y15045976D01*
X47275300Y15002644D01*
X47275300Y14834442D01*
X47275299Y14834421D01*
X47275299Y14689691D01*
X47275896Y14683629D01*
X47274095Y14683451D01*
X47268611Y14622327D01*
X47225734Y14567160D01*
X47196565Y14551574D01*
X47167671Y14540797D01*
X47167664Y14540793D01*
X47052455Y14454547D01*
X47052452Y14454544D01*
X46966206Y14339335D01*
X46966202Y14339328D01*
X46915908Y14204482D01*
X46910469Y14153885D01*
X46909500Y14144873D01*
X46909500Y13136794D01*
X46909501Y12206900D01*
X46889816Y12139861D01*
X46837013Y12094106D01*
X46785501Y12082900D01*
X46634459Y12082900D01*
X46567420Y12102585D01*
X46561574Y12106582D01*
X46426734Y12204548D01*
X46426730Y12204551D01*
X46253803Y12281544D01*
X46068646Y12320900D01*
X45879354Y12320900D01*
X45793894Y12302735D01*
X45694197Y12281544D01*
X45694192Y12281542D01*
X45521270Y12204551D01*
X45521265Y12204548D01*
X45432231Y12139861D01*
X45368129Y12093288D01*
X45241467Y11952616D01*
X45241466Y11952614D01*
X45225728Y11925357D01*
X45175160Y11877142D01*
X45106553Y11863921D01*
X45041688Y11889890D01*
X45030670Y11899669D01*
X41743318Y15187022D01*
X41709834Y15248344D01*
X41707000Y15274702D01*
X41707000Y16388000D01*
X41726685Y16455039D01*
X41779489Y16500794D01*
X41831000Y16512000D01*
X42083000Y16512000D01*
X42150039Y16492315D01*
G37*
G04 #@! TD.AperFunction*
G04 #@! TA.AperFunction,Conductor*
G36*
X41240613Y32512045D02*
G01*
X43252781Y30499878D01*
X43286266Y30438555D01*
X43289100Y30412197D01*
X43289100Y28003309D01*
X43269415Y27936270D01*
X43248262Y27912941D01*
X43248757Y27912447D01*
X43243650Y27907340D01*
X43121660Y27785350D01*
X43092955Y27738811D01*
X43077792Y27714228D01*
X43025844Y27667503D01*
X42956882Y27656280D01*
X42892800Y27684123D01*
X42853943Y27742192D01*
X42852047Y27809764D01*
X42886612Y27946258D01*
X42886614Y27946270D01*
X42907141Y28193994D01*
X42907141Y28194005D01*
X42886614Y28441729D01*
X42886612Y28441738D01*
X42825587Y28682717D01*
X42725731Y28910369D01*
X42625434Y29063882D01*
X41925787Y28364234D01*
X41914518Y28406292D01*
X41842110Y28531708D01*
X41739708Y28634110D01*
X41614292Y28706518D01*
X41572234Y28717787D01*
X42272056Y29417609D01*
X42225231Y29454055D01*
X42225228Y29454057D01*
X42006614Y29572364D01*
X42006603Y29572369D01*
X41771493Y29653083D01*
X41526293Y29694000D01*
X41277707Y29694000D01*
X41032506Y29653083D01*
X40854321Y29591911D01*
X40784523Y29588761D01*
X40724101Y29623847D01*
X40692241Y29686029D01*
X40699056Y29755566D01*
X40734569Y29801067D01*
X40733042Y29802764D01*
X40737870Y29807111D01*
X40768277Y29840881D01*
X40864533Y29947784D01*
X40959179Y30111716D01*
X41017674Y30291744D01*
X41037460Y30480000D01*
X41017674Y30668256D01*
X40959179Y30848284D01*
X40914308Y30926002D01*
X40897836Y30993900D01*
X40914308Y31049997D01*
X40959179Y31127716D01*
X41017674Y31307744D01*
X41037460Y31496000D01*
X41017674Y31684256D01*
X40959179Y31864284D01*
X40914308Y31942002D01*
X40897836Y32009900D01*
X40914308Y32065997D01*
X40959179Y32143716D01*
X41017674Y32323744D01*
X41029611Y32437326D01*
X41056195Y32501940D01*
X41113493Y32541925D01*
X41183312Y32544585D01*
X41240613Y32512045D01*
G37*
G04 #@! TD.AperFunction*
G04 #@! TA.AperFunction,Conductor*
G36*
X38660139Y47790615D02*
G01*
X38705894Y47737811D01*
X38717100Y47686300D01*
X38717100Y35241692D01*
X38730914Y35172247D01*
X38736573Y35143800D01*
X38740412Y35124499D01*
X38742191Y35115555D01*
X38791407Y34996737D01*
X38862862Y34889795D01*
X38862863Y34889794D01*
X40128477Y33624181D01*
X40161962Y33562858D01*
X40156978Y33493166D01*
X40115106Y33437233D01*
X40049642Y33412816D01*
X40040796Y33412500D01*
X40037354Y33412500D01*
X39893198Y33381859D01*
X39852197Y33373144D01*
X39852192Y33373142D01*
X39679270Y33296151D01*
X39679265Y33296148D01*
X39601133Y33239382D01*
X39535327Y33215902D01*
X39528248Y33215700D01*
X35394844Y33215700D01*
X35327805Y33235385D01*
X35307163Y33252019D01*
X30928583Y37630599D01*
X30322363Y38236819D01*
X28493669Y40065511D01*
X28493667Y40065515D01*
X28486601Y40072581D01*
X28486600Y40072583D01*
X28388583Y40170600D01*
X28326616Y40212005D01*
X30498859Y40212005D01*
X30498859Y40211994D01*
X30519385Y39964270D01*
X30519387Y39964261D01*
X30580412Y39723282D01*
X30680267Y39495632D01*
X30780564Y39342116D01*
X31439387Y40000939D01*
X31444889Y39980409D01*
X31523881Y39843592D01*
X31635592Y39731881D01*
X31772409Y39652889D01*
X31792940Y39647387D01*
X31133942Y38988390D01*
X31133942Y38988388D01*
X31180761Y38951949D01*
X31399390Y38833632D01*
X31399396Y38833630D01*
X31634506Y38752916D01*
X31879707Y38712000D01*
X32128293Y38712000D01*
X32373493Y38752916D01*
X32608603Y38833630D01*
X32608614Y38833635D01*
X32827229Y38951943D01*
X32874056Y38988389D01*
X32874057Y38988390D01*
X32215060Y39647387D01*
X32235591Y39652889D01*
X32372408Y39731881D01*
X32484119Y39843592D01*
X32563111Y39980409D01*
X32568612Y40000939D01*
X33227434Y39342116D01*
X33327731Y39495630D01*
X33427587Y39723282D01*
X33488612Y39964261D01*
X33488614Y39964270D01*
X33509141Y40211994D01*
X33509141Y40212005D01*
X33998357Y40212005D01*
X33998357Y40211994D01*
X34018890Y39964187D01*
X34018892Y39964175D01*
X34079936Y39723118D01*
X34179826Y39495393D01*
X34315833Y39287217D01*
X34484257Y39104261D01*
X34680493Y38951524D01*
X34899188Y38833172D01*
X34899197Y38833169D01*
X35134383Y38752429D01*
X35379665Y38711500D01*
X35628335Y38711500D01*
X35873616Y38752429D01*
X36108802Y38833169D01*
X36108811Y38833172D01*
X36327506Y38951524D01*
X36327509Y38951526D01*
X36523744Y39104262D01*
X36692164Y39287215D01*
X36692166Y39287217D01*
X36828173Y39495393D01*
X36928063Y39723118D01*
X36989107Y39964175D01*
X36989109Y39964187D01*
X37009643Y40211994D01*
X37009643Y40212005D01*
X36989109Y40459812D01*
X36989108Y40459815D01*
X36989108Y40459821D01*
X36928063Y40700881D01*
X36828173Y40928607D01*
X36692164Y41136785D01*
X36523744Y41319738D01*
X36327509Y41472474D01*
X36108810Y41590828D01*
X35873614Y41671571D01*
X35628335Y41712500D01*
X35379665Y41712500D01*
X35134386Y41671571D01*
X35134383Y41671570D01*
X35118141Y41665994D01*
X34899190Y41590828D01*
X34899188Y41590827D01*
X34805987Y41540389D01*
X34680491Y41472474D01*
X34484256Y41319738D01*
X34367747Y41193175D01*
X34315833Y41136782D01*
X34179826Y40928606D01*
X34079936Y40700881D01*
X34018892Y40459824D01*
X34018890Y40459812D01*
X33998357Y40212005D01*
X33509141Y40212005D01*
X33488614Y40459729D01*
X33488612Y40459738D01*
X33427587Y40700717D01*
X33327731Y40928369D01*
X33227434Y41081882D01*
X32568612Y40423060D01*
X32563111Y40443591D01*
X32484119Y40580408D01*
X32372408Y40692119D01*
X32235591Y40771111D01*
X32215059Y40776612D01*
X32874056Y41435609D01*
X32827231Y41472055D01*
X32827228Y41472057D01*
X32608614Y41590364D01*
X32608603Y41590369D01*
X32373493Y41671083D01*
X32128293Y41712000D01*
X31879707Y41712000D01*
X31634506Y41671083D01*
X31399396Y41590369D01*
X31399385Y41590364D01*
X31180770Y41472056D01*
X31180768Y41472055D01*
X31133942Y41435609D01*
X31792940Y40776612D01*
X31772409Y40771111D01*
X31635592Y40692119D01*
X31523881Y40580408D01*
X31444889Y40443591D01*
X31439387Y40423059D01*
X30780564Y41081882D01*
X30680266Y40928364D01*
X30580412Y40700717D01*
X30519387Y40459738D01*
X30519385Y40459729D01*
X30498859Y40212005D01*
X28326616Y40212005D01*
X28273327Y40247611D01*
X28273324Y40247612D01*
X28273323Y40247613D01*
X28145264Y40300656D01*
X28145262Y40300657D01*
X28100768Y40309507D01*
X28009310Y40327701D01*
X28009308Y40327701D01*
X27870692Y40327701D01*
X27864578Y40327701D01*
X27864558Y40327700D01*
X23211043Y40327700D01*
X23144004Y40347385D01*
X23109468Y40380577D01*
X23089475Y40409129D01*
X23068826Y40438620D01*
X22912620Y40594826D01*
X22731662Y40721534D01*
X22602811Y40781618D01*
X22550371Y40827790D01*
X22531219Y40894983D01*
X22551435Y40961865D01*
X22602811Y41006382D01*
X22731658Y41066464D01*
X22731666Y41066468D01*
X22912615Y41193170D01*
X22912621Y41193175D01*
X23068824Y41349378D01*
X23068829Y41349384D01*
X23109468Y41407423D01*
X23164044Y41451048D01*
X23211043Y41460300D01*
X24562558Y41460300D01*
X24562578Y41460299D01*
X24568692Y41460299D01*
X24707310Y41460299D01*
X24843256Y41487341D01*
X24843264Y41487343D01*
X24971323Y41540386D01*
X25086585Y41617401D01*
X25188920Y41719736D01*
X25188940Y41719758D01*
X28681187Y45212005D01*
X30498859Y45212005D01*
X30498859Y45211994D01*
X30519385Y44964270D01*
X30519387Y44964261D01*
X30580412Y44723282D01*
X30680267Y44495632D01*
X30780564Y44342116D01*
X31439387Y45000939D01*
X31444889Y44980409D01*
X31523881Y44843592D01*
X31635592Y44731881D01*
X31772409Y44652889D01*
X31792940Y44647387D01*
X31133942Y43988390D01*
X31133942Y43988388D01*
X31180761Y43951949D01*
X31399390Y43833632D01*
X31399396Y43833630D01*
X31634506Y43752916D01*
X31879707Y43712000D01*
X32128293Y43712000D01*
X32373493Y43752916D01*
X32608603Y43833630D01*
X32608614Y43833635D01*
X32827229Y43951943D01*
X32874056Y43988389D01*
X32874057Y43988390D01*
X32215060Y44647387D01*
X32235591Y44652889D01*
X32372408Y44731881D01*
X32484119Y44843592D01*
X32563111Y44980409D01*
X32568612Y45000939D01*
X33227434Y44342116D01*
X33327731Y44495630D01*
X33427587Y44723282D01*
X33488612Y44964261D01*
X33488614Y44964270D01*
X33509141Y45211994D01*
X33509141Y45212005D01*
X33998357Y45212005D01*
X33998357Y45211994D01*
X34018890Y44964187D01*
X34018892Y44964175D01*
X34079936Y44723118D01*
X34179826Y44495393D01*
X34315833Y44287217D01*
X34484257Y44104261D01*
X34680493Y43951524D01*
X34899188Y43833172D01*
X34899197Y43833169D01*
X35134383Y43752429D01*
X35379665Y43711500D01*
X35628335Y43711500D01*
X35873616Y43752429D01*
X36108802Y43833169D01*
X36108811Y43833172D01*
X36327506Y43951524D01*
X36327509Y43951526D01*
X36523744Y44104262D01*
X36692164Y44287215D01*
X36692166Y44287217D01*
X36828173Y44495393D01*
X36928063Y44723118D01*
X36989107Y44964175D01*
X36989109Y44964187D01*
X37009643Y45211994D01*
X37009643Y45212005D01*
X36989109Y45459812D01*
X36989108Y45459815D01*
X36989108Y45459821D01*
X36928063Y45700881D01*
X36828173Y45928607D01*
X36692164Y46136785D01*
X36523744Y46319738D01*
X36327509Y46472474D01*
X36108810Y46590828D01*
X35873614Y46671571D01*
X35628335Y46712500D01*
X35379665Y46712500D01*
X35134386Y46671571D01*
X35134383Y46671570D01*
X35118141Y46665994D01*
X34899190Y46590828D01*
X34899188Y46590827D01*
X34789840Y46531651D01*
X34680491Y46472474D01*
X34484256Y46319738D01*
X34357390Y46181925D01*
X34315833Y46136782D01*
X34179826Y45928606D01*
X34079936Y45700881D01*
X34018892Y45459824D01*
X34018890Y45459812D01*
X33998357Y45212005D01*
X33509141Y45212005D01*
X33488614Y45459729D01*
X33488612Y45459738D01*
X33427587Y45700717D01*
X33327731Y45928369D01*
X33227434Y46081882D01*
X32568612Y45423060D01*
X32563111Y45443591D01*
X32484119Y45580408D01*
X32372408Y45692119D01*
X32235591Y45771111D01*
X32215059Y45776612D01*
X32874056Y46435609D01*
X32827231Y46472055D01*
X32827228Y46472057D01*
X32608614Y46590364D01*
X32608603Y46590369D01*
X32373493Y46671083D01*
X32128293Y46712000D01*
X31879707Y46712000D01*
X31634506Y46671083D01*
X31399396Y46590369D01*
X31399385Y46590364D01*
X31180770Y46472056D01*
X31180768Y46472055D01*
X31133942Y46435609D01*
X31792940Y45776612D01*
X31772409Y45771111D01*
X31635592Y45692119D01*
X31523881Y45580408D01*
X31444889Y45443591D01*
X31439387Y45423059D01*
X30780564Y46081882D01*
X30680266Y45928364D01*
X30580412Y45700717D01*
X30519387Y45459738D01*
X30519385Y45459729D01*
X30498859Y45212005D01*
X28681187Y45212005D01*
X31243163Y47773981D01*
X31304486Y47807466D01*
X31330844Y47810300D01*
X38593100Y47810300D01*
X38660139Y47790615D01*
G37*
G04 #@! TD.AperFunction*
G04 #@! TA.AperFunction,Conductor*
G36*
X53676540Y47435415D02*
G01*
X53722295Y47382611D01*
X53733501Y47331100D01*
X53733501Y47314123D01*
X53739908Y47254516D01*
X53790202Y47119671D01*
X53790206Y47119664D01*
X53876452Y47004455D01*
X53876455Y47004452D01*
X53991664Y46918206D01*
X53991671Y46918202D01*
X54126517Y46867908D01*
X54126516Y46867908D01*
X54186116Y46861501D01*
X54186119Y46861500D01*
X54186127Y46861500D01*
X55103100Y46861500D01*
X55170139Y46841815D01*
X55215894Y46789011D01*
X55227100Y46737500D01*
X55227100Y43623754D01*
X55207415Y43556715D01*
X55154611Y43510960D01*
X55146455Y43507581D01*
X55141669Y43505796D01*
X55141666Y43505794D01*
X55134573Y43500484D01*
X55057893Y43443081D01*
X54992431Y43418664D01*
X54924158Y43433515D01*
X54909271Y43443082D01*
X54826089Y43505352D01*
X54826086Y43505354D01*
X54691379Y43555596D01*
X54691372Y43555598D01*
X54631844Y43561999D01*
X54631828Y43562000D01*
X54084000Y43562000D01*
X54084000Y40562000D01*
X54170799Y40562000D01*
X54237838Y40542315D01*
X54283593Y40489511D01*
X54293537Y40420353D01*
X54288505Y40398996D01*
X54244319Y40265651D01*
X54234000Y40164654D01*
X54234000Y40128000D01*
X55397500Y40128000D01*
X55464539Y40108315D01*
X55510294Y40055511D01*
X55521500Y40004000D01*
X55521500Y39752000D01*
X55501815Y39684961D01*
X55449011Y39639206D01*
X55397500Y39628000D01*
X54234001Y39628000D01*
X54234001Y39591345D01*
X54244319Y39490347D01*
X54298546Y39326699D01*
X54298548Y39326694D01*
X54370468Y39210096D01*
X54388908Y39142704D01*
X54367986Y39076040D01*
X54314344Y39031270D01*
X54264929Y39020999D01*
X54109028Y39020999D01*
X54109013Y39020998D01*
X54006304Y39010506D01*
X53938219Y38987944D01*
X53868391Y38985542D01*
X53808349Y39021273D01*
X53777155Y39083793D01*
X53775856Y39118255D01*
X53778999Y39149018D01*
X53779000Y39149026D01*
X53779000Y39374000D01*
X52741500Y39374000D01*
X52741500Y38449000D01*
X53078971Y38449000D01*
X53078987Y38449001D01*
X53181697Y38459494D01*
X53249781Y38482055D01*
X53319609Y38484457D01*
X53379651Y38448725D01*
X53410844Y38386205D01*
X53412143Y38351747D01*
X53409000Y38320988D01*
X53409000Y38096000D01*
X55983999Y38096000D01*
X55983999Y38320971D01*
X55983998Y38320986D01*
X55973505Y38423697D01*
X55918358Y38590119D01*
X55918356Y38590124D01*
X55826316Y38739344D01*
X55811747Y38753913D01*
X55778260Y38815235D01*
X55783243Y38884927D01*
X55825113Y38940861D01*
X55860420Y38959301D01*
X55885296Y38967544D01*
X55885311Y38967551D01*
X56032034Y39058052D01*
X56032038Y39058055D01*
X56045965Y39071982D01*
X56107288Y39105467D01*
X56176980Y39100483D01*
X56221325Y39071984D01*
X56235648Y39057661D01*
X56235647Y39057661D01*
X56382481Y38967093D01*
X56382493Y38967088D01*
X56406655Y38959081D01*
X56464099Y38919307D01*
X56490919Y38854790D01*
X56478602Y38786015D01*
X56455328Y38753696D01*
X56441288Y38739656D01*
X56416705Y38699800D01*
X56361137Y38609709D01*
X56349186Y38590334D01*
X56294001Y38423797D01*
X56294001Y38423795D01*
X56294000Y38423795D01*
X56283500Y38321016D01*
X56283500Y37370998D01*
X56283501Y37370980D01*
X56294000Y37268203D01*
X56294001Y37268200D01*
X56349185Y37101668D01*
X56349187Y37101663D01*
X56441289Y36952342D01*
X56565342Y36828289D01*
X56714663Y36736187D01*
X56714668Y36736185D01*
X56749645Y36724595D01*
X56881203Y36681001D01*
X56881204Y36681000D01*
X56983989Y36670500D01*
X56983991Y36670500D01*
X58159001Y36670500D01*
X58159018Y36670501D01*
X58261796Y36681000D01*
X58261799Y36681001D01*
X58428331Y36736185D01*
X58428334Y36736186D01*
X58577656Y36828288D01*
X58652149Y36902781D01*
X58713472Y36936266D01*
X58739830Y36939100D01*
X58763324Y36939100D01*
X58938527Y36973950D01*
X58938533Y36973952D01*
X59103575Y37042314D01*
X59103584Y37042319D01*
X59252114Y37141564D01*
X59252120Y37141569D01*
X59632432Y37521881D01*
X59632435Y37521885D01*
X59731680Y37670415D01*
X59731685Y37670424D01*
X59796249Y37826296D01*
X59800048Y37835467D01*
X59815665Y37913977D01*
X59834900Y38010675D01*
X59834900Y38942986D01*
X59854585Y39010025D01*
X59871219Y39030667D01*
X59886432Y39045880D01*
X59886434Y39045883D01*
X59886436Y39045885D01*
X59985684Y39194422D01*
X60054048Y39359467D01*
X60059413Y39386440D01*
X60088900Y39534675D01*
X60088900Y39713324D01*
X60062892Y39844070D01*
X60054048Y39888533D01*
X59985684Y40053578D01*
X59886436Y40202115D01*
X59550112Y40538437D01*
X59516630Y40599755D01*
X59521614Y40669447D01*
X59538530Y40700425D01*
X59627793Y40819664D01*
X59627797Y40819671D01*
X59678091Y40954517D01*
X59678881Y40961865D01*
X59684500Y41014127D01*
X59684499Y43109872D01*
X59678091Y43169483D01*
X59627796Y43304331D01*
X59541546Y43419546D01*
X59426331Y43505796D01*
X59291483Y43556091D01*
X59231873Y43562500D01*
X57636128Y43562499D01*
X57587757Y43557299D01*
X57576516Y43556091D01*
X57441671Y43505797D01*
X57441669Y43505796D01*
X57358311Y43443394D01*
X57292847Y43418977D01*
X57224574Y43433828D01*
X57209689Y43443394D01*
X57159948Y43480630D01*
X57126331Y43505796D01*
X57121570Y43507571D01*
X57065638Y43549437D01*
X57041217Y43614900D01*
X57040900Y43623754D01*
X57040900Y44181100D01*
X57060585Y44248139D01*
X57113389Y44293894D01*
X57164900Y44305100D01*
X60786988Y44305100D01*
X60854027Y44285415D01*
X60874669Y44268781D01*
X61119281Y44024169D01*
X61152766Y43962846D01*
X61155600Y43936488D01*
X61155600Y41026139D01*
X61135915Y40959100D01*
X61096696Y40920601D01*
X61083377Y40912386D01*
X61056345Y40895713D01*
X61056344Y40895712D01*
X60932288Y40771656D01*
X60879592Y40686222D01*
X60851894Y40641315D01*
X60840186Y40622334D01*
X60785001Y40455797D01*
X60785001Y40455795D01*
X60785000Y40455795D01*
X60774500Y40353016D01*
X60774500Y39402998D01*
X60774501Y39402980D01*
X60785000Y39300203D01*
X60785001Y39300200D01*
X60840185Y39133668D01*
X60840187Y39133663D01*
X60932289Y38984342D01*
X61056346Y38860285D01*
X61088365Y38840536D01*
X61135088Y38788588D01*
X61146309Y38719625D01*
X61118465Y38655543D01*
X61088364Y38629462D01*
X61056344Y38609712D01*
X60932288Y38485656D01*
X60840186Y38336334D01*
X60785001Y38169797D01*
X60785001Y38169795D01*
X60785000Y38169795D01*
X60774500Y38067016D01*
X60774500Y37116998D01*
X60774501Y37116980D01*
X60785000Y37014203D01*
X60785001Y37014200D01*
X60840185Y36847668D01*
X60840189Y36847659D01*
X60916096Y36724595D01*
X60934536Y36657203D01*
X60913613Y36590539D01*
X60859971Y36545770D01*
X60810557Y36535499D01*
X60711324Y36535499D01*
X60711315Y36535498D01*
X60711313Y36535498D01*
X60610247Y36525174D01*
X60446484Y36470908D01*
X60299650Y36380340D01*
X60299648Y36380338D01*
X60285327Y36366017D01*
X60224004Y36332532D01*
X60154312Y36337516D01*
X60109960Y36366021D01*
X60096035Y36379947D01*
X59949311Y36470448D01*
X59949300Y36470453D01*
X59785652Y36524680D01*
X59684648Y36534999D01*
X59585500Y36534998D01*
X59585500Y35434000D01*
X59565815Y35366961D01*
X59513011Y35321206D01*
X59461500Y35310000D01*
X58298001Y35310000D01*
X58298001Y35273345D01*
X58308319Y35172347D01*
X58311250Y35163503D01*
X58313652Y35093675D01*
X58277920Y35033633D01*
X58215400Y35002440D01*
X58193550Y35000499D01*
X57641128Y35000499D01*
X57581517Y34994091D01*
X57547332Y34981340D01*
X57477642Y34976357D01*
X57460672Y34981338D01*
X57426483Y34994091D01*
X57366873Y35000500D01*
X56371128Y35000499D01*
X56311517Y34994091D01*
X56277332Y34981340D01*
X56207642Y34976357D01*
X56190672Y34981338D01*
X56156483Y34994091D01*
X56096873Y35000500D01*
X55101128Y35000499D01*
X55041517Y34994091D01*
X55007332Y34981340D01*
X54937642Y34976357D01*
X54920672Y34981338D01*
X54886483Y34994091D01*
X54826873Y35000500D01*
X53831128Y35000499D01*
X53771517Y34994091D01*
X53737332Y34981340D01*
X53667642Y34976357D01*
X53650672Y34981338D01*
X53616483Y34994091D01*
X53556873Y35000500D01*
X52561128Y35000499D01*
X52501517Y34994091D01*
X52467332Y34981340D01*
X52397642Y34976357D01*
X52380672Y34981338D01*
X52346483Y34994091D01*
X52286873Y35000500D01*
X51295899Y35000499D01*
X51228861Y35020183D01*
X51183106Y35072987D01*
X51171900Y35124499D01*
X51171900Y35846654D01*
X58298000Y35846654D01*
X58298000Y35810000D01*
X59085500Y35810000D01*
X59085500Y36534999D01*
X58986360Y36534999D01*
X58986345Y36534998D01*
X58885347Y36524680D01*
X58721699Y36470453D01*
X58721688Y36470448D01*
X58574965Y36379947D01*
X58574961Y36379944D01*
X58453055Y36258038D01*
X58453052Y36258034D01*
X58362551Y36111311D01*
X58362546Y36111300D01*
X58308319Y35947652D01*
X58298000Y35846654D01*
X51171900Y35846654D01*
X51171900Y36159307D01*
X51147216Y36283398D01*
X51146809Y36285444D01*
X51097592Y36404264D01*
X51089416Y36416500D01*
X51026140Y36511200D01*
X50166327Y37371013D01*
X53409001Y37371013D01*
X53419494Y37268302D01*
X53474641Y37101880D01*
X53474643Y37101875D01*
X53566684Y36952654D01*
X53690654Y36828684D01*
X53839875Y36736643D01*
X53839880Y36736641D01*
X54006302Y36681494D01*
X54006309Y36681493D01*
X54109013Y36671000D01*
X54446500Y36671000D01*
X54946500Y36671000D01*
X55283971Y36671000D01*
X55283987Y36671001D01*
X55386697Y36681494D01*
X55553119Y36736641D01*
X55553124Y36736643D01*
X55702345Y36828684D01*
X55826315Y36952654D01*
X55918356Y37101875D01*
X55918358Y37101880D01*
X55973505Y37268302D01*
X55973506Y37268309D01*
X55983999Y37371013D01*
X55984000Y37371026D01*
X55984000Y37596000D01*
X54946500Y37596000D01*
X54946500Y36671000D01*
X54446500Y36671000D01*
X54446500Y37596000D01*
X53409001Y37596000D01*
X53409001Y37371013D01*
X50166327Y37371013D01*
X49300518Y38236821D01*
X49267035Y38298142D01*
X49272019Y38367833D01*
X49313891Y38423767D01*
X49379355Y38448184D01*
X49388201Y38448500D01*
X50204001Y38448500D01*
X50204018Y38448501D01*
X50306796Y38459000D01*
X50306799Y38459001D01*
X50473331Y38514185D01*
X50473334Y38514186D01*
X50622656Y38606288D01*
X50746712Y38730344D01*
X50838814Y38879666D01*
X50893999Y39046203D01*
X50904500Y39148991D01*
X50904500Y39149013D01*
X51204001Y39149013D01*
X51214494Y39046302D01*
X51269641Y38879880D01*
X51269643Y38879875D01*
X51361684Y38730654D01*
X51485654Y38606684D01*
X51634875Y38514643D01*
X51634880Y38514641D01*
X51801302Y38459494D01*
X51801309Y38459493D01*
X51904013Y38449000D01*
X52241500Y38449000D01*
X52241500Y39374000D01*
X51204001Y39374000D01*
X51204001Y39149013D01*
X50904500Y39149013D01*
X50904499Y40098986D01*
X51204000Y40098986D01*
X51204000Y39874000D01*
X52241500Y39874000D01*
X52241500Y40798999D01*
X51904028Y40798999D01*
X51904013Y40798998D01*
X51801302Y40788505D01*
X51634880Y40733358D01*
X51634875Y40733356D01*
X51485654Y40641315D01*
X51361684Y40517345D01*
X51269643Y40368124D01*
X51269641Y40368119D01*
X51214494Y40201697D01*
X51214493Y40201690D01*
X51204000Y40098986D01*
X50904499Y40098986D01*
X50904499Y40099008D01*
X50893999Y40201797D01*
X50838814Y40368334D01*
X50746712Y40517656D01*
X50709157Y40555210D01*
X50675673Y40616530D01*
X50680657Y40686222D01*
X50709158Y40730571D01*
X50742432Y40763845D01*
X50742435Y40763849D01*
X50841680Y40912379D01*
X50841685Y40912388D01*
X50862179Y40961865D01*
X50883838Y41014155D01*
X52584000Y41014155D01*
X52590401Y40954627D01*
X52590402Y40954623D01*
X52632408Y40842000D01*
X52643334Y40834414D01*
X52684539Y40822315D01*
X52730294Y40769511D01*
X52741500Y40718000D01*
X52741500Y39874000D01*
X53778999Y39874000D01*
X53778999Y40098971D01*
X53778998Y40098986D01*
X53768505Y40201697D01*
X53713358Y40368119D01*
X53713356Y40368124D01*
X53621315Y40517345D01*
X53620319Y40518342D01*
X53619853Y40519195D01*
X53616839Y40523007D01*
X53617490Y40523522D01*
X53586834Y40579665D01*
X53584000Y40606023D01*
X53584000Y41812000D01*
X52584000Y41812000D01*
X52584000Y41014155D01*
X50883838Y41014155D01*
X50910048Y41077431D01*
X50921854Y41136782D01*
X50944900Y41252639D01*
X50944900Y43109844D01*
X52584000Y43109844D01*
X52584000Y42312000D01*
X53584000Y42312000D01*
X53584000Y43562000D01*
X53036172Y43562000D01*
X53036155Y43561999D01*
X52976627Y43555598D01*
X52976620Y43555596D01*
X52841913Y43505354D01*
X52841906Y43505350D01*
X52726812Y43419190D01*
X52726809Y43419187D01*
X52640649Y43304093D01*
X52640645Y43304086D01*
X52590403Y43169379D01*
X52590401Y43169372D01*
X52584000Y43109844D01*
X50944900Y43109844D01*
X50944900Y43480630D01*
X50964585Y43547669D01*
X51017389Y43593424D01*
X51086547Y43603368D01*
X51107903Y43598336D01*
X51174346Y43576319D01*
X51275345Y43566000D01*
X51312000Y43566000D01*
X51812000Y43566000D01*
X51848638Y43566000D01*
X51848656Y43566001D01*
X51949652Y43576319D01*
X52113300Y43630546D01*
X52113311Y43630551D01*
X52260034Y43721052D01*
X52260038Y43721055D01*
X52381944Y43842961D01*
X52381947Y43842965D01*
X52472448Y43989688D01*
X52472453Y43989699D01*
X52526680Y44153347D01*
X52536999Y44254345D01*
X52537000Y44254358D01*
X52537000Y44353500D01*
X51812000Y44353500D01*
X51812000Y43566000D01*
X51312000Y43566000D01*
X51312000Y44729500D01*
X51331685Y44796539D01*
X51384489Y44842294D01*
X51436000Y44853500D01*
X52536999Y44853500D01*
X52536999Y44952639D01*
X52536998Y44952654D01*
X52526680Y45053652D01*
X52472453Y45217300D01*
X52472448Y45217311D01*
X52381947Y45364035D01*
X52368021Y45377960D01*
X52334533Y45439282D01*
X52339514Y45508973D01*
X52368017Y45553327D01*
X52382338Y45567648D01*
X52382340Y45567650D01*
X52472908Y45714484D01*
X52527174Y45878247D01*
X52537500Y45979323D01*
X52537499Y46677676D01*
X52527174Y46778753D01*
X52475193Y46935617D01*
X52468900Y46974621D01*
X52468900Y47070987D01*
X52488585Y47138026D01*
X52505219Y47158668D01*
X52765332Y47418781D01*
X52826655Y47452266D01*
X52853013Y47455100D01*
X53609501Y47455100D01*
X53676540Y47435415D01*
G37*
G04 #@! TD.AperFunction*
G04 #@! TA.AperFunction,Conductor*
G36*
X67002703Y49699382D02*
G01*
X67404181Y49681853D01*
X67414957Y49680910D01*
X67810685Y49628811D01*
X67821339Y49626933D01*
X68211039Y49540538D01*
X68221487Y49537738D01*
X68602159Y49417713D01*
X68612325Y49414013D01*
X68981096Y49261263D01*
X68990899Y49256692D01*
X69034510Y49233989D01*
X69084886Y49185574D01*
X69101089Y49117610D01*
X69077976Y49051674D01*
X69022884Y49008701D01*
X68977254Y49000000D01*
X66039000Y49000000D01*
X66039000Y46714197D01*
X66019315Y46647158D01*
X65974418Y46605361D01*
X65969887Y46602887D01*
X65752258Y46439971D01*
X65752253Y46439966D01*
X65752247Y46439961D01*
X65560038Y46247752D01*
X65560033Y46247746D01*
X65560029Y46247742D01*
X65397113Y46030113D01*
X65397110Y46030109D01*
X65397110Y46030108D01*
X65397109Y46030107D01*
X65266830Y45791519D01*
X65266828Y45791513D01*
X65171825Y45536801D01*
X65171823Y45536794D01*
X65171823Y45536793D01*
X65114040Y45271167D01*
X65114039Y45271160D01*
X65094645Y45000001D01*
X65094645Y44999998D01*
X65114039Y44728839D01*
X65114040Y44728832D01*
X65167295Y44484023D01*
X65171825Y44463199D01*
X65213953Y44350250D01*
X65266830Y44208480D01*
X65397109Y43969892D01*
X65397110Y43969891D01*
X65560028Y43752259D01*
X65560038Y43752247D01*
X65752247Y43560038D01*
X65752259Y43560028D01*
X65969889Y43397111D01*
X65974432Y43394631D01*
X66023835Y43345224D01*
X66039000Y43285802D01*
X66039000Y41058490D01*
X66019315Y40991451D01*
X65966511Y40945696D01*
X65897353Y40935752D01*
X65849903Y40952952D01*
X65794130Y40987353D01*
X65794119Y40987358D01*
X65627697Y41042505D01*
X65627690Y41042506D01*
X65524980Y41052999D01*
X65187500Y41052999D01*
X65187500Y36578000D01*
X65203088Y36562411D01*
X65217039Y36558315D01*
X65262794Y36505511D01*
X65274000Y36454000D01*
X65274000Y35434000D01*
X65254315Y35366961D01*
X65201511Y35321206D01*
X65150000Y35310000D01*
X64898000Y35310000D01*
X64830961Y35329685D01*
X64785206Y35382489D01*
X64774000Y35434000D01*
X64774000Y36374000D01*
X64758411Y36389588D01*
X64744461Y36393685D01*
X64698706Y36446489D01*
X64687500Y36498000D01*
X64687500Y37342000D01*
X63646410Y37342000D01*
X63579371Y37361685D01*
X63558736Y37378313D01*
X63386816Y37550232D01*
X63353333Y37611553D01*
X63350499Y37637911D01*
X63350499Y38066986D01*
X63650000Y38066986D01*
X63650000Y37842000D01*
X64687500Y37842000D01*
X64687500Y39628000D01*
X63650001Y39628000D01*
X63650001Y39403013D01*
X63660494Y39300302D01*
X63715641Y39133880D01*
X63715643Y39133875D01*
X63807684Y38984654D01*
X63931655Y38860683D01*
X63931659Y38860680D01*
X63964315Y38840538D01*
X64011040Y38788590D01*
X64022261Y38719628D01*
X63994418Y38655546D01*
X63964315Y38629462D01*
X63931659Y38609319D01*
X63931655Y38609316D01*
X63807684Y38485345D01*
X63715643Y38336124D01*
X63715641Y38336119D01*
X63660494Y38169697D01*
X63660493Y38169690D01*
X63650000Y38066986D01*
X63350499Y38066986D01*
X63350499Y38067001D01*
X63350498Y38067018D01*
X63339999Y38169796D01*
X63339998Y38169799D01*
X63339503Y38171294D01*
X63284814Y38336334D01*
X63192712Y38485656D01*
X63068656Y38609712D01*
X63036634Y38629462D01*
X62989913Y38681406D01*
X62978689Y38750368D01*
X63006531Y38814451D01*
X63036635Y38840537D01*
X63068655Y38860287D01*
X63192710Y38984342D01*
X63192712Y38984344D01*
X63284814Y39133666D01*
X63339999Y39300203D01*
X63350500Y39402991D01*
X63350499Y40352986D01*
X63650000Y40352986D01*
X63650000Y40128000D01*
X64687500Y40128000D01*
X64687500Y41052999D01*
X64350028Y41052999D01*
X64350013Y41052998D01*
X64247302Y41042505D01*
X64080880Y40987358D01*
X64080875Y40987356D01*
X63931654Y40895315D01*
X63807684Y40771345D01*
X63715643Y40622124D01*
X63715641Y40622119D01*
X63660494Y40455697D01*
X63660493Y40455690D01*
X63650000Y40352986D01*
X63350499Y40352986D01*
X63350499Y40353008D01*
X63348933Y40368334D01*
X63339999Y40455796D01*
X63339998Y40455799D01*
X63338693Y40459738D01*
X63284814Y40622334D01*
X63192712Y40771656D01*
X63068656Y40895712D01*
X63028304Y40920601D01*
X62981579Y40972547D01*
X62969400Y41026139D01*
X62969400Y44452824D01*
X62934549Y44628027D01*
X62934548Y44628033D01*
X62866184Y44793078D01*
X62766935Y44941615D01*
X62640615Y45067935D01*
X61792115Y45916435D01*
X61643578Y46015684D01*
X61478533Y46084048D01*
X61421198Y46095452D01*
X61303324Y46118900D01*
X61303322Y46118900D01*
X57164900Y46118900D01*
X57097861Y46138585D01*
X57052106Y46191389D01*
X57040900Y46242900D01*
X57040900Y46737500D01*
X57060585Y46804539D01*
X57113389Y46850294D01*
X57164900Y46861500D01*
X58081870Y46861500D01*
X58081876Y46861501D01*
X58141483Y46867908D01*
X58276328Y46918202D01*
X58276335Y46918206D01*
X58391544Y47004452D01*
X58391547Y47004455D01*
X58477793Y47119664D01*
X58477797Y47119671D01*
X58528091Y47254517D01*
X58528152Y47255085D01*
X58534500Y47314127D01*
X58534499Y49409872D01*
X58528091Y49469483D01*
X58518277Y49495796D01*
X58504712Y49532168D01*
X58499728Y49601859D01*
X58533214Y49663182D01*
X58594537Y49696666D01*
X58620894Y49699500D01*
X66952405Y49699500D01*
X66997294Y49699500D01*
X67002703Y49699382D01*
G37*
G04 #@! TD.AperFunction*
G04 #@! TA.AperFunction,Conductor*
G36*
X48196265Y49679815D02*
G01*
X48242020Y49627011D01*
X48251964Y49557853D01*
X48222939Y49494297D01*
X48203540Y49476235D01*
X48114454Y49409546D01*
X48114452Y49409543D01*
X48028206Y49294335D01*
X48028202Y49294328D01*
X47977908Y49159482D01*
X47973191Y49115604D01*
X47971501Y49099876D01*
X47971500Y49099864D01*
X47971500Y47204129D01*
X47971501Y47204123D01*
X47977908Y47144516D01*
X47994182Y47100886D01*
X48002000Y47057553D01*
X48002000Y46762330D01*
X47982255Y46782075D01*
X47896745Y46831444D01*
X47801370Y46857000D01*
X47702630Y46857000D01*
X47607255Y46831444D01*
X47521745Y46782075D01*
X47502000Y46762330D01*
X47502000Y47287001D01*
X47508958Y47327955D01*
X47517840Y47353340D01*
X47517842Y47353348D01*
X47532499Y47483441D01*
X47532500Y47483445D01*
X47532500Y48820554D01*
X47532499Y48820558D01*
X47529226Y48849605D01*
X47517841Y48950657D01*
X47460122Y49115606D01*
X47367147Y49263576D01*
X47243576Y49387147D01*
X47112536Y49469484D01*
X47110910Y49470506D01*
X47064618Y49522840D01*
X47053969Y49591894D01*
X47082344Y49655742D01*
X47140734Y49694114D01*
X47176881Y49699500D01*
X48129226Y49699500D01*
X48196265Y49679815D01*
G37*
G04 #@! TD.AperFunction*
M02*
