G04 #@! TF.GenerationSoftware,KiCad,Pcbnew,8.0.2*
G04 #@! TF.CreationDate,2024-05-03T17:36:45+02:00*
G04 #@! TF.ProjectId,WLED_Controller_PWM,574c4544-5f43-46f6-9e74-726f6c6c6572,rev?*
G04 #@! TF.SameCoordinates,Original*
G04 #@! TF.FileFunction,Soldermask,Bot*
G04 #@! TF.FilePolarity,Negative*
%FSLAX46Y46*%
G04 Gerber Fmt 4.6, Leading zero omitted, Abs format (unit mm)*
G04 Created by KiCad (PCBNEW 8.0.2) date 2024-05-03 17:36:45*
%MOMM*%
%LPD*%
G01*
G04 APERTURE LIST*
G04 Aperture macros list*
%AMRoundRect*
0 Rectangle with rounded corners*
0 $1 Rounding radius*
0 $2 $3 $4 $5 $6 $7 $8 $9 X,Y pos of 4 corners*
0 Add a 4 corners polygon primitive as box body*
4,1,4,$2,$3,$4,$5,$6,$7,$8,$9,$2,$3,0*
0 Add four circle primitives for the rounded corners*
1,1,$1+$1,$2,$3*
1,1,$1+$1,$4,$5*
1,1,$1+$1,$6,$7*
1,1,$1+$1,$8,$9*
0 Add four rect primitives between the rounded corners*
20,1,$1+$1,$2,$3,$4,$5,0*
20,1,$1+$1,$4,$5,$6,$7,0*
20,1,$1+$1,$6,$7,$8,$9,0*
20,1,$1+$1,$8,$9,$2,$3,0*%
G04 Aperture macros list end*
%ADD10C,2.000000*%
%ADD11R,1.100000X1.800000*%
%ADD12RoundRect,0.275000X0.275000X0.625000X-0.275000X0.625000X-0.275000X-0.625000X0.275000X-0.625000X0*%
%ADD13C,0.650000*%
%ADD14O,1.000000X2.100000*%
%ADD15O,1.000000X1.800000*%
%ADD16C,1.524000*%
%ADD17RoundRect,0.237500X-0.237500X0.250000X-0.237500X-0.250000X0.237500X-0.250000X0.237500X0.250000X0*%
%ADD18RoundRect,0.150000X0.150000X-0.825000X0.150000X0.825000X-0.150000X0.825000X-0.150000X-0.825000X0*%
%ADD19RoundRect,0.150000X0.587500X0.150000X-0.587500X0.150000X-0.587500X-0.150000X0.587500X-0.150000X0*%
%ADD20RoundRect,0.237500X0.237500X-0.250000X0.237500X0.250000X-0.237500X0.250000X-0.237500X-0.250000X0*%
%ADD21RoundRect,0.237500X-0.237500X0.300000X-0.237500X-0.300000X0.237500X-0.300000X0.237500X0.300000X0*%
G04 APERTURE END LIST*
D10*
X35504000Y40212000D03*
X35504000Y45212000D03*
X32004000Y40212000D03*
X32004000Y45212000D03*
X9652000Y29352000D03*
X4652000Y29352000D03*
X9652000Y25852000D03*
X4652000Y25852000D03*
X9652000Y22352000D03*
X4652000Y22352000D03*
X9652000Y18852000D03*
X4652000Y18852000D03*
X9652000Y15352000D03*
X4652000Y15352000D03*
X34902000Y28194000D03*
X41402000Y28194000D03*
X34902000Y23694000D03*
X41402000Y23694000D03*
D11*
X49022000Y48152000D03*
D12*
X47752000Y46082000D03*
X46482000Y48152000D03*
D13*
X50450000Y5145000D03*
X56230000Y5145000D03*
D14*
X49020000Y5665000D03*
D15*
X49020000Y1465000D03*
D14*
X57660000Y5665000D03*
D15*
X57660000Y1465000D03*
D16*
X14478000Y44704000D03*
X14478000Y42164000D03*
X14478000Y39624000D03*
X22098000Y39624000D03*
X22098000Y42164000D03*
X22098000Y44704000D03*
D17*
X52070000Y23772500D03*
X52070000Y21947500D03*
D18*
X60198000Y11814000D03*
X58928000Y11814000D03*
X57658000Y11814000D03*
X56388000Y11814000D03*
X55118000Y11814000D03*
X53848000Y11814000D03*
X52578000Y11814000D03*
X51308000Y11814000D03*
X51308000Y16764000D03*
X52578000Y16764000D03*
X53848000Y16764000D03*
X55118000Y16764000D03*
X56388000Y16764000D03*
X57658000Y16764000D03*
X58928000Y16764000D03*
X60198000Y16764000D03*
D19*
X50292000Y22032000D03*
X50292000Y20132000D03*
X48417000Y21082000D03*
D20*
X53594000Y21947500D03*
X53594000Y23772500D03*
D19*
X50292000Y25588000D03*
X50292000Y23688000D03*
X48417000Y24638000D03*
D21*
X61722000Y15340500D03*
X61722000Y13615500D03*
D20*
X59182000Y30075500D03*
X59182000Y31900500D03*
M02*
